<svg width="62" height="63" viewBox="0 0 62 63" fill="none" xmlns="http://www.w3.org/2000/svg">
<mask id="path-1-outside-1_36_92" maskUnits="userSpaceOnUse" x="0" y="0" width="62" height="63" fill="black">
<rect fill="white" width="62" height="63"/>
<path d="M38.6381 14.1391C38.6194 14.1185 38.5959 14.1081 38.5677 14.1075H38.565C38.5519 14.1075 38.5392 14.1098 38.5267 14.1148C38.5145 14.12 38.5035 14.1269 38.4943 14.1359C38.4848 14.1452 38.4777 14.1559 38.4726 14.1677C38.4676 14.1796 38.4649 14.192 38.4649 14.2051L38.4595 14.3816L38.6164 14.2919C38.6449 14.2763 38.6613 14.2525 38.6651 14.221C38.6649 14.2169 38.6657 14.2135 38.6678 14.2103C38.6684 14.1825 38.6586 14.1588 38.6381 14.1391ZM33.1344 17.3662L33.091 17.2556L33.0099 17.3031H22.9459L22.9162 17.411L22.9218 17.5005H33.039C33.0571 17.4999 33.0744 17.4956 33.0904 17.4874L33.1392 17.4585V17.4006C33.1389 17.3888 33.1371 17.3775 33.1344 17.3662ZM33.1344 17.3662L33.091 17.2556L33.0099 17.3031H32.8881L32.9368 17.4215V17.5005H33.0396C33.0577 17.4999 33.075 17.4956 33.091 17.4874L33.1398 17.4585V17.4006C33.1392 17.3888 33.1374 17.3775 33.1344 17.3662ZM26.8484 2.00013L26.8457 2.00273C26.8635 1.99984 26.8807 2.00245 26.8971 2.01055C26.8819 2.00273 26.8656 1.99926 26.8484 2.00013ZM38.6381 14.1391C38.6194 14.1185 38.5959 14.1081 38.5677 14.1075H38.565C38.5519 14.1075 38.5392 14.1098 38.5267 14.1151C38.5145 14.12 38.5035 14.1269 38.4943 14.1359C38.4848 14.1452 38.4777 14.1559 38.4726 14.1677C38.4676 14.1796 38.4649 14.192 38.4649 14.2051L38.4595 14.3816L38.6164 14.2919C38.6449 14.2763 38.6613 14.2525 38.6651 14.221C38.6649 14.2169 38.6657 14.2135 38.6678 14.2103C38.6684 14.1825 38.6586 14.1588 38.6381 14.1391ZM1.96979 27.7349C1.93859 27.7239 1.90888 27.7265 1.88035 27.743C1.87768 27.7456 1.87233 27.7482 1.86966 27.7508C1.85926 27.7566 1.85124 27.7647 1.84529 27.7745C1.83638 27.7873 1.83192 27.8014 1.83162 27.8168L1.82895 27.8324L1.00056 36.1912C1.00145 36.1784 1.00501 36.166 1.01125 36.1544C1.0172 36.1428 1.02522 36.133 1.03532 36.1246C1.04572 36.1162 1.05701 36.1101 1.06979 36.1061C1.08227 36.102 1.09534 36.1006 1.10871 36.1018L1.21152 36.1096L1.97989 28.362L2.0206 27.9615L2.34001 28.0697L13.5236 31.8447L13.6859 31.7312C13.7105 31.7138 13.7376 31.7086 13.7673 31.7156L1.96979 27.7349ZM16.4845 54.1364L1.33096 36.3176L1.09534 36.2991C1.06919 36.2962 1.04661 36.2858 1.02789 36.2676L17.6017 55.7591L16.4845 54.1364ZM60.9949 35.9226L60.2697 32.6851L58.4105 24.3946C58.4105 24.3894 58.4078 24.3842 58.4078 24.3764C58.4055 24.3636 58.3998 24.3521 58.3918 24.3419C58.3847 24.3312 58.3758 24.3225 58.3648 24.3156C58.338 24.2976 58.3092 24.2933 58.278 24.3026L48.4068 26.4705C48.3774 26.4751 48.3557 26.4899 48.3417 26.5153L36.8494 44.8055L38.0049 38.6858C38.0085 38.6766 38.0103 38.667 38.0103 38.6569V38.6543L38.6678 14.2103C38.6657 14.2135 38.6649 14.2169 38.6651 14.221C38.6613 14.2525 38.6449 14.2763 38.6164 14.2919L38.4595 14.3816L37.8103 38.586L33.1398 40.327V17.4585L33.091 17.4874C33.075 17.4956 33.0577 17.4999 33.0396 17.5005H32.9368V40.4642L29.1728 57.9299L26.9241 59.0574L24.9515 50.5458L24.9378 50.3218V50.3192L22.9221 17.5005L22.9165 17.411L22.9462 17.3031L26.8754 2.41889L32.8881 17.3031H33.0099L33.091 17.2556L27.1401 2.53755L38.4052 14.1839L33.0907 17.2556L33.1341 17.3662C33.1371 17.3775 33.1389 17.3888 33.1395 17.4006V17.4585L38.4595 14.3816L38.4649 14.2051C38.4649 14.192 38.4676 14.1796 38.4726 14.1677C38.4777 14.1559 38.4848 14.1452 38.4943 14.1359C38.5035 14.1269 38.5145 14.12 38.5267 14.1148C38.5392 14.1098 38.5519 14.1075 38.565 14.1075H38.5677C38.5959 14.1081 38.6194 14.1185 38.6381 14.1391L26.9348 2.03688L26.9268 2.02907C26.9176 2.02126 26.9075 2.01518 26.8965 2.01055C26.8801 2.00245 26.8632 1.99984 26.8451 2.00273C26.8397 2.00013 26.8371 2.00273 26.8314 2.00534C26.8225 2.00563 26.8145 2.00823 26.8071 2.01344C26.8044 2.01605 26.8014 2.01605 26.799 2.01865C26.7904 2.02473 26.7821 2.03196 26.7747 2.03978C26.772 2.04238 26.772 2.04499 26.7693 2.04759L18.4788 14.1524C18.4762 14.155 18.4735 14.1576 18.4762 14.1628C18.4658 14.177 18.461 14.1929 18.4625 14.2103L19.4585 41.2519L13.8326 31.763C13.8457 31.7848 13.8496 31.8079 13.8445 31.8325C13.8392 31.8571 13.8264 31.8771 13.8056 31.8921L13.7135 31.9578L19.4822 41.6944L24.6885 50.4824L24.1959 52.3476L19.1521 48.8519L9.58103 34.8162L9.50259 34.8715C9.49486 34.8767 9.48684 34.8813 9.47822 34.8845L9.40246 34.9083L18.9816 48.9573L19.1792 55.6352L17.7396 55.6063L4.57501 36.5046L4.45051 36.5469C4.43982 36.55 4.42912 36.5518 4.41813 36.5521H4.40981L4.36138 36.5495L16.4842 54.1364L17.6014 55.7591C17.6065 55.7657 17.6118 55.7721 17.6181 55.7776L19.2606 57.7111C19.2633 57.7163 19.2668 57.7206 19.2713 57.7244L21.6985 60.5773C21.7187 60.6019 21.7449 60.6143 21.777 60.6143C21.7862 60.6146 21.7951 60.6138 21.804 60.6115L25.8794 59.5551C25.8842 59.5554 25.8886 59.5546 25.8928 59.5525C25.8978 59.5549 25.9026 59.554 25.9065 59.5499L26.8778 59.2996C26.8864 59.2981 26.8944 59.2955 26.9021 59.2918L26.9131 59.2866L29.2916 58.0879L29.3104 58.0801C29.313 58.0801 29.313 58.0775 29.316 58.0775L33.5156 55.6511L33.2313 61.6128C33.2274 61.6154 33.2274 61.618 33.2313 61.6206C33.2283 61.6449 33.2354 61.666 33.253 61.6837C33.2562 61.6918 33.2616 61.6979 33.2693 61.7022L33.272 61.7048C33.2806 61.7103 33.2895 61.7147 33.299 61.7181C33.3097 61.721 33.3204 61.7228 33.3314 61.7233L39.7556 62H39.761C39.772 61.9994 39.7826 61.9977 39.7933 61.9945C39.8014 61.9928 39.8085 61.9893 39.815 61.9841C39.8195 61.9841 39.8231 61.9823 39.8257 61.9789L45.3514 57.5742C45.3592 57.5704 45.3654 57.5652 45.3704 57.5583C45.3761 57.5554 45.3808 57.551 45.3838 57.5452L60.9756 36.012L60.981 36.0042C60.9869 35.9973 60.9905 35.9895 60.992 35.9805C60.997 35.9707 61 35.9599 61 35.949C60.9997 35.94 60.9979 35.931 60.9949 35.9226ZM26.6074 2.64289L22.7542 17.2319L18.7008 14.1839L26.6074 2.64289ZM19.6775 41.6285V41.6128L18.6735 14.4131L22.7135 17.4504L24.7242 50.1479L19.6775 41.6285ZM24.1017 52.5241C24.1142 52.5345 24.1287 52.54 24.1451 52.54L23.3467 55.5721L19.4258 49.284L24.1017 52.5241ZM17.9024 55.8065L19.1851 55.8329L19.2312 57.3661L17.9024 55.8065ZM19.1958 49.297L23.2008 55.7197L19.3827 55.6407L19.1958 49.297ZM21.8126 60.4034L19.4421 57.6138L19.3881 55.8381L23.328 55.9226L25.7145 59.3945L21.8126 60.4034ZM25.9222 59.3419L23.4926 55.8039L24.8077 50.8224L26.7343 59.1312L25.9222 59.3419ZM60.0614 32.6851L56.7139 35.5117L55.3584 28.9072L58.2587 24.6449L60.0614 32.6851ZM56.5056 35.7276L42.9462 54.9293L37.4258 51.1043L49.4809 31.6444L56.5056 35.7276ZM49.6648 31.5205L55.1742 29.0285L56.503 35.4957L49.6648 31.5205ZM58.0831 24.5474L55.1825 28.8071L49.5216 31.3677L48.5473 26.6418L58.0831 24.5474ZM48.3798 26.8314L49.3404 31.489L37.2446 51.0172L33.781 50.0636L48.3798 26.8314ZM37.1147 51.1859L33.7269 55.1979V50.2561L37.1147 51.1859ZM29.4108 57.793L33.1261 40.5458L37.7776 38.8123L36.5737 45.1664C36.5686 45.1881 36.5722 45.2084 36.5844 45.2272L33.543 50.0688C33.5367 50.0778 33.5323 50.0877 33.5293 50.0978C33.5263 50.1073 33.5245 50.1169 33.5239 50.127V55.4141L29.4108 57.793ZM33.7242 55.5087L36.9896 51.647L33.4612 60.9935L33.7242 55.5087ZM37.3394 51.2887L42.7946 55.0662L33.5373 61.3651L37.3394 51.2887ZM39.6956 61.8023L33.6342 61.539L42.7239 55.3533L39.6956 61.8023ZM40.034 61.5572L42.9997 55.2428L45.1535 57.4793L40.034 61.5572ZM45.289 57.332L43.0998 55.0584L56.6973 35.7988L60.7103 36.0358L45.289 57.332ZM56.9029 35.6118L60.1095 32.9062L60.7697 35.841L56.9029 35.6118ZM13.8056 31.8921L13.7135 31.9578L9.58163 34.8162L9.50318 34.8715C9.49546 34.8767 9.48744 34.8813 9.47882 34.8845L9.40305 34.9083L4.57561 36.5046L4.45111 36.5469C4.44041 36.55 4.42972 36.5518 4.41872 36.5521H4.40981L4.36138 36.5495L1.33067 36.3176L1.09504 36.2991C1.0689 36.2962 1.04631 36.2858 1.0276 36.2676C1.0065 36.247 0.997585 36.2224 1.00056 36.1938V36.1912C1.00145 36.1784 1.00501 36.166 1.01125 36.1544C1.0172 36.1428 1.02522 36.133 1.03532 36.1246C1.04572 36.1162 1.05701 36.1101 1.06979 36.1061C1.08227 36.102 1.09534 36.1006 1.10871 36.1018L1.21152 36.1096L4.27996 36.3414L4.40446 36.3518L4.48558 36.3255L9.25627 34.7502L9.39711 34.7028L9.45386 34.6634L13.5236 31.8447L13.6859 31.7312C13.7105 31.7138 13.7376 31.7086 13.7673 31.7156C13.7726 31.7156 13.7753 31.7182 13.7806 31.7208C13.7919 31.7234 13.802 31.7286 13.8104 31.7367C13.8166 31.7422 13.8219 31.7483 13.8267 31.7549C13.8294 31.7575 13.8294 31.7602 13.832 31.763C13.8451 31.7845 13.8493 31.8076 13.8442 31.8325C13.8392 31.8571 13.8261 31.8768 13.8056 31.8921ZM2.34031 28.0697L2.00158 27.756C1.99237 27.747 1.98138 27.7398 1.9692 27.7349C1.938 27.7239 1.90828 27.7265 1.87976 27.743C1.87709 27.7456 1.87174 27.7482 1.86906 27.7508C1.85896 27.7566 1.85064 27.7647 1.8447 27.7745C1.83608 27.7873 1.83133 27.8014 1.83103 27.8168L1.82836 27.8324C1.83103 27.8405 1.83103 27.8483 1.8337 27.8535L1.97989 28.362L4.27996 36.3414L4.40446 36.3518L4.48558 36.3255L2.12935 28.1461L9.25686 34.7502L9.3977 34.7028L9.45445 34.6634L2.34031 28.0697Z"/>
</mask>
<path d="M38.6381 14.1391C38.6194 14.1185 38.5959 14.1081 38.5677 14.1075H38.565C38.5519 14.1075 38.5392 14.1098 38.5267 14.1148C38.5145 14.12 38.5035 14.1269 38.4943 14.1359C38.4848 14.1452 38.4777 14.1559 38.4726 14.1677C38.4676 14.1796 38.4649 14.192 38.4649 14.2051L38.4595 14.3816L38.6164 14.2919C38.6449 14.2763 38.6613 14.2525 38.6651 14.221C38.6649 14.2169 38.6657 14.2135 38.6678 14.2103C38.6684 14.1825 38.6586 14.1588 38.6381 14.1391ZM33.1344 17.3662L33.091 17.2556L33.0099 17.3031H22.9459L22.9162 17.411L22.9218 17.5005H33.039C33.0571 17.4999 33.0744 17.4956 33.0904 17.4874L33.1392 17.4585V17.4006C33.1389 17.3888 33.1371 17.3775 33.1344 17.3662ZM33.1344 17.3662L33.091 17.2556L33.0099 17.3031H32.8881L32.9368 17.4215V17.5005H33.0396C33.0577 17.4999 33.075 17.4956 33.091 17.4874L33.1398 17.4585V17.4006C33.1392 17.3888 33.1374 17.3775 33.1344 17.3662ZM26.8484 2.00013L26.8457 2.00273C26.8635 1.99984 26.8807 2.00245 26.8971 2.01055C26.8819 2.00273 26.8656 1.99926 26.8484 2.00013ZM38.6381 14.1391C38.6194 14.1185 38.5959 14.1081 38.5677 14.1075H38.565C38.5519 14.1075 38.5392 14.1098 38.5267 14.1151C38.5145 14.12 38.5035 14.1269 38.4943 14.1359C38.4848 14.1452 38.4777 14.1559 38.4726 14.1677C38.4676 14.1796 38.4649 14.192 38.4649 14.2051L38.4595 14.3816L38.6164 14.2919C38.6449 14.2763 38.6613 14.2525 38.6651 14.221C38.6649 14.2169 38.6657 14.2135 38.6678 14.2103C38.6684 14.1825 38.6586 14.1588 38.6381 14.1391ZM1.96979 27.7349C1.93859 27.7239 1.90888 27.7265 1.88035 27.743C1.87768 27.7456 1.87233 27.7482 1.86966 27.7508C1.85926 27.7566 1.85124 27.7647 1.84529 27.7745C1.83638 27.7873 1.83192 27.8014 1.83162 27.8168L1.82895 27.8324L1.00056 36.1912C1.00145 36.1784 1.00501 36.166 1.01125 36.1544C1.0172 36.1428 1.02522 36.133 1.03532 36.1246C1.04572 36.1162 1.05701 36.1101 1.06979 36.1061C1.08227 36.102 1.09534 36.1006 1.10871 36.1018L1.21152 36.1096L1.97989 28.362L2.0206 27.9615L2.34001 28.0697L13.5236 31.8447L13.6859 31.7312C13.7105 31.7138 13.7376 31.7086 13.7673 31.7156L1.96979 27.7349ZM16.4845 54.1364L1.33096 36.3176L1.09534 36.2991C1.06919 36.2962 1.04661 36.2858 1.02789 36.2676L17.6017 55.7591L16.4845 54.1364ZM60.9949 35.9226L60.2697 32.6851L58.4105 24.3946C58.4105 24.3894 58.4078 24.3842 58.4078 24.3764C58.4055 24.3636 58.3998 24.3521 58.3918 24.3419C58.3847 24.3312 58.3758 24.3225 58.3648 24.3156C58.338 24.2976 58.3092 24.2933 58.278 24.3026L48.4068 26.4705C48.3774 26.4751 48.3557 26.4899 48.3417 26.5153L36.8494 44.8055L38.0049 38.6858C38.0085 38.6766 38.0103 38.667 38.0103 38.6569V38.6543L38.6678 14.2103C38.6657 14.2135 38.6649 14.2169 38.6651 14.221C38.6613 14.2525 38.6449 14.2763 38.6164 14.2919L38.4595 14.3816L37.8103 38.586L33.1398 40.327V17.4585L33.091 17.4874C33.075 17.4956 33.0577 17.4999 33.0396 17.5005H32.9368V40.4642L29.1728 57.9299L26.9241 59.0574L24.9515 50.5458L24.9378 50.3218V50.3192L22.9221 17.5005L22.9165 17.411L22.9462 17.3031L26.8754 2.41889L32.8881 17.3031H33.0099L33.091 17.2556L27.1401 2.53755L38.4052 14.1839L33.0907 17.2556L33.1341 17.3662C33.1371 17.3775 33.1389 17.3888 33.1395 17.4006V17.4585L38.4595 14.3816L38.4649 14.2051C38.4649 14.192 38.4676 14.1796 38.4726 14.1677C38.4777 14.1559 38.4848 14.1452 38.4943 14.1359C38.5035 14.1269 38.5145 14.12 38.5267 14.1148C38.5392 14.1098 38.5519 14.1075 38.565 14.1075H38.5677C38.5959 14.1081 38.6194 14.1185 38.6381 14.1391L26.9348 2.03688L26.9268 2.02907C26.9176 2.02126 26.9075 2.01518 26.8965 2.01055C26.8801 2.00245 26.8632 1.99984 26.8451 2.00273C26.8397 2.00013 26.8371 2.00273 26.8314 2.00534C26.8225 2.00563 26.8145 2.00823 26.8071 2.01344C26.8044 2.01605 26.8014 2.01605 26.799 2.01865C26.7904 2.02473 26.7821 2.03196 26.7747 2.03978C26.772 2.04238 26.772 2.04499 26.7693 2.04759L18.4788 14.1524C18.4762 14.155 18.4735 14.1576 18.4762 14.1628C18.4658 14.177 18.461 14.1929 18.4625 14.2103L19.4585 41.2519L13.8326 31.763C13.8457 31.7848 13.8496 31.8079 13.8445 31.8325C13.8392 31.8571 13.8264 31.8771 13.8056 31.8921L13.7135 31.9578L19.4822 41.6944L24.6885 50.4824L24.1959 52.3476L19.1521 48.8519L9.58103 34.8162L9.50259 34.8715C9.49486 34.8767 9.48684 34.8813 9.47822 34.8845L9.40246 34.9083L18.9816 48.9573L19.1792 55.6352L17.7396 55.6063L4.57501 36.5046L4.45051 36.5469C4.43982 36.55 4.42912 36.5518 4.41813 36.5521H4.40981L4.36138 36.5495L16.4842 54.1364L17.6014 55.7591C17.6065 55.7657 17.6118 55.7721 17.6181 55.7776L19.2606 57.7111C19.2633 57.7163 19.2668 57.7206 19.2713 57.7244L21.6985 60.5773C21.7187 60.6019 21.7449 60.6143 21.777 60.6143C21.7862 60.6146 21.7951 60.6138 21.804 60.6115L25.8794 59.5551C25.8842 59.5554 25.8886 59.5546 25.8928 59.5525C25.8978 59.5549 25.9026 59.554 25.9065 59.5499L26.8778 59.2996C26.8864 59.2981 26.8944 59.2955 26.9021 59.2918L26.9131 59.2866L29.2916 58.0879L29.3104 58.0801C29.313 58.0801 29.313 58.0775 29.316 58.0775L33.5156 55.6511L33.2313 61.6128C33.2274 61.6154 33.2274 61.618 33.2313 61.6206C33.2283 61.6449 33.2354 61.666 33.253 61.6837C33.2562 61.6918 33.2616 61.6979 33.2693 61.7022L33.272 61.7048C33.2806 61.7103 33.2895 61.7147 33.299 61.7181C33.3097 61.721 33.3204 61.7228 33.3314 61.7233L39.7556 62H39.761C39.772 61.9994 39.7826 61.9977 39.7933 61.9945C39.8014 61.9928 39.8085 61.9893 39.815 61.9841C39.8195 61.9841 39.8231 61.9823 39.8257 61.9789L45.3514 57.5742C45.3592 57.5704 45.3654 57.5652 45.3704 57.5583C45.3761 57.5554 45.3808 57.551 45.3838 57.5452L60.9756 36.012L60.981 36.0042C60.9869 35.9973 60.9905 35.9895 60.992 35.9805C60.997 35.9707 61 35.9599 61 35.949C60.9997 35.94 60.9979 35.931 60.9949 35.9226ZM26.6074 2.64289L22.7542 17.2319L18.7008 14.1839L26.6074 2.64289ZM19.6775 41.6285V41.6128L18.6735 14.4131L22.7135 17.4504L24.7242 50.1479L19.6775 41.6285ZM24.1017 52.5241C24.1142 52.5345 24.1287 52.54 24.1451 52.54L23.3467 55.5721L19.4258 49.284L24.1017 52.5241ZM17.9024 55.8065L19.1851 55.8329L19.2312 57.3661L17.9024 55.8065ZM19.1958 49.297L23.2008 55.7197L19.3827 55.6407L19.1958 49.297ZM21.8126 60.4034L19.4421 57.6138L19.3881 55.8381L23.328 55.9226L25.7145 59.3945L21.8126 60.4034ZM25.9222 59.3419L23.4926 55.8039L24.8077 50.8224L26.7343 59.1312L25.9222 59.3419ZM60.0614 32.6851L56.7139 35.5117L55.3584 28.9072L58.2587 24.6449L60.0614 32.6851ZM56.5056 35.7276L42.9462 54.9293L37.4258 51.1043L49.4809 31.6444L56.5056 35.7276ZM49.6648 31.5205L55.1742 29.0285L56.503 35.4957L49.6648 31.5205ZM58.0831 24.5474L55.1825 28.8071L49.5216 31.3677L48.5473 26.6418L58.0831 24.5474ZM48.3798 26.8314L49.3404 31.489L37.2446 51.0172L33.781 50.0636L48.3798 26.8314ZM37.1147 51.1859L33.7269 55.1979V50.2561L37.1147 51.1859ZM29.4108 57.793L33.1261 40.5458L37.7776 38.8123L36.5737 45.1664C36.5686 45.1881 36.5722 45.2084 36.5844 45.2272L33.543 50.0688C33.5367 50.0778 33.5323 50.0877 33.5293 50.0978C33.5263 50.1073 33.5245 50.1169 33.5239 50.127V55.4141L29.4108 57.793ZM33.7242 55.5087L36.9896 51.647L33.4612 60.9935L33.7242 55.5087ZM37.3394 51.2887L42.7946 55.0662L33.5373 61.3651L37.3394 51.2887ZM39.6956 61.8023L33.6342 61.539L42.7239 55.3533L39.6956 61.8023ZM40.034 61.5572L42.9997 55.2428L45.1535 57.4793L40.034 61.5572ZM45.289 57.332L43.0998 55.0584L56.6973 35.7988L60.7103 36.0358L45.289 57.332ZM56.9029 35.6118L60.1095 32.9062L60.7697 35.841L56.9029 35.6118ZM13.8056 31.8921L13.7135 31.9578L9.58163 34.8162L9.50318 34.8715C9.49546 34.8767 9.48744 34.8813 9.47882 34.8845L9.40305 34.9083L4.57561 36.5046L4.45111 36.5469C4.44041 36.55 4.42972 36.5518 4.41872 36.5521H4.40981L4.36138 36.5495L1.33067 36.3176L1.09504 36.2991C1.0689 36.2962 1.04631 36.2858 1.0276 36.2676C1.0065 36.247 0.997585 36.2224 1.00056 36.1938V36.1912C1.00145 36.1784 1.00501 36.166 1.01125 36.1544C1.0172 36.1428 1.02522 36.133 1.03532 36.1246C1.04572 36.1162 1.05701 36.1101 1.06979 36.1061C1.08227 36.102 1.09534 36.1006 1.10871 36.1018L1.21152 36.1096L4.27996 36.3414L4.40446 36.3518L4.48558 36.3255L9.25627 34.7502L9.39711 34.7028L9.45386 34.6634L13.5236 31.8447L13.6859 31.7312C13.7105 31.7138 13.7376 31.7086 13.7673 31.7156C13.7726 31.7156 13.7753 31.7182 13.7806 31.7208C13.7919 31.7234 13.802 31.7286 13.8104 31.7367C13.8166 31.7422 13.8219 31.7483 13.8267 31.7549C13.8294 31.7575 13.8294 31.7602 13.832 31.763C13.8451 31.7845 13.8493 31.8076 13.8442 31.8325C13.8392 31.8571 13.8261 31.8768 13.8056 31.8921ZM2.34031 28.0697L2.00158 27.756C1.99237 27.747 1.98138 27.7398 1.9692 27.7349C1.938 27.7239 1.90828 27.7265 1.87976 27.743C1.87709 27.7456 1.87174 27.7482 1.86906 27.7508C1.85896 27.7566 1.85064 27.7647 1.8447 27.7745C1.83608 27.7873 1.83133 27.8014 1.83103 27.8168L1.82836 27.8324C1.83103 27.8405 1.83103 27.8483 1.8337 27.8535L1.97989 28.362L4.27996 36.3414L4.40446 36.3518L4.48558 36.3255L2.12935 28.1461L9.25686 34.7502L9.3977 34.7028L9.45445 34.6634L2.34031 28.0697Z" fill="url(#paint0_linear_36_92)"/>
<path d="M38.6381 14.1391L38.4533 14.3074L38.4589 14.3136L38.465 14.3194L38.6381 14.1391ZM38.5677 14.1075L38.5728 13.8575H38.5677V14.1075ZM38.5267 14.1148L38.435 13.8821L38.4284 13.8849L38.5267 14.1148ZM38.4943 14.1359L38.6687 14.315V14.315L38.4943 14.1359ZM38.4726 14.1677L38.2426 14.0698V14.0698L38.4726 14.1677ZM38.4649 14.2051L38.7149 14.2126V14.2051H38.4649ZM38.4595 14.3816L38.2097 14.374L38.1961 14.8202L38.5836 14.5986L38.4595 14.3816ZM38.6164 14.2919L38.4963 14.0726L38.4923 14.0749L38.6164 14.2919ZM38.6651 14.221L38.9133 14.2514L38.9163 14.2271L38.9145 14.2027L38.6651 14.221ZM38.6678 14.2103L38.8771 14.347L38.9162 14.2871L38.9178 14.2156L38.6678 14.2103ZM33.091 17.2556L33.3237 17.1643L33.217 16.8923L32.9648 17.0399L33.091 17.2556ZM33.0099 17.3031V17.5531H33.0777L33.1362 17.5189L33.0099 17.3031ZM33.0396 17.5005V17.7506L33.0476 17.7503L33.0396 17.5005ZM33.091 17.4874L33.2037 17.7106L33.2113 17.7068L33.2187 17.7024L33.091 17.4874ZM1.01125 36.1544L1.23136 36.2731L1.23366 36.2686L1.01125 36.1544ZM1.03532 36.1246L0.878299 35.93L0.875566 35.9323L1.03532 36.1246ZM1.06979 36.1061L1.14536 36.3444L1.14699 36.3439L1.06979 36.1061ZM1.10871 36.1018L1.08715 36.3508L1.08976 36.351L1.10871 36.1018ZM13.6859 31.7312L13.8291 31.9361L13.8298 31.9356L13.6859 31.7312ZM4.40446 36.3518L4.38361 36.6009L4.43378 36.6051L4.48166 36.5896L4.40446 36.3518ZM38.8229 13.9707C38.7566 13.8979 38.6674 13.8595 38.5728 13.8576L38.5626 14.3575C38.5468 14.3572 38.5263 14.3538 38.5045 14.3441C38.4825 14.3342 38.4654 14.3207 38.4533 14.3074L38.8229 13.9707ZM38.5677 13.8575H38.565V14.3575H38.5677V13.8575ZM38.565 13.8575C38.5216 13.8575 38.4776 13.8654 38.435 13.8822L38.6184 14.3473C38.6007 14.3543 38.5823 14.3575 38.565 14.3575V13.8575ZM38.4284 13.8849C38.3924 13.9003 38.3544 13.9232 38.3199 13.9568L38.6687 14.315C38.6527 14.3306 38.6366 14.3397 38.625 14.3446L38.4284 13.8849ZM38.3199 13.9568C38.2854 13.9904 38.2599 14.0291 38.2426 14.0698L38.7026 14.2656C38.6954 14.2826 38.6842 14.2999 38.6687 14.315L38.3199 13.9568ZM38.2426 14.0698C38.225 14.1111 38.2149 14.1568 38.2149 14.2051H38.7149C38.7149 14.2273 38.7101 14.248 38.7026 14.2656L38.2426 14.0698ZM38.215 14.1975L38.2097 14.374L38.7094 14.3892L38.7148 14.2126L38.215 14.1975ZM38.5836 14.5986L38.7405 14.5089L38.4923 14.0749L38.3354 14.1646L38.5836 14.5986ZM38.7365 14.5111C38.8335 14.458 38.8994 14.3653 38.9133 14.2514L38.417 14.1906C38.4194 14.1706 38.4271 14.1454 38.444 14.1207C38.4608 14.0963 38.4808 14.0811 38.4963 14.0726L38.7365 14.5111ZM38.9145 14.2027C38.9161 14.2245 38.9148 14.2496 38.9081 14.2763C38.9013 14.3031 38.8903 14.3269 38.8771 14.347L38.4585 14.0735C38.4252 14.1245 38.4117 14.1828 38.4158 14.2393L38.9145 14.2027ZM38.9178 14.2156C38.9199 14.1171 38.8816 14.0263 38.8112 13.9587L38.465 14.3194C38.4529 14.3078 38.4396 14.2906 38.4301 14.2677C38.4205 14.2447 38.4175 14.2227 38.4179 14.2049L38.9178 14.2156ZM33.3671 17.2749L33.3237 17.1643L32.8583 17.347L32.9017 17.4575L33.3671 17.2749ZM32.9648 17.0399L32.8837 17.0873L33.1362 17.5189L33.2173 17.4714L32.9648 17.0399ZM33.0099 17.0531H32.8881V17.5531H33.0099V17.0531ZM32.9368 17.7505H33.0396V17.2505H32.9368V17.7505ZM33.0476 17.7503C33.1015 17.7486 33.1545 17.7355 33.2037 17.7106L32.9783 17.2643C32.9954 17.2557 33.014 17.2512 33.0316 17.2506L33.0476 17.7503ZM33.2187 17.7024L33.2674 17.6735L33.0121 17.2436L32.9634 17.2725L33.2187 17.7024ZM1.24995 36.2086C1.24836 36.2313 1.24192 36.2534 1.23132 36.273L0.791186 36.0358C0.768104 36.0786 0.754538 36.1256 0.751167 36.1737L1.24995 36.2086ZM1.23366 36.2686C1.22351 36.2884 1.20972 36.3047 1.19508 36.3169L0.875566 35.9323C0.840716 35.9613 0.810883 35.9973 0.788847 36.0403L1.23366 36.2686ZM1.19233 36.3192C1.17859 36.3302 1.16228 36.339 1.14536 36.3444L0.994217 35.8678C0.95174 35.8813 0.912845 35.9022 0.878315 35.9301L1.19233 36.3192ZM1.14699 36.3439C1.12669 36.3505 1.10612 36.3525 1.08715 36.3508L1.13027 35.8527C1.08456 35.8487 1.03784 35.8536 0.992589 35.8683L1.14699 36.3439ZM1.08976 36.351L1.19257 36.3588L1.23046 35.8603L1.12766 35.8525L1.08976 36.351ZM13.6669 32.0495L13.8291 31.9361L13.5426 31.5263L13.3804 31.6398L13.6669 32.0495ZM13.8298 31.9356C13.8159 31.9454 13.7963 31.9551 13.7718 31.9598C13.7475 31.9645 13.726 31.9627 13.7104 31.959L13.8242 31.4721C13.7258 31.4491 13.6255 31.4679 13.5419 31.5268L13.8298 31.9356ZM13.6604 31.6886L13.5683 31.7543L13.8587 32.1614L13.9508 32.0957L13.6604 31.6886ZM4.42323 36.3024L4.3748 36.2998L4.34795 36.7991L4.39638 36.8017L4.42323 36.3024ZM4.25911 36.5905L4.38361 36.6009L4.42531 36.1027L4.30081 36.0923L4.25911 36.5905ZM4.48166 36.5896L4.56278 36.5632L4.40838 36.0877L4.32726 36.114L4.48166 36.5896ZM38.4595 14.3816L38.9594 14.395L38.9833 13.501L38.2092 13.9488L38.4595 14.3816ZM33.1344 17.3662L33.6179 17.2389L32.6479 17.4815L33.1344 17.3662ZM22.9459 17.3031V16.8031H22.5649L22.4638 17.1704L22.9459 17.3031ZM22.9162 17.411L22.4341 17.2784L22.4119 17.359L22.4171 17.4426L22.9162 17.411ZM22.9218 17.5005L22.4228 17.532L22.4524 18.0005H22.9218V17.5005ZM33.039 17.5005V18.0005H33.047L33.055 18.0002L33.039 17.5005ZM33.0904 17.4874L33.3158 17.9338L33.3311 17.9261L33.3457 17.9173L33.0904 17.4874ZM33.1392 17.4585L33.3945 17.8884L33.6392 17.7431V17.4585H33.1392ZM33.1392 17.4006H33.6393L33.639 17.3881L33.1392 17.4006ZM32.8881 17.3031L32.4245 17.4904L32.4257 17.4934L32.8881 17.3031ZM32.9368 17.4215H33.4368V17.3226L33.3992 17.2311L32.9368 17.4215ZM33.1398 17.4006H33.6398V17.3881L33.6391 17.3756L33.1398 17.4006ZM26.8484 2.00013L26.8232 1.50076L26.6347 1.51026L26.4995 1.64195L26.8484 2.00013ZM26.8457 2.00273L26.4968 1.64455L25.3617 2.75018L26.9258 2.49627L26.8457 2.00273ZM26.8971 2.01055L26.675 2.4585L27.1262 1.56615L26.8971 2.01055ZM38.5267 14.1151L38.7139 14.5787L38.7193 14.5765L38.5267 14.1151ZM1.96979 27.7349L1.80355 28.2065L1.80993 28.2086L1.96979 27.7349ZM1.88035 27.743L1.63004 27.3101L1.57612 27.3413L1.53149 27.3848L1.88035 27.743ZM1.86966 27.7508L2.11282 28.1877L2.1709 28.1553L2.21852 28.109L1.86966 27.7508ZM1.84529 27.7745L2.2549 28.0613L2.26457 28.0474L2.27329 28.033L1.84529 27.7745ZM1.83162 27.8168L2.32446 27.9011L2.3308 27.864L2.33153 27.8265L1.83162 27.8168ZM1.82895 27.8324L1.33611 27.7481L1.33313 27.7655L1.33139 27.7831L1.82895 27.8324ZM1.00056 36.1912L0.502994 36.1419L0.500557 36.1665V36.1912H1.00056ZM1.21152 36.1096L0.713959 36.0602L0.663442 36.5696L1.17385 36.6081L1.21152 36.1096ZM2.0206 27.9615L2.18107 27.4879L1.58662 27.2865L1.52316 27.9109L2.0206 27.9615ZM2.34001 28.0697L2.17954 28.5433L2.1801 28.5434L2.34001 28.0697ZM13.5236 31.8447L13.8083 32.2557L14.6263 31.6891L13.6835 31.3709L13.5236 31.8447ZM13.7673 31.7156L13.6074 32.1893L13.6852 32.2156H13.7673V31.7156ZM16.4845 54.1364L16.8963 53.8528L16.8819 53.8319L16.8654 53.8125L16.4845 54.1364ZM1.33096 36.3176L1.71185 35.9937L1.57726 35.8355L1.37015 35.8192L1.33096 36.3176ZM1.09534 36.2991L1.04034 36.7961L1.04824 36.797L1.05616 36.7976L1.09534 36.2991ZM1.02789 36.2676L1.37676 35.9094L0.646981 36.5915L1.02789 36.2676ZM17.6017 55.7591L17.2208 56.083L18.0135 55.4755L17.6017 55.7591ZM60.9949 35.9226L60.507 36.0319L60.5136 36.0612L60.5236 36.0895L60.9949 35.9226ZM60.2697 32.6851L60.7576 32.5758L60.7575 32.5757L60.2697 32.6851ZM58.4105 24.3946H57.9105V24.45L57.9226 24.504L58.4105 24.3946ZM58.4078 24.3764H58.9078V24.3301L58.8994 24.2846L58.4078 24.3764ZM58.3918 24.3419L57.9756 24.6191L57.9871 24.6362L57.9999 24.6524L58.3918 24.3419ZM58.3648 24.3156L58.0861 24.7309L58.0977 24.7383L58.3648 24.3156ZM58.278 24.3026L58.3853 24.7909L58.4029 24.787L58.4203 24.7819L58.278 24.3026ZM48.4068 26.4705L48.4846 26.9644L48.4994 26.9621L48.5141 26.9588L48.4068 26.4705ZM48.3417 26.5153L48.7651 26.7813L48.773 26.7688L48.7801 26.7557L48.3417 26.5153ZM36.8494 44.8055L36.3581 44.7127L37.2728 45.0715L36.8494 44.8055ZM38.0049 38.6858L37.5383 38.5062L37.522 38.5485L37.5136 38.593L38.0049 38.6858ZM38.0103 38.6543L37.5103 38.6408V38.6543H38.0103ZM37.8103 38.586L37.985 39.0545L38.3011 38.9366L38.3101 38.5994L37.8103 38.586ZM33.1398 40.327H32.6398V41.047L33.3144 40.7955L33.1398 40.327ZM32.9368 40.4642L33.4256 40.5695L33.4368 40.5175V40.4642H32.9368ZM29.1728 57.9299L29.3969 58.3768L29.6111 58.2694L29.6616 58.0352L29.1728 57.9299ZM26.9241 59.0574L26.437 59.1703L26.5804 59.789L27.1482 59.5043L26.9241 59.0574ZM24.9515 50.5458L24.4524 50.5762L24.455 50.618L24.4644 50.6587L24.9515 50.5458ZM24.9378 50.3218H24.4378V50.337L24.4387 50.3522L24.9378 50.3218ZM24.9378 50.3192H25.4378V50.3038L25.4369 50.2885L24.9378 50.3192ZM22.9221 17.5005L23.4212 17.4698L23.4211 17.469L22.9221 17.5005ZM22.9165 17.411L22.4344 17.2784L22.4122 17.359L22.4174 17.4426L22.9165 17.411ZM22.9462 17.3031L23.4283 17.4358L23.4296 17.4307L22.9462 17.3031ZM26.8754 2.41889L27.339 2.23162L26.7758 0.837363L26.392 2.29127L26.8754 2.41889ZM27.1401 2.53755L27.4995 2.18993L26.6766 2.72497L27.1401 2.53755ZM38.4052 14.1839L38.6554 14.6168L39.2096 14.2965L38.7646 13.8363L38.4052 14.1839ZM33.0907 17.2556L32.8405 16.8227L32.4682 17.038L32.6253 17.4383L33.0907 17.2556ZM33.1341 17.3662L33.6176 17.2389L33.6102 17.2107L33.5996 17.1835L33.1341 17.3662ZM33.1395 17.4006H33.6395V17.3881L33.6388 17.3756L33.1395 17.4006ZM33.1395 17.4585H32.6395V18.3253L33.3898 17.8913L33.1395 17.4585ZM26.9348 2.03688L27.2942 1.6893L27.289 1.68393L27.2837 1.6787L26.9348 2.03688ZM26.9268 2.02907L27.2757 1.67089L27.2634 1.6589L27.2502 1.64778L26.9268 2.02907ZM26.8965 2.01055L26.6744 2.4585L26.6882 2.46536L26.7024 2.47134L26.8965 2.01055ZM26.8451 2.00273L26.6262 2.45226L26.7681 2.52137L26.9239 2.49648L26.8451 2.00273ZM26.8314 2.00534L26.8476 2.50508L26.9489 2.50179L27.0409 2.45935L26.8314 2.00534ZM26.8071 2.01344L26.52 1.60407L26.487 1.62718L26.4582 1.65526L26.8071 2.01344ZM26.799 2.01865L27.0872 2.42725L27.1317 2.39589L27.1683 2.3557L26.799 2.01865ZM26.7747 2.03978L27.1235 2.39796L27.1304 2.39125L27.137 2.38428L26.7747 2.03978ZM26.7693 2.04759L26.4205 1.68941L26.3849 1.72407L26.3568 1.76506L26.7693 2.04759ZM18.4788 14.1524L18.8277 14.5106L18.8633 14.4759L18.8914 14.4349L18.4788 14.1524ZM18.4762 14.1628L18.8794 14.4585L19.0621 14.2093L18.921 13.9345L18.4762 14.1628ZM18.4625 14.2103L18.9622 14.1919L18.9617 14.1797L18.9607 14.1676L18.4625 14.2103ZM19.4585 41.2519L19.0284 41.5069L19.9581 41.2335L19.4585 41.2519ZM13.8326 31.763L14.2609 31.5051L13.4026 32.018L13.8326 31.763ZM13.8445 31.8325L14.3331 31.9387L14.3343 31.9331L13.8445 31.8325ZM13.8056 31.8921L13.5061 31.4918L14.0987 32.2972L13.8056 31.8921ZM13.7135 31.9578L14.1437 31.7029L13.8702 31.2414L13.429 31.5466L13.7135 31.9578ZM19.4822 41.6944L19.9124 41.4396L19.9124 41.4396L19.4822 41.6944ZM24.6885 50.4824L25.1719 50.6101L25.2254 50.4077L25.1187 50.2276L24.6885 50.4824ZM24.1959 52.3476L23.9111 52.7585L24.4972 53.1648L24.6793 52.4753L24.1959 52.3476ZM19.1521 48.8519L18.739 49.1336L18.7912 49.2101L18.8673 49.2629L19.1521 48.8519ZM9.58103 34.8162L9.99413 34.5345L9.70807 34.115L9.29302 34.4075L9.58103 34.8162ZM9.50259 34.8715L9.78218 35.2862L9.7906 35.2802L9.50259 34.8715ZM9.47822 34.8845L9.62767 35.3617L9.63969 35.3579L9.6515 35.3535L9.47822 34.8845ZM9.40246 34.9083L9.25301 34.4311L8.6094 34.6327L8.98935 35.1899L9.40246 34.9083ZM18.9816 48.9573L19.4814 48.9425L19.477 48.7964L19.3947 48.6756L18.9816 48.9573ZM19.1792 55.6352L19.1691 56.1351L19.6945 56.1457L19.679 55.6204L19.1792 55.6352ZM17.7396 55.6063L17.3279 55.89L17.4733 56.101L17.7295 56.1062L17.7396 55.6063ZM4.57501 36.5046L4.98671 36.2209L4.77223 35.9097L4.41432 36.0311L4.57501 36.5046ZM4.45051 36.5469L4.59314 37.0261L4.60223 37.0234L4.61121 37.0203L4.45051 36.5469ZM4.41813 36.5521V37.0522L4.43128 37.0519L4.41813 36.5521ZM4.36138 36.5495L4.77305 36.2657L4.63755 36.0691L4.39951 36.0509L4.36138 36.5495ZM16.4842 54.1364L16.896 53.8528L16.8959 53.8526L16.4842 54.1364ZM17.6014 55.7591L17.1896 56.0426L17.1961 56.0521L17.2031 56.0613L17.6014 55.7591ZM17.6181 55.7776L17.9991 55.4539L17.9757 55.4263L17.9486 55.4025L17.6181 55.7776ZM19.2606 57.7111L19.7054 57.4827L19.679 57.4314L19.6416 57.3874L19.2606 57.7111ZM19.2713 57.7244L19.6521 57.4004L19.6253 57.3689L19.5938 57.3423L19.2713 57.7244ZM21.6985 60.5773L22.085 60.2599L22.0793 60.2533L21.6985 60.5773ZM21.777 60.6143L21.7927 60.1146L21.7848 60.1143H21.777V60.6143ZM21.804 60.6115L21.6786 60.1274L21.6783 60.1275L21.804 60.6115ZM25.8794 59.5551L25.9098 59.0561L25.8307 59.0512L25.754 59.0711L25.8794 59.5551ZM25.8928 59.5525L26.1011 59.098L25.8863 58.9995L25.6739 59.103L25.8928 59.5525ZM25.9065 59.5499L25.7817 59.0658L25.6432 59.1014L25.5446 59.2049L25.9065 59.5499ZM26.8778 59.2996L26.795 58.8065L26.7738 58.8101L26.753 58.8154L26.8778 59.2996ZM26.9021 59.2918L26.688 58.8399L26.6832 58.8423L26.9021 59.2918ZM26.9131 59.2866L27.1273 59.7386L27.1382 59.7331L26.9131 59.2866ZM29.2916 58.0879L29.099 57.6265L29.0826 57.6333L29.0666 57.6414L29.2916 58.0879ZM29.3104 58.0801V57.5801H29.2102L29.1178 57.6186L29.3104 58.0801ZM29.316 58.0775V58.5775H29.4501L29.5661 58.5104L29.316 58.0775ZM33.5156 55.6511L34.015 55.6749L34.0587 54.7599L33.2655 55.2182L33.5156 55.6511ZM33.2313 61.6128L33.5108 62.0273L33.7188 61.8871L33.7307 61.6366L33.2313 61.6128ZM33.2313 61.6206L33.7276 61.6813L33.7647 61.3773L33.5108 61.206L33.2313 61.6206ZM33.253 61.6837L33.7167 61.4967L33.6789 61.403L33.6077 61.3314L33.253 61.6837ZM33.2693 61.7022L33.6182 61.344L33.5713 61.2984L33.5142 61.2663L33.2693 61.7022ZM33.272 61.7048L32.9231 62.063L32.9598 62.0987L33.003 62.1263L33.272 61.7048ZM33.299 61.7181L33.1275 62.1878L33.1477 62.1952L33.1684 62.2008L33.299 61.7181ZM33.3314 61.7233L33.3051 62.2227L33.3099 62.2229L33.3314 61.7233ZM39.7556 62L39.7341 62.4995L39.7449 62.5H39.7556V62ZM39.761 62V62.5H39.7741L39.7873 62.4993L39.761 62ZM39.7933 61.9945L39.6876 61.5058L39.669 61.5098L39.6507 61.5153L39.7933 61.9945ZM39.815 61.9841V61.4841H39.6402L39.5034 61.5931L39.815 61.9841ZM39.8257 61.9789L39.5141 61.5879L39.4666 61.6257L39.4296 61.6738L39.8257 61.9789ZM45.3514 57.5742L45.1325 57.1247L45.0829 57.1488L45.0398 57.1832L45.3514 57.5742ZM45.3704 57.5583L45.1424 57.1133L45.0362 57.1677L44.9661 57.2642L45.3704 57.5583ZM45.3838 57.5452L44.9788 57.252L44.9564 57.2829L44.939 57.3169L45.3838 57.5452ZM60.9756 36.012L61.3808 36.3054L61.3882 36.2945L60.9756 36.012ZM60.981 36.0042L60.6011 35.6792L60.5836 35.6996L60.5684 35.7218L60.981 36.0042ZM60.992 35.9805L60.5472 35.7522L60.5115 35.8217L60.4987 35.8988L60.992 35.9805ZM61 35.949H61.5V35.9407L61.4997 35.9324L61 35.949ZM26.6074 2.64289L27.0908 2.77057L26.1949 2.3603L26.6074 2.64289ZM22.7542 17.2319L22.4537 17.6315L23.0478 18.0783L23.2376 17.3596L22.7542 17.2319ZM18.7008 14.1839L18.2883 13.9013L18.0179 14.296L18.4003 14.5836L18.7008 14.1839ZM19.6775 41.6285H19.1775V41.7654L19.2473 41.8833L19.6775 41.6285ZM19.6775 41.6128H20.1775V41.6036L20.1771 41.5944L19.6775 41.6128ZM18.6735 14.4131L18.9739 14.0135L18.1351 13.3829L18.1738 14.4316L18.6735 14.4131ZM22.7135 17.4504L23.2126 17.4197L23.1984 17.1894L23.014 17.0507L22.7135 17.4504ZM24.7242 50.1479L24.294 50.4027L25.2232 50.1172L24.7242 50.1479ZM24.1017 52.5241L24.4221 52.1403L24.4049 52.1259L24.3865 52.1132L24.1017 52.5241ZM24.1451 52.54L24.6286 52.6674L24.7938 52.04H24.1451V52.54ZM23.3467 55.5721L22.9224 55.8367L23.5353 56.8195L23.8302 55.6994L23.3467 55.5721ZM19.4258 49.284L19.7106 48.873L19.0015 49.5485L19.4258 49.284ZM17.9024 55.8065L17.9127 55.3066L16.8002 55.2838L17.5218 56.1308L17.9024 55.8065ZM19.1851 55.8329L19.6849 55.8178L19.6706 55.3427L19.1954 55.333L19.1851 55.8329ZM19.2312 57.3661L18.8506 57.6904L19.7737 58.7738L19.7309 57.3511L19.2312 57.3661ZM19.1958 49.297L19.6201 49.0325L18.6416 47.4632L18.696 49.3117L19.1958 49.297ZM23.2008 55.7197L23.1905 56.2196L24.1137 56.2387L23.6251 55.4551L23.2008 55.7197ZM19.3827 55.6407L18.8829 55.6554L18.8969 56.1307L19.3724 56.1406L19.3827 55.6407ZM21.8126 60.4034L21.4316 60.7271L21.6345 60.9659L21.9378 60.8875L21.8126 60.4034ZM19.4421 57.6138L18.9424 57.6291L18.9477 57.8041L19.0611 57.9376L19.4421 57.6138ZM19.3881 55.8381L19.3988 55.3382L18.8723 55.3269L18.8883 55.8533L19.3881 55.8381ZM23.328 55.9226L23.74 55.6393L23.5949 55.4282L23.3387 55.4227L23.328 55.9226ZM25.7145 59.3945L25.8397 59.8786L26.5311 59.6998L26.1266 59.1113L25.7145 59.3945ZM25.9222 59.3419L25.51 59.6249L25.7085 59.9139L26.0478 59.8258L25.9222 59.3419ZM23.4926 55.8039L23.0091 55.6763L22.9506 55.898L23.0804 56.087L23.4926 55.8039ZM24.8077 50.8224L25.2948 50.7095L24.3242 50.6948L24.8077 50.8224ZM26.7343 59.1312L26.8598 59.6151L27.3314 59.4928L27.2213 59.0182L26.7343 59.1312ZM60.0614 32.6851L60.3839 33.0671L60.6156 32.8715L60.5493 32.5757L60.0614 32.6851ZM56.7139 35.5117L56.2241 35.6122L56.3934 36.4368L57.0365 35.8937L56.7139 35.5117ZM55.3584 28.9072L54.945 28.626L54.8261 28.8007L54.8686 29.0078L55.3584 28.9072ZM58.2587 24.6449L58.7466 24.5355L58.4942 23.41L57.8453 24.3636L58.2587 24.6449ZM56.5056 35.7276L56.9141 36.016L57.2291 35.5698L56.7569 35.2953L56.5056 35.7276ZM42.9462 54.9293L42.6614 55.3403L43.0687 55.6226L43.3546 55.2178L42.9462 54.9293ZM37.4258 51.1043L37.0008 50.841L36.7506 51.2448L37.1411 51.5153L37.4258 51.1043ZM49.4809 31.6444L49.7322 31.2121L49.3119 30.9678L49.0559 31.3811L49.4809 31.6444ZM49.6648 31.5205L49.4588 31.065L48.5744 31.465L49.4136 31.9528L49.6648 31.5205ZM55.1742 29.0285L55.664 28.9279L55.5381 28.3151L54.9681 28.5729L55.1742 29.0285ZM56.503 35.4957L56.2517 35.928L57.2176 36.4895L56.9927 35.3951L56.503 35.4957ZM58.0831 24.5474L58.4964 24.8288L59.2043 23.7892L57.9758 24.059L58.0831 24.5474ZM55.1825 28.8071L55.3886 29.2627L55.5167 29.2047L55.5958 29.0885L55.1825 28.8071ZM49.5216 31.3677L49.0319 31.4687L49.1581 32.0809L49.7277 31.8233L49.5216 31.3677ZM48.5473 26.6418L48.4401 26.1534L47.958 26.2593L48.0576 26.7428L48.5473 26.6418ZM48.3798 26.8314L48.8695 26.7304L48.6182 25.5122L47.9564 26.5653L48.3798 26.8314ZM49.3404 31.489L49.7654 31.7523L49.8703 31.583L49.8301 31.388L49.3404 31.489ZM37.2446 51.0172L37.1119 51.4993L37.4726 51.5986L37.6696 51.2805L37.2446 51.0172ZM33.781 50.0636L33.3576 49.7976L32.9997 50.3672L33.6482 50.5457L33.781 50.0636ZM37.1147 51.1859L37.4967 51.5085L38.0015 50.9108L37.2471 50.7038L37.1147 51.1859ZM33.7269 55.1979H33.2269V56.565L34.1089 55.5205L33.7269 55.1979ZM33.7269 50.2561L33.8592 49.7739L33.2269 49.6004V50.2561H33.7269ZM29.4108 57.793L28.922 57.6877L28.6844 58.7907L29.6611 58.2258L29.4108 57.793ZM33.1261 40.5458L32.9515 40.0773L32.6949 40.1729L32.6373 40.4405L33.1261 40.5458ZM37.7776 38.8123L38.2689 38.9054L38.434 38.0341L37.603 38.3438L37.7776 38.8123ZM36.5737 45.1664L37.0606 45.2797L37.063 45.2696L37.0649 45.2595L36.5737 45.1664ZM36.5844 45.2272L37.0078 45.4931L37.1774 45.2231L37.004 44.9554L36.5844 45.2272ZM33.543 50.0688L33.9534 50.3543L33.9601 50.3447L33.9663 50.3348L33.543 50.0688ZM33.5293 50.0978L34.0068 50.2463L34.0091 50.2385L33.5293 50.0978ZM33.5239 50.127L33.0248 50.0977L33.0239 50.1124V50.127H33.5239ZM33.5239 55.4141L33.7743 55.8469L34.0239 55.7025V55.4141H33.5239ZM33.7242 55.5087L33.3424 55.1859L33.2329 55.3154L33.2248 55.4848L33.7242 55.5087ZM36.9896 51.647L37.4574 51.8235L36.6078 51.3241L36.9896 51.647ZM33.4612 60.9935L32.9618 60.9695L33.929 61.1701L33.4612 60.9935ZM37.3394 51.2887L37.624 50.8776L37.0976 50.5131L36.8716 51.1122L37.3394 51.2887ZM42.7946 55.0662L43.0759 55.4796L43.6781 55.0699L43.0793 54.6552L42.7946 55.0662ZM33.5373 61.3651L33.0695 61.1885L32.5113 62.6679L33.8186 61.7784L33.5373 61.3651ZM39.6956 61.8023L39.6739 62.3019L40.0066 62.3163L40.1482 62.0149L39.6956 61.8023ZM33.6342 61.539L33.3529 61.1256L32.1075 61.9731L33.6125 62.0385L33.6342 61.539ZM42.7239 55.3533L43.1765 55.5658L43.9531 53.9121L42.4426 54.94L42.7239 55.3533ZM40.034 61.5572L39.5815 61.3447L40.3455 61.9483L40.034 61.5572ZM42.9997 55.2428L43.3598 54.8959L42.8559 54.3727L42.5471 55.0302L42.9997 55.2428ZM45.1535 57.4793L45.4651 57.8704L45.8947 57.5281L45.5137 57.1324L45.1535 57.4793ZM45.289 57.332L44.9289 57.6788L45.3434 58.1093L45.694 57.6252L45.289 57.332ZM43.0998 55.0584L42.6913 54.77L42.453 55.1076L42.7396 55.4052L43.0998 55.0584ZM56.6973 35.7988L56.7268 35.2996L56.4492 35.2832L56.2888 35.5104L56.6973 35.7988ZM60.7103 36.0358L61.1153 36.329L61.6501 35.5904L60.7398 35.5366L60.7103 36.0358ZM56.9029 35.6118L56.5805 35.2297L55.6238 36.0369L56.8733 36.1109L56.9029 35.6118ZM60.1095 32.9062L60.5973 32.7964L60.4165 31.9929L59.7871 32.524L60.1095 32.9062ZM60.7697 35.841L60.7401 36.3401L61.4033 36.3794L61.2575 35.7313L60.7697 35.841ZM9.58163 34.8162L9.29715 34.405L9.29361 34.4075L9.58163 34.8162ZM9.50318 34.8715L9.78278 35.2862L9.79119 35.2802L9.50318 34.8715ZM9.47882 34.8845L9.62826 35.3617L9.64028 35.3579L9.6521 35.3535L9.47882 34.8845ZM9.40305 34.9083L9.25359 34.4311L9.24607 34.4335L9.40305 34.9083ZM4.57561 36.5046L4.41862 36.0299L4.41491 36.0311L4.57561 36.5046ZM4.45111 36.5469L4.59373 37.0261L4.60282 37.0234L4.6118 37.0203L4.45111 36.5469ZM4.41872 36.5521V37.0522L4.43188 37.0519L4.41872 36.5521ZM1.33067 36.3176L1.29148 36.8161L1.29253 36.8162L1.33067 36.3176ZM1.09504 36.2991L1.04004 36.7961L1.04794 36.797L1.05586 36.7976L1.09504 36.2991ZM1.0276 36.2676L1.37646 35.9094H1.37646L1.0276 36.2676ZM1.00056 36.1938L1.49789 36.2454L1.50056 36.2196V36.1938H1.00056ZM4.27996 36.3414L4.2423 36.84L4.95966 36.8942L4.7604 36.2029L4.27996 36.3414ZM4.48558 36.3255L4.00511 36.4639L4.14895 36.9632L4.64234 36.8003L4.48558 36.3255ZM9.25627 34.7502L9.41304 35.225L9.41594 35.2241L9.25627 34.7502ZM9.39711 34.7028L9.55678 35.1766L9.62387 35.154L9.68205 35.1136L9.39711 34.7028ZM9.45386 34.6634L9.16917 34.2524L9.16892 34.2526L9.45386 34.6634ZM13.7806 31.7208L13.5617 32.1703L13.6128 32.1952L13.6683 32.208L13.7806 31.7208ZM13.8104 31.7367L13.4615 32.0949L13.4704 32.1036L13.4798 32.1118L13.8104 31.7367ZM13.8267 31.7549L13.4198 32.0455L13.4458 32.0819L13.4778 32.1131L13.8267 31.7549ZM13.832 31.763L14.2588 31.5025L14.233 31.4602L14.1993 31.4237L13.832 31.763ZM13.8442 31.8325L14.334 31.9331L14.3342 31.932L13.8442 31.8325ZM2.34031 28.0697L2.68019 27.703L2.68006 27.7029L2.34031 28.0697ZM2.00158 27.756L1.65261 28.1143L1.66183 28.1228L2.00158 27.756ZM1.9692 27.7349L2.15643 27.2712L2.14601 27.267L2.13542 27.2633L1.9692 27.7349ZM1.87976 27.743L1.62945 27.3101L1.57552 27.3413L1.53089 27.3848L1.87976 27.743ZM1.86906 27.7508L2.11763 28.1846L2.17257 28.1531L2.21793 28.109L1.86906 27.7508ZM1.8447 27.7745L2.2588 28.0547L2.26603 28.044L2.2727 28.033L1.8447 27.7745ZM1.83103 27.8168L2.32387 27.9011L2.33021 27.864L2.33094 27.8265L1.83103 27.8168ZM1.82836 27.8324L1.33552 27.7481L1.31451 27.8708L1.35354 27.9891L1.82836 27.8324ZM1.8337 27.8535L2.31424 27.7154L2.30077 27.6685L2.27852 27.6252L1.8337 27.8535ZM2.12935 28.1461L2.46918 27.7793L1.15171 26.5586L1.64889 28.2845L2.12935 28.1461ZM9.25686 34.7502L8.91703 35.117L9.13498 35.319L9.41654 35.2241L9.25686 34.7502ZM9.3977 34.7028L9.55738 35.1766L9.62447 35.154L9.68265 35.1136L9.3977 34.7028ZM9.45445 34.6634L9.7394 35.0743L10.2507 34.7197L9.79434 34.2967L9.45445 34.6634ZM33.0099 16.8031H22.9459V17.8031H33.0099V16.8031ZM22.4638 17.1704L22.4341 17.2784L23.3982 17.5437L23.4279 17.4358L22.4638 17.1704ZM22.4171 17.4426L22.4228 17.532L23.4208 17.469L23.4152 17.3795L22.4171 17.4426ZM22.9218 18.0005H33.039V17.0005H22.9218V18.0005ZM33.055 18.0002C33.1446 17.9974 33.2335 17.9753 33.3158 17.9338L32.865 17.0411C32.9153 17.0158 32.9697 17.0024 33.0231 17.0007L33.055 18.0002ZM33.3457 17.9173L33.3945 17.8884L32.8838 17.0286L32.8351 17.0576L33.3457 17.9173ZM33.6392 17.4585V17.4006H32.6392V17.4585H33.6392ZM33.639 17.3881C33.6376 17.3334 33.6294 17.2868 33.6209 17.2509L32.6479 17.4815C32.6447 17.4682 32.6401 17.4442 32.6393 17.4131L33.639 17.3881ZM32.4257 17.4934L32.4745 17.6118L33.3992 17.2311L33.3504 17.1128L32.4257 17.4934ZM32.4368 17.4215V17.5005H33.4368V17.4215H32.4368ZM33.6398 17.4585V17.4006H32.6398V17.4585H33.6398ZM33.6391 17.3756C33.6368 17.3286 33.6295 17.283 33.6179 17.2389L32.6509 17.4935C32.6452 17.472 32.6415 17.449 32.6404 17.4256L33.6391 17.3756ZM26.4995 1.64195L26.4968 1.64455L27.1945 2.36092L27.1972 2.35831L26.4995 1.64195ZM26.9258 2.49627C26.8399 2.51021 26.7515 2.49648 26.675 2.4585L27.1192 1.56259C27.0099 1.50841 26.8871 1.48947 26.7656 1.5092L26.9258 2.49627ZM27.1262 1.56615C27.0311 1.51709 26.9268 1.49554 26.8232 1.50076L26.8735 2.4995C26.8044 2.50298 26.7328 2.48838 26.6679 2.45495L27.1262 1.56615ZM38.565 13.6075C38.491 13.6075 38.4122 13.621 38.3341 13.6536L38.7193 14.5765C38.6661 14.5987 38.6129 14.6075 38.565 14.6075V13.6075ZM38.3395 13.6514C38.2725 13.6785 38.2052 13.7195 38.1454 13.7777L38.8432 14.4941C38.8019 14.5343 38.7565 14.5615 38.7139 14.5787L38.3395 13.6514ZM2.13601 27.2633C1.96912 27.2045 1.78703 27.2194 1.63004 27.3101L2.13066 28.1758C2.08821 28.2004 2.03323 28.2208 1.96882 28.2266C1.90462 28.2324 1.84791 28.2221 1.80357 28.2064L2.13601 27.2633ZM1.53149 27.3848C1.54563 27.371 1.55817 27.3605 1.56709 27.3534C1.57616 27.3461 1.58382 27.3405 1.58891 27.3369C1.59407 27.3333 1.59815 27.3305 1.60017 27.3292C1.60203 27.328 1.60357 27.327 1.60271 27.3275C1.60257 27.3276 1.60002 27.3293 1.59718 27.3312C1.59418 27.3331 1.58913 27.3365 1.58306 27.3408C1.57705 27.3451 1.56851 27.3513 1.55862 27.3592C1.54889 27.367 1.5356 27.3782 1.52079 27.3926L2.21852 28.109C2.20438 28.1227 2.19184 28.1333 2.18293 28.1404C2.17385 28.1476 2.16619 28.1532 2.1611 28.1568C2.15595 28.1605 2.15186 28.1632 2.14985 28.1646C2.14798 28.1658 2.14644 28.1668 2.1473 28.1662C2.14744 28.1661 2.14999 28.1645 2.15283 28.1626C2.15583 28.1606 2.16088 28.1572 2.16695 28.1529C2.17296 28.1487 2.1815 28.1424 2.19139 28.1345C2.20112 28.1268 2.21441 28.1156 2.22922 28.1012L1.53149 27.3848ZM1.6265 27.3139C1.5346 27.365 1.46495 27.4371 1.41729 27.516L2.27329 28.033C2.23752 28.0922 2.18392 28.1481 2.11282 28.1877L1.6265 27.3139ZM1.43568 27.4878C1.36813 27.5843 1.33388 27.6955 1.33172 27.8071L2.33153 27.8265C2.32996 27.9074 2.30463 27.9902 2.2549 28.0613L1.43568 27.4878ZM1.33879 27.7324L1.33611 27.7481L2.32179 27.9167L2.32446 27.9011L1.33879 27.7324ZM1.33139 27.7831L0.502994 36.1419L1.49812 36.2405L2.32651 27.8817L1.33139 27.7831ZM1.70908 36.1589L2.47745 28.4113L1.48233 28.3127L0.713959 36.0602L1.70908 36.1589ZM2.47733 28.4126L2.51804 28.012L1.52316 27.9109L1.48245 28.3114L2.47733 28.4126ZM1.86013 28.435L2.17954 28.5433L2.50048 27.5962L2.18107 27.4879L1.86013 28.435ZM2.1801 28.5434L13.3637 32.3184L13.6835 31.3709L2.49992 27.596L2.1801 28.5434ZM13.9271 31.2418L2.12965 27.2611L1.80993 28.2086L13.6074 32.1893L13.9271 31.2418ZM16.8654 53.8125L1.71185 35.9937L0.950074 36.6416L16.1036 54.4603L16.8654 53.8125ZM1.37015 35.8192L1.13452 35.8007L1.05616 36.7976L1.29178 36.8161L1.37015 35.8192ZM1.15034 35.8022C1.2313 35.8111 1.31317 35.8475 1.37676 35.9094L0.679027 36.6258C0.780051 36.7242 0.907088 36.7813 1.04034 36.7961L1.15034 35.8022ZM0.646981 36.5915L17.2208 56.083L17.9826 55.4352L1.4088 35.9437L0.646981 36.5915ZM18.0135 55.4755L16.8963 53.8528L16.0727 54.4199L17.1899 56.0426L18.0135 55.4755ZM61.4829 35.8133L60.7576 32.5758L59.7817 32.7944L60.507 36.0319L61.4829 35.8133ZM60.7575 32.5757L58.8984 24.2852L57.9226 24.504L59.7818 32.7945L60.7575 32.5757ZM58.9105 24.3946C58.9105 24.3726 58.9091 24.3532 58.9073 24.3373C58.9056 24.3215 58.9034 24.3083 58.9016 24.2989C58.8999 24.2897 58.8983 24.2823 58.8975 24.2789C58.8971 24.2771 58.8968 24.2757 58.8966 24.2752C58.8965 24.2744 58.8966 24.2749 58.8967 24.2752C58.8971 24.277 58.9001 24.2901 58.9027 24.3075C58.9055 24.326 58.9078 24.3493 58.9078 24.3764H57.9078C57.9078 24.4073 57.9105 24.4343 57.9138 24.4561C57.9169 24.4768 57.9206 24.493 57.9217 24.4977C57.9219 24.4983 57.922 24.4989 57.9221 24.4992C57.9221 24.4994 57.9221 24.4996 57.9222 24.4997C57.9222 24.4998 57.9222 24.4998 57.9222 24.4999C57.9223 24.5001 57.9221 24.4994 57.9219 24.4983C57.9214 24.4963 57.9201 24.4903 57.9186 24.4824C57.9171 24.4743 57.9151 24.4625 57.9135 24.448C57.9119 24.4334 57.9105 24.4153 57.9105 24.3946H58.9105ZM58.8994 24.2846C58.8804 24.1832 58.8364 24.098 58.7838 24.0315L57.9999 24.6524C57.9632 24.6061 57.9305 24.544 57.9163 24.4681L58.8994 24.2846ZM58.808 24.0648C58.7615 23.995 58.7015 23.9369 58.6318 23.8929L58.0977 24.7383C58.05 24.7081 58.0079 24.6675 57.9756 24.6191L58.808 24.0648ZM58.6434 23.9004C58.4916 23.7986 58.3083 23.772 58.1357 23.8232L58.4203 24.7819C58.3738 24.7957 58.3146 24.8032 58.2488 24.7933C58.1828 24.7834 58.1277 24.7587 58.0862 24.7308L58.6434 23.9004ZM58.1707 23.8142L48.2995 25.9821L48.5141 26.9588L58.3853 24.7909L58.1707 23.8142ZM48.3291 25.9766C48.1545 26.004 47.9955 26.1068 47.9033 26.2749L48.7801 26.7557C48.7532 26.8049 48.7112 26.8562 48.6516 26.8972C48.5927 26.9377 48.5329 26.9568 48.4846 26.9644L48.3291 25.9766ZM47.9184 26.2493L36.426 44.5395L37.2728 45.0715L48.7651 26.7813L47.9184 26.2493ZM37.3407 44.8983L38.4963 38.7786L37.5136 38.593L36.3581 44.7127L37.3407 44.8983ZM38.4715 38.8655C38.4973 38.7985 38.5103 38.7281 38.5103 38.6569H37.5103C37.5103 38.606 37.5197 38.5546 37.5383 38.5062L38.4715 38.8655ZM38.5103 38.6569V38.6543H37.5103V38.6569H38.5103ZM38.5101 38.6677L39.1676 14.2237L38.168 14.1968L37.5105 38.6408L38.5101 38.6677ZM37.9597 14.3682L37.3105 38.5726L38.3101 38.5994L38.9594 14.395L37.9597 14.3682ZM37.6357 38.1175L32.9651 39.8585L33.3144 40.7955L37.985 39.0545L37.6357 38.1175ZM33.6398 40.327V17.4585H32.6398V40.327H33.6398ZM32.4368 17.5005V40.4642H33.4368V17.5005H32.4368ZM32.448 40.3589L28.684 57.8245L29.6616 58.0352L33.4256 40.5695L32.448 40.3589ZM28.9487 57.4829L26.7 58.6104L27.1482 59.5043L29.3969 58.3768L28.9487 57.4829ZM27.4112 58.9445L25.4386 50.4329L24.4644 50.6587L26.437 59.1703L27.4112 58.9445ZM25.4506 50.5153L25.4369 50.2913L24.4387 50.3522L24.4524 50.5762L25.4506 50.5153ZM25.4378 50.3218V50.3192H24.4378V50.3218H25.4378ZM25.4369 50.2885L23.4212 17.4698L22.423 17.5311L24.4388 50.3498L25.4369 50.2885ZM23.4211 17.469L23.4155 17.3795L22.4174 17.4426L22.4231 17.532L23.4211 17.469ZM23.3985 17.5437L23.4282 17.4358L22.4641 17.1704L22.4344 17.2784L23.3985 17.5437ZM23.4296 17.4307L27.3588 2.54652L26.392 2.29127L22.4627 17.1755L23.4296 17.4307ZM26.4118 2.60617L32.4245 17.4904L33.3517 17.1158L27.339 2.23162L26.4118 2.60617ZM33.5546 17.0682L27.6037 2.35013L26.6766 2.72497L32.6275 17.4431L33.5546 17.0682ZM26.7807 2.88517L38.0458 14.5316L38.7646 13.8363L27.4995 2.18993L26.7807 2.88517ZM38.155 13.751L32.8405 16.8227L33.3409 17.6885L38.6554 14.6168L38.155 13.751ZM32.6253 17.4383L32.6687 17.5488L33.5996 17.1835L33.5562 17.073L32.6253 17.4383ZM32.6506 17.4935C32.6449 17.472 32.6412 17.449 32.6401 17.4256L33.6388 17.3756C33.6365 17.3285 33.6292 17.283 33.6176 17.2389L32.6506 17.4935ZM32.6395 17.4006V17.4585H33.6395V17.4006H32.6395ZM33.3898 17.8913L38.7099 14.8144L38.2092 13.9488L32.8891 17.0257L33.3898 17.8913ZM38.9975 13.7915L27.2942 1.6893L26.5754 2.38446L38.2787 14.4867L38.9975 13.7915ZM27.2837 1.6787L27.2757 1.67089L26.5779 2.38725L26.586 2.39506L27.2837 1.6787ZM27.2502 1.64778C27.2001 1.60521 27.1458 1.57302 27.0906 1.54975L26.7024 2.47134C26.6692 2.45734 26.6351 2.43731 26.6033 2.41036L27.2502 1.64778ZM27.1186 1.56259C27.0093 1.50841 26.8872 1.48967 26.7662 1.50899L26.9239 2.49648C26.8392 2.51001 26.751 2.49648 26.6744 2.4585L27.1186 1.56259ZM27.064 1.55321C27.0177 1.53064 26.9549 1.50875 26.8787 1.50306C26.801 1.49727 26.7351 1.51022 26.6865 1.5257C26.6446 1.53906 26.6131 1.55546 26.6098 1.55716C26.5976 1.56331 26.6126 1.55562 26.622 1.55133L27.0409 2.45935C27.053 2.45375 27.0705 2.44477 27.0606 2.44978C27.0595 2.45033 27.0301 2.46576 26.9902 2.47847C26.9437 2.49329 26.8798 2.50592 26.8043 2.50029C26.7303 2.49477 26.6698 2.47353 26.6262 2.45226L27.064 1.55321ZM26.8152 1.5056C26.711 1.50898 26.6085 1.54198 26.52 1.60407L27.0941 2.42281C27.0204 2.47449 26.934 2.50227 26.8476 2.50508L26.8152 1.5056ZM26.4582 1.65526C26.4746 1.63927 26.4912 1.62532 26.5075 1.61318C26.5238 1.60112 26.5388 1.59152 26.5515 1.58404C26.564 1.57669 26.5743 1.57134 26.5806 1.5682C26.586 1.56553 26.5911 1.56312 26.5888 1.5642C26.5885 1.56435 26.5818 1.56752 26.5737 1.57167C26.565 1.57613 26.5521 1.58307 26.5369 1.59248C26.5215 1.60203 26.5039 1.61414 26.4852 1.62928C26.4664 1.64452 26.4477 1.66189 26.4297 1.6816L27.1683 2.3557C27.1509 2.37477 27.1329 2.39157 27.1147 2.40629C27.0966 2.42092 27.0796 2.43258 27.0649 2.44173C27.0504 2.45074 27.0381 2.45731 27.0301 2.46143C27.0261 2.4635 27.0228 2.46512 27.0207 2.46615C27.0186 2.46713 27.0171 2.46787 27.017 2.46789C27.0164 2.46819 27.018 2.46744 27.0193 2.46681C27.0209 2.46602 27.0238 2.46465 27.0273 2.4629C27.0343 2.45941 27.0454 2.4537 27.0585 2.44594C27.0719 2.43806 27.0876 2.42801 27.1045 2.41543C27.1215 2.40279 27.1388 2.38827 27.1559 2.37162L26.4582 1.65526ZM26.5108 1.61006C26.4743 1.63586 26.4412 1.66481 26.4123 1.69528L27.137 2.38428C27.1229 2.39912 27.1066 2.41359 27.0872 2.42725L26.5108 1.61006ZM26.4258 1.6816C26.4104 1.69663 26.3964 1.71215 26.3837 1.72791C26.3711 1.74361 26.3608 1.75848 26.3523 1.7717C26.3439 1.78472 26.3376 1.79582 26.3336 1.80329C26.3315 1.80701 26.3299 1.81008 26.3289 1.81204C26.3284 1.81304 26.3279 1.81386 26.3277 1.81439C26.3274 1.81488 26.3272 1.81532 26.3272 1.81534C26.327 1.81573 26.3276 1.81449 26.3284 1.81302C26.3292 1.81138 26.3307 1.80864 26.3325 1.80524C26.3362 1.79842 26.3422 1.78798 26.3501 1.77561C26.3582 1.76304 26.3681 1.74882 26.3802 1.73377C26.3923 1.71866 26.4057 1.70379 26.4205 1.68941L27.1182 2.40577C27.1336 2.39074 27.1476 2.37522 27.1602 2.35946C27.1728 2.34376 27.1832 2.32889 27.1917 2.31567C27.2001 2.30265 27.2064 2.29155 27.2104 2.28408C27.2125 2.28036 27.2141 2.27729 27.2151 2.27533C27.2156 2.27433 27.216 2.27351 27.2163 2.27298C27.2166 2.27249 27.2168 2.27205 27.2168 2.27203C27.217 2.27164 27.2164 2.27288 27.2156 2.27435C27.2147 2.27599 27.2133 2.27873 27.2115 2.28213C27.2077 2.28895 27.2018 2.2994 27.1939 2.31176C27.1858 2.32434 27.1759 2.33855 27.1638 2.3536C27.1517 2.36871 27.1383 2.38358 27.1235 2.39796L26.4258 1.6816ZM26.3568 1.76506L18.0663 13.8699L18.8914 14.4349L27.1818 2.33013L26.3568 1.76506ZM18.13 13.7942C18.1299 13.7942 18.1296 13.7946 18.1292 13.795C18.1288 13.7954 18.1281 13.796 18.1274 13.7968C18.1259 13.7982 18.1235 13.8006 18.1206 13.8035C18.1151 13.8092 18.1058 13.8189 18.0951 13.8316C18.0744 13.8561 18.0398 13.9015 18.013 13.9667C17.9462 14.1294 17.9771 14.2854 18.0313 14.3911L18.921 13.9345C18.9432 13.9778 18.967 14.0403 18.9734 14.1184C18.9801 14.2003 18.966 14.2783 18.938 14.3466C18.8921 14.4583 18.8093 14.5285 18.8277 14.5106L18.13 13.7942ZM18.073 13.8671C17.9949 13.9735 17.952 14.1086 17.9643 14.2529L18.9607 14.1676C18.9701 14.2772 18.9366 14.3804 18.8794 14.4585L18.073 13.8671ZM17.9628 14.2287L18.9588 41.2703L19.9581 41.2335L18.9622 14.1919L17.9628 14.2287ZM19.8886 40.9969L14.2627 31.5081L13.4026 32.018L19.0284 41.5069L19.8886 40.9969ZM13.4043 32.021C13.3809 31.9822 13.3617 31.9348 13.3525 31.8805C13.3432 31.8263 13.3458 31.7756 13.3547 31.7319L14.3343 31.9331C14.3644 31.7864 14.3393 31.6352 14.2609 31.5051L13.4043 32.021ZM13.3559 31.7263C13.3651 31.6843 13.3825 31.6383 13.4116 31.5935C13.4407 31.5486 13.4762 31.5133 13.5125 31.487L14.0987 32.2972C14.221 32.2087 14.3021 32.0814 14.3331 31.9387L13.3559 31.7263ZM13.2833 32.2127L19.0521 41.9493L19.9124 41.4396L14.1437 31.7029L13.2833 32.2127ZM19.0521 41.9493L24.2584 50.7373L25.1187 50.2276L19.9124 41.4396L19.0521 41.9493ZM24.2051 50.3547L23.7125 52.2199L24.6793 52.4753L25.1719 50.6101L24.2051 50.3547ZM24.4807 51.9366L19.4369 48.441L18.8673 49.2629L23.9111 52.7585L24.4807 51.9366ZM19.5652 48.5702L9.99413 34.5345L9.16794 35.0979L18.739 49.1336L19.5652 48.5702ZM9.29302 34.4075L9.21458 34.4628L9.7906 35.2802L9.86904 35.2249L9.29302 34.4075ZM9.22305 34.4569C9.23276 34.4504 9.26175 34.4315 9.30495 34.4155L9.6515 35.3535C9.71193 35.3312 9.75697 35.303 9.78213 35.2861L9.22305 34.4569ZM9.32878 34.4074L9.25301 34.4311L9.5519 35.3854L9.62767 35.3617L9.32878 34.4074ZM8.98935 35.1899L18.5685 49.2389L19.3947 48.6756L9.81557 34.6266L8.98935 35.1899ZM18.4818 48.972L18.6794 55.65L19.679 55.6204L19.4814 48.9425L18.4818 48.972ZM19.1892 55.1353L17.7496 55.1064L17.7295 56.1062L19.1691 56.1351L19.1892 55.1353ZM18.1513 55.3225L4.98671 36.2209L4.16331 36.7883L17.3279 55.89L18.1513 55.3225ZM4.41432 36.0311L4.28982 36.0734L4.61121 37.0203L4.7357 36.9781L4.41432 36.0311ZM4.30789 36.0676C4.33793 36.0587 4.37073 36.0531 4.40497 36.0522L4.43128 37.0519C4.48752 37.0504 4.54171 37.0414 4.59314 37.0261L4.30789 36.0676ZM4.41813 36.0521H4.40981V37.0521H4.41813V36.0521ZM3.9497 36.8332L16.0725 54.4202L16.8959 53.8526L4.77305 36.2657L3.9497 36.8332ZM16.0724 54.4199L17.1896 56.0426L18.0132 55.4755L16.896 53.8528L16.0724 54.4199ZM17.2031 56.0613C17.2168 56.0793 17.2452 56.1155 17.2875 56.1527L17.9486 55.4025C17.9784 55.4287 17.9962 55.4521 17.9997 55.4568L17.2031 56.0613ZM17.237 56.1013L18.8795 58.0348L19.6416 57.3874L17.9991 55.4539L17.237 56.1013ZM18.8158 57.9394C18.8509 58.0079 18.8978 58.0634 18.9488 58.1065L19.5938 57.3423C19.6359 57.3778 19.6756 57.4246 19.7054 57.4827L18.8158 57.9394ZM18.8905 58.0484L21.3177 60.9013L22.0793 60.2533L19.6521 57.4004L18.8905 58.0484ZM21.3121 60.8947C21.4272 61.0347 21.595 61.1143 21.777 61.1143V60.1143C21.8271 60.1143 21.8867 60.1245 21.9471 60.1531C22.0076 60.1817 22.0531 60.2213 22.0849 60.26L21.3121 60.8947ZM21.7613 61.1141C21.8132 61.1157 21.8701 61.1109 21.9297 61.0954L21.6783 60.1275C21.72 60.1167 21.7591 60.1135 21.7927 60.1146L21.7613 61.1141ZM21.9295 61.0955L26.0049 60.0391L25.754 59.0711L21.6786 60.1274L21.9295 61.0955ZM25.849 60.0542C25.9371 60.0596 26.0278 60.0429 26.1117 60.0021L25.6739 59.103C25.7495 59.0662 25.8312 59.0513 25.9098 59.0561L25.849 60.0542ZM25.6845 60.0071C25.7639 60.0435 25.8716 60.0678 25.9927 60.045C26.1142 60.0221 26.2066 59.9597 26.2683 59.8949L25.5446 59.2049C25.6024 59.1442 25.6905 59.0843 25.8074 59.0623C25.9239 59.0403 26.0267 59.0639 26.1011 59.098L25.6845 60.0071ZM26.0312 60.0341L27.0026 59.7838L26.753 58.8154L25.7817 59.0658L26.0312 60.0341ZM26.9606 59.7927C27.0174 59.7832 27.0712 59.7656 27.1211 59.7413L26.6832 58.8423C26.7177 58.8255 26.7554 58.8131 26.795 58.8065L26.9606 59.7927ZM27.1162 59.7436L27.1272 59.7384L26.699 58.8347L26.688 58.8399L27.1162 59.7436ZM27.1382 59.7331L29.5167 58.5344L29.0666 57.6414L26.6881 58.8401L27.1382 59.7331ZM29.4842 58.5493L29.503 58.5415L29.1178 57.6186L29.099 57.6265L29.4842 58.5493ZM29.3104 58.5801C29.3309 58.5801 29.3525 58.5788 29.3749 58.5759C29.3974 58.573 29.42 58.5685 29.4425 58.5624C29.4651 58.5563 29.4866 58.5487 29.507 58.5401C29.5273 58.5314 29.5457 58.5221 29.5622 58.5126C29.5947 58.4937 29.6188 58.4749 29.633 58.4631C29.6401 58.4571 29.6456 58.4522 29.6485 58.4495C29.65 58.4482 29.6512 58.4471 29.6518 58.4466C29.6521 58.4463 29.6523 58.4461 29.6523 58.4461C29.6524 58.446 29.6523 58.4461 29.6521 58.4462C29.6517 58.4466 29.6485 58.4496 29.6443 58.4533C29.6398 58.4573 29.6331 58.4631 29.6246 58.4698C29.6075 58.4834 29.5821 58.5018 29.5488 58.5194C29.5322 58.5282 29.5142 58.5366 29.4947 58.5441C29.4752 58.5517 29.4551 58.558 29.4344 58.5631C29.3926 58.5734 29.3527 58.5775 29.316 58.5775V57.5775C29.2786 57.5775 29.238 57.5816 29.1956 57.592C29.1747 57.5972 29.1543 57.6036 29.1345 57.6113C29.1148 57.6189 29.0965 57.6274 29.0797 57.6363C29.0459 57.6542 29.0201 57.6729 29.0026 57.6868C28.9939 57.6937 28.987 57.6996 28.9824 57.7037C28.978 57.7076 28.9746 57.7108 28.974 57.7113C28.9738 57.7115 28.9736 57.7116 28.9737 57.7116C28.9737 57.7116 28.9737 57.7115 28.9738 57.7115C28.9739 57.7114 28.974 57.7113 28.9741 57.7112C28.9746 57.7108 28.9757 57.7098 28.9771 57.7085C28.9799 57.706 28.9852 57.7012 28.9921 57.6954C29.006 57.6838 29.0296 57.6653 29.0618 57.6468C29.078 57.6374 29.0962 57.6281 29.1163 57.6196C29.1364 57.611 29.1577 57.6036 29.18 57.5975C29.2022 57.5914 29.2246 57.587 29.2467 57.5842C29.2689 57.5813 29.2902 57.5801 29.3104 57.5801V58.5801ZM29.5661 58.5104L33.7657 56.084L33.2655 55.2182L29.0659 57.6445L29.5661 58.5104ZM33.0162 55.6273L32.7318 61.589L33.7307 61.6366L34.015 55.6749L33.0162 55.6273ZM32.9517 61.1982C32.9182 61.2209 32.7284 61.3526 32.7284 61.6167C32.7284 61.8807 32.9182 62.0125 32.9517 62.0352L33.5108 61.206C33.5405 61.2261 33.7284 61.3552 33.7284 61.6167C33.7284 61.8781 33.5405 62.0073 33.5108 62.0273L32.9517 61.1982ZM32.735 61.5599C32.7134 61.736 32.7725 61.9094 32.8982 62.036L33.6077 61.3314C33.6465 61.3704 33.6841 61.4243 33.7075 61.4927C33.7309 61.5612 33.7342 61.6267 33.7276 61.6813L32.735 61.5599ZM32.7893 61.8707C32.8354 61.9852 32.9185 62.0786 33.0244 62.1381L33.5142 61.2663C33.5552 61.2893 33.597 61.3212 33.6345 61.3637C33.672 61.4062 33.6987 61.4521 33.7167 61.4967L32.7893 61.8707ZM32.9204 62.0604L32.9231 62.063L33.6208 61.3466L33.6182 61.344L32.9204 62.0604ZM33.003 62.1263C33.0437 62.1523 33.0855 62.1725 33.1275 62.1878L33.4706 61.2485C33.4935 61.2568 33.5174 61.2683 33.5409 61.2833L33.003 62.1263ZM33.1684 62.2008C33.2123 62.2126 33.2579 62.2202 33.3051 62.2226L33.3577 61.224C33.3829 61.2254 33.4071 61.2294 33.4296 61.2355L33.1684 62.2008ZM33.3099 62.2229L39.7341 62.4995L39.7771 61.5005L33.3529 61.2238L33.3099 62.2229ZM39.7556 62.5H39.761V61.5H39.7556V62.5ZM39.7873 62.4993C39.8346 62.4968 39.8845 62.489 39.936 62.4737L39.6507 61.5153C39.6808 61.5063 39.7093 61.502 39.7347 61.5007L39.7873 62.4993ZM39.8991 62.4832C39.9864 62.4643 40.0632 62.4256 40.1266 62.3751L39.5034 61.5931C39.5538 61.553 39.6163 61.5212 39.6876 61.5058L39.8991 62.4832ZM39.815 62.4841C39.9716 62.4841 40.1227 62.4127 40.2219 62.2839L39.4296 61.6738C39.4703 61.6209 39.5274 61.5696 39.6021 61.5333C39.6766 61.497 39.7509 61.4841 39.815 61.4841V62.4841ZM40.1374 62.3699L45.6631 57.9652L45.0398 57.1832L39.5141 61.5879L40.1374 62.3699ZM45.5704 58.0237C45.6511 57.9844 45.7212 57.9261 45.7748 57.8523L44.9661 57.2642C45.0096 57.2044 45.0672 57.1564 45.1325 57.1247L45.5704 58.0237ZM45.5985 58.0032C45.6837 57.9596 45.7713 57.8852 45.8286 57.7736L44.939 57.3169C44.9904 57.2169 45.0685 57.1512 45.1424 57.1133L45.5985 58.0032ZM45.7888 57.8385L61.3806 36.3053L60.5707 35.7188L44.9788 57.252L45.7888 57.8385ZM61.3882 36.2945L61.3936 36.2866L60.5684 35.7218L60.563 35.7296L61.3882 36.2945ZM61.3609 36.3293C61.4277 36.2512 61.4693 36.1587 61.4853 36.0622L60.4987 35.8988C60.5117 35.8202 60.5462 35.7433 60.6011 35.6792L61.3609 36.3293ZM61.4368 36.2088C61.4725 36.1394 61.5 36.0509 61.5 35.949H60.5C60.5 35.869 60.5216 35.802 60.5472 35.7522L61.4368 36.2088ZM61.4997 35.9324C61.4976 35.8692 61.4853 35.8096 61.4663 35.7557L60.5236 36.0895C60.5105 36.0524 60.5018 36.0108 60.5003 35.9655L61.4997 35.9324ZM26.124 2.51521L22.2708 17.1042L23.2376 17.3596L27.0908 2.77057L26.124 2.51521ZM23.0547 16.8323L19.0013 13.7843L18.4003 14.5836L22.4537 17.6315L23.0547 16.8323ZM19.1133 14.4665L27.0199 2.92548L26.1949 2.3603L18.2883 13.9013L19.1133 14.4665ZM20.1775 41.6285V41.6128H19.1775V41.6285H20.1775ZM20.1771 41.5944L19.1731 14.3947L18.1738 14.4316L19.1778 41.6313L20.1771 41.5944ZM18.373 14.8128L22.4131 17.8501L23.014 17.0507L18.9739 14.0135L18.373 14.8128ZM22.2145 17.4811L24.2251 50.1785L25.2232 50.1172L23.2126 17.4197L22.2145 17.4811ZM25.1544 49.893L20.1076 41.3736L19.2473 41.8833L24.294 50.4027L25.1544 49.893ZM23.7813 52.908C23.8802 52.9906 24.0072 53.04 24.1451 53.04V52.04C24.2502 52.04 24.3481 52.0785 24.4221 52.1403L23.7813 52.908ZM23.6616 52.4127L22.8632 55.4448L23.8302 55.6994L24.6286 52.6674L23.6616 52.4127ZM23.771 55.3076L19.8501 49.0194L19.0015 49.5485L22.9224 55.8367L23.771 55.3076ZM19.141 49.695L23.8169 52.9351L24.3865 52.1132L19.7106 48.873L19.141 49.695ZM17.8921 56.3064L19.1748 56.3328L19.1954 55.333L17.9127 55.3066L17.8921 56.3064ZM18.6853 55.8479L18.7314 57.3811L19.7309 57.3511L19.6849 55.8178L18.6853 55.8479ZM19.6118 57.0418L18.283 55.4823L17.5218 56.1308L18.8506 57.6904L19.6118 57.0418ZM18.7715 49.5616L22.7765 55.9843L23.6251 55.4551L19.6201 49.0325L18.7715 49.5616ZM23.2111 55.2198L19.393 55.1408L19.3724 56.1406L23.1905 56.2196L23.2111 55.2198ZM19.8825 55.626L19.6956 49.2823L18.696 49.3117L18.8829 55.6554L19.8825 55.626ZM22.1936 60.0796L19.8231 57.2901L19.0611 57.9376L21.4316 60.7271L22.1936 60.0796ZM19.9419 57.5986L19.8878 55.8228L18.8883 55.8533L18.9424 57.6291L19.9419 57.5986ZM19.3773 56.338L23.3173 56.4225L23.3387 55.4227L19.3988 55.3382L19.3773 56.338ZM22.9159 56.2058L25.3025 59.6777L26.1266 59.1113L23.74 55.6393L22.9159 56.2058ZM25.5893 58.9104L21.6875 59.9193L21.9378 60.8875L25.8397 59.8786L25.5893 58.9104ZM26.3344 59.0588L23.9048 55.5209L23.0804 56.087L25.51 59.6249L26.3344 59.0588ZM23.976 55.9315L25.2911 50.9501L24.3242 50.6948L23.0091 55.6763L23.976 55.9315ZM24.3206 50.9354L26.2472 59.2441L27.2213 59.0182L25.2948 50.7095L24.3206 50.9354ZM26.6087 58.6472L25.7966 58.8579L26.0478 59.8258L26.8598 59.6151L26.6087 58.6472ZM59.7388 32.3031L56.3913 35.1296L57.0365 35.8937L60.3839 33.0671L59.7388 32.3031ZM57.2037 35.4111L55.8482 28.8067L54.8686 29.0078L56.2241 35.6122L57.2037 35.4111ZM55.7718 29.1885L58.6721 24.9262L57.8453 24.3636L54.945 28.626L55.7718 29.1885ZM57.7708 24.7543L59.5735 32.7945L60.5493 32.5757L58.7466 24.5355L57.7708 24.7543ZM56.0972 35.4391L42.5377 54.6409L43.3546 55.2178L56.9141 36.016L56.0972 35.4391ZM43.2309 54.5184L37.7106 50.6933L37.1411 51.5153L42.6614 55.3403L43.2309 54.5184ZM37.8509 51.3676L49.906 31.9077L49.0559 31.3811L37.0008 50.841L37.8509 51.3676ZM49.2297 32.0767L56.2544 36.1598L56.7569 35.2953L49.7322 31.2121L49.2297 32.0767ZM49.8709 31.9761L55.3803 29.4841L54.9681 28.5729L49.4588 31.065L49.8709 31.9761ZM54.6844 29.1291L56.0132 35.5964L56.9927 35.3951L55.664 28.9279L54.6844 29.1291ZM56.7542 35.0635L49.9161 31.0883L49.4136 31.9528L56.2517 35.928L56.7542 35.0635ZM57.6698 24.266L54.7692 28.5257L55.5958 29.0885L58.4964 24.8288L57.6698 24.266ZM54.9765 28.3515L49.3156 30.9122L49.7277 31.8233L55.3886 29.2627L54.9765 28.3515ZM50.0113 31.2668L49.037 26.5408L48.0576 26.7428L49.0319 31.4687L50.0113 31.2668ZM48.6546 27.1302L58.1903 25.0358L57.9758 24.059L48.4401 26.1534L48.6546 27.1302ZM47.8901 26.9324L48.8507 31.59L49.8301 31.388L48.8695 26.7304L47.8901 26.9324ZM48.9153 31.2257L36.8195 50.7539L37.6696 51.2805L49.7654 31.7523L48.9153 31.2257ZM37.3773 50.5352L33.9137 49.5816L33.6482 50.5457L37.1119 51.4993L37.3773 50.5352ZM34.2043 50.3297L48.8031 27.0974L47.9564 26.5653L33.3576 49.7976L34.2043 50.3297ZM36.7327 50.8633L33.3449 54.8753L34.1089 55.5205L37.4967 51.5085L36.7327 50.8633ZM34.2269 55.1979V50.2561H33.2269V55.1979H34.2269ZM33.5945 50.7383L36.9824 51.6681L37.2471 50.7038L33.8592 49.7739L33.5945 50.7383ZM29.8996 57.8983L33.6149 40.6511L32.6373 40.4405L28.922 57.6877L29.8996 57.8983ZM33.3007 41.0143L37.9522 39.2808L37.603 38.3438L32.9515 40.0773L33.3007 41.0143ZM37.2864 38.7192L36.0824 45.0733L37.0649 45.2595L38.2689 38.9054L37.2864 38.7192ZM36.0867 45.0531C36.0507 45.2078 36.0792 45.367 36.1647 45.499L37.004 44.9554C37.0311 44.9971 37.0541 45.0497 37.065 45.1112C37.0758 45.1728 37.0721 45.2305 37.0606 45.2797L36.0867 45.0531ZM36.161 44.9612L33.1196 49.8029L33.9663 50.3348L37.0078 45.4931L36.161 44.9612ZM33.1325 49.7834C33.092 49.8415 33.0658 49.9015 33.0495 49.957L34.0091 50.2385C33.9987 50.2739 33.9814 50.3141 33.9534 50.3543L33.1325 49.7834ZM33.0519 49.9493C33.0372 49.9964 33.0278 50.046 33.0248 50.0977L34.0231 50.1563C34.0212 50.1878 34.0154 50.2183 34.0067 50.2463L33.0519 49.9493ZM33.0239 50.127V55.4141H34.0239V50.127H33.0239ZM33.2736 54.9813L29.1605 57.3601L29.6611 58.2258L33.7743 55.8469L33.2736 54.9813ZM34.106 55.8316L37.3714 51.9698L36.6078 51.3241L33.3424 55.1859L34.106 55.8316ZM36.5219 51.4704L32.9935 60.8169L33.929 61.1701L37.4574 51.8235L36.5219 51.4704ZM33.9607 61.0174L34.2236 55.5327L33.2248 55.4848L32.9618 60.9695L33.9607 61.0174ZM37.0547 51.6997L42.51 55.4773L43.0793 54.6552L37.624 50.8776L37.0547 51.6997ZM42.5134 54.6529L33.256 60.9517L33.8186 61.7784L43.0759 55.4796L42.5134 54.6529ZM34.0051 61.5416L37.8072 51.4652L36.8716 51.1122L33.0695 61.1885L34.0051 61.5416ZM39.7173 61.3028L33.6559 61.0395L33.6125 62.0385L39.6739 62.3019L39.7173 61.3028ZM33.9155 61.9524L43.0052 55.7667L42.4426 54.94L33.3529 61.1256L33.9155 61.9524ZM42.2713 55.1408L39.243 61.5898L40.1482 62.0149L43.1765 55.5658L42.2713 55.1408ZM40.4866 61.7698L43.4522 55.4553L42.5471 55.0302L39.5815 61.3447L40.4866 61.7698ZM42.6395 55.5896L44.7934 57.8261L45.5137 57.1324L43.3598 54.8959L42.6395 55.5896ZM44.842 57.0882L39.7225 61.1661L40.3455 61.9483L45.4651 57.8704L44.842 57.0882ZM45.6492 56.9851L43.46 54.7116L42.7396 55.4052L44.9289 57.6788L45.6492 56.9851ZM43.5083 55.3468L57.1057 36.0871L56.2888 35.5104L42.6913 54.77L43.5083 55.3468ZM56.6678 36.2979L60.6808 36.5349L60.7398 35.5366L56.7268 35.2996L56.6678 36.2979ZM60.3053 35.7425L44.8841 57.0387L45.694 57.6252L61.1153 36.329L60.3053 35.7425ZM57.2253 35.9939L60.4319 33.2883L59.7871 32.524L56.5805 35.2297L57.2253 35.9939ZM59.6217 33.0159L60.2819 35.9507L61.2575 35.7313L60.5973 32.7964L59.6217 33.0159ZM60.7993 35.3419L56.9325 35.1127L56.8733 36.1109L60.7401 36.3401L60.7993 35.3419ZM13.429 31.5466L9.29716 34.405L9.86609 35.2274L13.998 32.369L13.429 31.5466ZM9.29361 34.4075L9.21517 34.4628L9.79119 35.2802L9.86964 35.2249L9.29361 34.4075ZM9.22365 34.457C9.23336 34.4504 9.26235 34.4315 9.30554 34.4155L9.6521 35.3535C9.71253 35.3312 9.75756 35.303 9.78272 35.2861L9.22365 34.457ZM9.32937 34.4074L9.25361 34.4311L9.5525 35.3854L9.62826 35.3617L9.32937 34.4074ZM9.24607 34.4335L4.41863 36.0299L4.73259 36.9793L9.56003 35.383L9.24607 34.4335ZM4.41491 36.0311L4.29042 36.0734L4.6118 37.0203L4.7363 36.9781L4.41491 36.0311ZM4.30849 36.0676C4.33852 36.0587 4.37132 36.0531 4.40557 36.0522L4.43188 37.0519C4.48811 37.0504 4.5423 37.0414 4.59373 37.0261L4.30849 36.0676ZM4.41872 36.0521H4.40981V37.0521H4.41872V36.0521ZM4.39951 36.0509L1.3688 35.8191L1.29253 36.8162L4.32324 37.048L4.39951 36.0509ZM1.36985 35.8192L1.13423 35.8007L1.05586 36.7976L1.29148 36.8161L1.36985 35.8192ZM1.15005 35.8022C1.231 35.8111 1.31287 35.8475 1.37646 35.9094L0.678729 36.6258C0.779755 36.7242 0.906792 36.7813 1.04004 36.7961L1.15005 35.8022ZM1.37646 35.9094C1.41322 35.9452 1.45051 35.996 1.47468 36.0621C1.49892 36.1285 1.50339 36.1923 1.49789 36.2454L0.503224 36.1422C0.484273 36.3249 0.549524 36.4999 0.67873 36.6258L1.37646 35.9094ZM1.50056 36.1938V36.1912H0.500557V36.1938H1.50056ZM1.17385 36.6081L4.2423 36.84L4.31763 35.8428L1.24918 35.611L1.17385 36.6081ZM4.64234 36.8003L9.41304 35.225L9.0995 34.2755L4.32881 35.8507L4.64234 36.8003ZM9.41594 35.2241L9.55678 35.1766L9.23743 34.229L9.0966 34.2764L9.41594 35.2241ZM9.68205 35.1136L9.7388 35.0743L9.16892 34.2526L9.11217 34.2919L9.68205 35.1136ZM9.73855 35.0745L13.8083 32.2557L13.2389 31.4336L9.16917 34.2524L9.73855 35.0745ZM13.7673 32.2156C13.7263 32.2156 13.6848 32.2104 13.644 32.1997C13.6044 32.1893 13.5738 32.1759 13.555 32.1667C13.5398 32.1593 13.5262 32.1515 13.5321 32.1548C13.534 32.1558 13.5461 32.1627 13.5617 32.1703L13.9996 31.2713C14.0063 31.2745 14.0118 31.2774 14.0157 31.2795C14.0177 31.2806 14.0192 31.2815 14.0203 31.282C14.0208 31.2823 14.0212 31.2826 14.0215 31.2827C14.0218 31.2829 14.022 31.283 14.022 31.283C14.0257 31.2851 14.0101 31.2761 13.9929 31.2677C13.9721 31.2575 13.9395 31.2433 13.8977 31.2324C13.8547 31.2211 13.8109 31.2156 13.7673 31.2156V32.2156ZM13.6683 32.208C13.5984 32.1919 13.5244 32.1561 13.4615 32.0949L14.1592 31.3785C14.0797 31.3011 13.9855 31.2549 13.893 31.2336L13.6683 32.208ZM13.4798 32.1118C13.4546 32.0896 13.4349 32.0666 13.4198 32.0455L14.2336 31.4643C14.209 31.4299 14.1786 31.3948 14.1409 31.3616L13.4798 32.1118ZM13.4778 32.1131C13.4631 32.0987 13.4496 32.0838 13.4373 32.0684C13.425 32.0532 13.4149 32.0386 13.4066 32.0256C13.3985 32.0128 13.3924 32.0019 13.3884 31.9945C13.3864 31.9908 13.3848 31.9877 13.3838 31.9857C13.3828 31.9838 13.3821 31.9824 13.3821 31.9823C13.3817 31.9817 13.3825 31.9831 13.3831 31.9843C13.3838 31.9858 13.3851 31.9884 13.3868 31.9915C13.3901 31.9979 13.3954 32.0077 13.4025 32.0194C13.4096 32.0313 13.4184 32.0448 13.4291 32.0592C13.4398 32.0737 13.4517 32.0881 13.4648 32.1024L14.1993 31.4237C14.2118 31.4372 14.2231 31.451 14.2332 31.4648C14.2434 31.4785 14.2517 31.4913 14.2585 31.5024C14.2651 31.5134 14.27 31.5226 14.273 31.5283C14.2755 31.533 14.2778 31.5377 14.2767 31.5355C14.2765 31.535 14.2734 31.5288 14.2694 31.5213C14.265 31.5132 14.2585 31.5017 14.2499 31.4882C14.2412 31.4745 14.2306 31.4593 14.2179 31.4434C14.2051 31.4274 14.191 31.4118 14.1756 31.3968L13.4778 32.1131ZM13.4053 32.0236C13.3818 31.9851 13.3621 31.9378 13.3525 31.8834C13.3429 31.8289 13.3452 31.7776 13.3542 31.7331L14.3342 31.932C14.3645 31.7829 14.3374 31.6312 14.2588 31.5025L13.4053 32.0236ZM13.3544 31.7319C13.364 31.6852 13.3827 31.6374 13.4119 31.5927C13.4407 31.5485 13.4745 31.5154 13.5061 31.4918L14.1051 32.2925C14.2165 32.2092 14.3026 32.0859 14.334 31.9331L13.3544 31.7319ZM2.68006 27.7029L2.34133 27.3892L1.66183 28.1228L2.00056 28.4365L2.68006 27.7029ZM2.35045 27.3978C2.29521 27.344 2.22946 27.3007 2.15643 27.2712L1.78196 28.1985C1.7333 28.1788 1.68954 28.15 1.65272 28.1142L2.35045 27.3978ZM2.13542 27.2633C1.96853 27.2045 1.78644 27.2194 1.62945 27.3101L2.13007 28.1758C2.08761 28.2004 2.03263 28.2208 1.96823 28.2266C1.90403 28.2324 1.84731 28.2221 1.80297 28.2064L2.13542 27.2633ZM1.53089 27.3848C1.54504 27.371 1.55758 27.3605 1.56649 27.3534C1.57557 27.3461 1.58323 27.3405 1.58832 27.3369C1.59347 27.3333 1.59755 27.3305 1.59957 27.3292C1.60144 27.328 1.60298 27.327 1.60212 27.3275C1.60197 27.3276 1.59943 27.3293 1.59658 27.3312C1.59358 27.3331 1.58854 27.3365 1.58247 27.3408C1.57646 27.3451 1.56792 27.3513 1.55803 27.3592C1.5483 27.367 1.53501 27.3782 1.52019 27.3926L2.21793 28.109C2.20379 28.1227 2.19125 28.1333 2.18233 28.1404C2.17326 28.1476 2.1656 28.1532 2.1605 28.1568C2.15535 28.1605 2.15127 28.1632 2.14925 28.1646C2.14739 28.1658 2.14585 28.1668 2.14671 28.1662C2.14685 28.1661 2.14939 28.1645 2.15224 28.1626C2.15524 28.1606 2.16028 28.1572 2.16635 28.1529C2.17236 28.1487 2.1809 28.1424 2.19079 28.1345C2.20052 28.1268 2.21381 28.1156 2.22862 28.1012L1.53089 27.3848ZM1.6205 27.3169C1.53765 27.3644 1.46717 27.4325 1.4167 27.516L2.2727 28.033C2.23412 28.0969 2.18027 28.1487 2.11763 28.1846L1.6205 27.3169ZM1.4306 27.4943C1.37117 27.5821 1.3334 27.6894 1.33112 27.8071L2.33094 27.8265C2.32925 27.9134 2.301 27.9924 2.2588 28.0547L1.4306 27.4943ZM1.33819 27.7324L1.33552 27.7481L2.32119 27.9167L2.32387 27.9011L1.33819 27.7324ZM1.35354 27.9891C1.34682 27.9687 1.34297 27.9522 1.341 27.943C1.33952 27.936 1.33801 27.9276 1.33936 27.9349C1.33977 27.9371 1.34294 27.9549 1.3485 27.9761C1.3542 27.9978 1.36581 28.0369 1.38889 28.0819L2.27852 27.6252C2.30026 27.6675 2.31087 27.7037 2.31573 27.7222C2.31835 27.7322 2.3201 27.7402 2.32109 27.745C2.32205 27.7496 2.32268 27.753 2.3227 27.7532C2.32314 27.7556 2.3222 27.7504 2.32192 27.7489C2.32133 27.7458 2.32029 27.7404 2.31888 27.7338C2.31608 27.7207 2.31123 27.7001 2.30317 27.6757L1.35354 27.9891ZM1.35317 27.9917L1.49936 28.5002L2.46043 28.2238L2.31424 27.7154L1.35317 27.9917ZM1.49945 28.5005L3.79952 36.4799L4.7604 36.2029L2.46033 28.2235L1.49945 28.5005ZM4.96604 36.1871L2.60981 28.0077L1.64889 28.2845L4.00511 36.4639L4.96604 36.1871ZM1.78952 28.5129L8.91703 35.117L9.59669 34.3835L2.46918 27.7793L1.78952 28.5129ZM9.41654 35.2241L9.55738 35.1766L9.23803 34.229L9.09719 34.2764L9.41654 35.2241ZM9.68265 35.1136L9.7394 35.0743L9.16951 34.2526L9.11276 34.2919L9.68265 35.1136ZM9.79434 34.2967L2.68019 27.703L2.00042 28.4364L9.11457 35.0301L9.79434 34.2967Z" fill="url(#paint1_linear_36_92)" mask="url(#path-1-outside-1_36_92)"/>
<defs>
<linearGradient id="paint0_linear_36_92" x1="31" y1="2" x2="31" y2="62" gradientUnits="userSpaceOnUse">
<stop stop-color="#AA9ADA"/>
<stop offset="1" stop-color="#5C4A90"/>
</linearGradient>
<linearGradient id="paint1_linear_36_92" x1="31" y1="2" x2="31" y2="62" gradientUnits="userSpaceOnUse">
<stop stop-color="#AA9ADA"/>
<stop offset="1" stop-color="#5C4A90"/>
</linearGradient>
</defs>
</svg>
