<svg width="104" height="60" viewBox="0 0 104 60" fill="none" xmlns="http://www.w3.org/2000/svg">
<mask id="mask0_36_99" style="mask-type:luminance" maskUnits="userSpaceOnUse" x="-1" y="-1" width="106" height="62">
<path d="M0.229919 -0.25H-0.0200806V0V59.7354V59.9854H0.229919H103.707H103.957V59.7354V0V-0.25H103.707H0.229919Z" fill="white" stroke="white" stroke-width="0.5"/>
</mask>
<g mask="url(#mask0_36_99)">
<mask id="path-2-outside-1_36_99" maskUnits="userSpaceOnUse" x="-0.776306" y="-1" width="106" height="62" fill="black">
<rect fill="white" x="-0.776306" y="-1" width="106" height="62"/>
<path d="M101.842 47.5688H100.017V32.3375C100.017 29.0042 99.1383 25.7167 97.4695 22.8271L92.3695 13.9938C90.9674 11.5646 88.357 10.0583 85.5591 10.0583H64.5216V4.76875C64.5216 2.13958 62.3862 0 59.7612 0H15.8258C15.6279 0 15.4674 0.160417 15.4674 0.360417C15.4674 0.558333 15.6279 0.71875 15.8258 0.71875H59.7612C61.9904 0.71875 63.8049 2.53542 63.8049 4.76875V31.5271H58.9174C58.7195 31.5271 58.5591 31.6896 58.5591 31.8875C58.5591 32.0854 58.7195 32.2458 58.9174 32.2458H63.8049V47.5708H31.2883C29.9841 44 26.5591 41.4438 22.5508 41.4438C18.5404 41.4438 15.1154 44 13.8133 47.5708H4.43619V43.8625H9.75911C9.95703 43.8625 10.1174 43.7021 10.1174 43.5042V40.2104C10.1174 38.8229 8.99036 37.6958 7.60703 37.6958H4.43619V32.2458H54.5008C54.6987 32.2458 54.8591 32.0854 54.8591 31.8875C54.8591 31.6896 54.6987 31.5271 54.5008 31.5271H4.43619V4.76667C4.43619 2.53542 6.24869 0.71875 8.47786 0.71875H11.4091C11.607 0.71875 11.7674 0.558333 11.7674 0.358333C11.7674 0.160417 11.607 0 11.4091 0H8.47786C5.85494 0 3.71953 2.13958 3.71953 4.76667V47.5688H2.13411C1.07994 47.5688 0.223694 48.4292 0.223694 49.4854V52.0375C0.223694 53.0938 1.07994 53.9542 2.13411 53.9542H13.8112C15.1133 57.525 18.5383 60.0833 22.5487 60.0833C26.5591 60.0833 29.9862 57.525 31.2883 53.9542H34.2695C34.4674 53.9542 34.6279 53.7917 34.6279 53.5938C34.6279 53.3958 34.4674 53.2354 34.2695 53.2354H31.5154C31.732 52.4479 31.8508 51.6188 31.8508 50.7625C31.8508 49.9063 31.732 49.0771 31.5133 48.2875H72.9383C72.7216 49.0771 72.6029 49.9063 72.6029 50.7625C72.6029 51.6188 72.7216 52.4479 72.9383 53.2354H38.6862C38.4883 53.2354 38.3279 53.3958 38.3279 53.5938C38.3279 53.7917 38.4883 53.9542 38.6862 53.9542H73.1654C74.4633 57.4917 77.8549 60.0167 81.8383 60.0167C85.8195 60.0167 89.2112 57.4917 90.5091 53.9542H101.842C102.897 53.9542 103.753 53.0938 103.753 52.0375V49.4854C103.753 48.4292 102.897 47.5688 101.842 47.5688ZM4.43619 38.4125H7.60703C8.59661 38.4125 9.40078 39.2188 9.40078 40.2104V43.1438H4.43619V38.4125ZM13.5841 53.2354H2.13411C1.47578 53.2354 0.940361 52.6979 0.940361 52.0375V49.4854C0.940361 48.825 1.47578 48.2875 2.13411 48.2875H13.5841C13.3674 49.0771 13.2487 49.9063 13.2487 50.7625C13.2487 51.6188 13.3674 52.4479 13.5841 53.2354ZM22.5508 59.2604C17.8737 59.2604 14.0695 55.4479 14.0695 50.7625C14.0695 46.0771 17.8737 42.2667 22.5508 42.2667C27.2258 42.2667 31.0299 46.0771 31.0299 50.7625C31.0299 55.4479 27.2258 59.2604 22.5508 59.2604ZM64.5216 47.5688V10.775H85.5591C88.1029 10.775 90.4737 12.1458 91.7487 14.3521L96.8508 23.1854C98.4529 25.9667 99.3008 29.1313 99.3008 32.3375V37.6938H96.13C94.7466 37.6938 93.6195 38.8229 93.6195 40.2104V43.5021C93.6195 43.7021 93.7799 43.8625 93.9779 43.8625H99.3008V47.5688H90.507C89.2091 44.0333 85.8175 41.5083 81.8383 41.5083C77.857 41.5083 74.4654 44.0313 73.1674 47.5688H64.5216ZM99.3008 38.4125V43.1438H94.3362V40.2104C94.3362 39.2188 95.1404 38.4125 96.13 38.4125H99.3008ZM73.3716 50.7625C73.3716 46.0771 77.1612 42.2792 81.8383 42.2792C86.5133 42.2792 90.3029 46.0771 90.3029 50.7625C90.3029 55.4479 86.5133 59.2458 81.8383 59.2458C77.1612 59.2458 73.3716 55.4479 73.3716 50.7625ZM103.036 52.0375C103.036 52.6979 102.501 53.2354 101.842 53.2354H90.7362C90.9529 52.4479 91.0716 51.6188 91.0716 50.7625C91.0716 49.9063 90.9529 49.0771 90.7362 48.2875H101.842C102.501 48.2875 103.036 48.825 103.036 49.4854V52.0375Z"/>
</mask>
<path d="M101.842 47.5688H100.017V32.3375C100.017 29.0042 99.1383 25.7167 97.4695 22.8271L92.3695 13.9938C90.9674 11.5646 88.357 10.0583 85.5591 10.0583H64.5216V4.76875C64.5216 2.13958 62.3862 0 59.7612 0H15.8258C15.6279 0 15.4674 0.160417 15.4674 0.360417C15.4674 0.558333 15.6279 0.71875 15.8258 0.71875H59.7612C61.9904 0.71875 63.8049 2.53542 63.8049 4.76875V31.5271H58.9174C58.7195 31.5271 58.5591 31.6896 58.5591 31.8875C58.5591 32.0854 58.7195 32.2458 58.9174 32.2458H63.8049V47.5708H31.2883C29.9841 44 26.5591 41.4438 22.5508 41.4438C18.5404 41.4438 15.1154 44 13.8133 47.5708H4.43619V43.8625H9.75911C9.95703 43.8625 10.1174 43.7021 10.1174 43.5042V40.2104C10.1174 38.8229 8.99036 37.6958 7.60703 37.6958H4.43619V32.2458H54.5008C54.6987 32.2458 54.8591 32.0854 54.8591 31.8875C54.8591 31.6896 54.6987 31.5271 54.5008 31.5271H4.43619V4.76667C4.43619 2.53542 6.24869 0.71875 8.47786 0.71875H11.4091C11.607 0.71875 11.7674 0.558333 11.7674 0.358333C11.7674 0.160417 11.607 0 11.4091 0H8.47786C5.85494 0 3.71953 2.13958 3.71953 4.76667V47.5688H2.13411C1.07994 47.5688 0.223694 48.4292 0.223694 49.4854V52.0375C0.223694 53.0938 1.07994 53.9542 2.13411 53.9542H13.8112C15.1133 57.525 18.5383 60.0833 22.5487 60.0833C26.5591 60.0833 29.9862 57.525 31.2883 53.9542H34.2695C34.4674 53.9542 34.6279 53.7917 34.6279 53.5938C34.6279 53.3958 34.4674 53.2354 34.2695 53.2354H31.5154C31.732 52.4479 31.8508 51.6188 31.8508 50.7625C31.8508 49.9063 31.732 49.0771 31.5133 48.2875H72.9383C72.7216 49.0771 72.6029 49.9063 72.6029 50.7625C72.6029 51.6188 72.7216 52.4479 72.9383 53.2354H38.6862C38.4883 53.2354 38.3279 53.3958 38.3279 53.5938C38.3279 53.7917 38.4883 53.9542 38.6862 53.9542H73.1654C74.4633 57.4917 77.8549 60.0167 81.8383 60.0167C85.8195 60.0167 89.2112 57.4917 90.5091 53.9542H101.842C102.897 53.9542 103.753 53.0938 103.753 52.0375V49.4854C103.753 48.4292 102.897 47.5688 101.842 47.5688ZM4.43619 38.4125H7.60703C8.59661 38.4125 9.40078 39.2188 9.40078 40.2104V43.1438H4.43619V38.4125ZM13.5841 53.2354H2.13411C1.47578 53.2354 0.940361 52.6979 0.940361 52.0375V49.4854C0.940361 48.825 1.47578 48.2875 2.13411 48.2875H13.5841C13.3674 49.0771 13.2487 49.9063 13.2487 50.7625C13.2487 51.6188 13.3674 52.4479 13.5841 53.2354ZM22.5508 59.2604C17.8737 59.2604 14.0695 55.4479 14.0695 50.7625C14.0695 46.0771 17.8737 42.2667 22.5508 42.2667C27.2258 42.2667 31.0299 46.0771 31.0299 50.7625C31.0299 55.4479 27.2258 59.2604 22.5508 59.2604ZM64.5216 47.5688V10.775H85.5591C88.1029 10.775 90.4737 12.1458 91.7487 14.3521L96.8508 23.1854C98.4529 25.9667 99.3008 29.1313 99.3008 32.3375V37.6938H96.13C94.7466 37.6938 93.6195 38.8229 93.6195 40.2104V43.5021C93.6195 43.7021 93.7799 43.8625 93.9779 43.8625H99.3008V47.5688H90.507C89.2091 44.0333 85.8175 41.5083 81.8383 41.5083C77.857 41.5083 74.4654 44.0313 73.1674 47.5688H64.5216ZM99.3008 38.4125V43.1438H94.3362V40.2104C94.3362 39.2188 95.1404 38.4125 96.13 38.4125H99.3008ZM73.3716 50.7625C73.3716 46.0771 77.1612 42.2792 81.8383 42.2792C86.5133 42.2792 90.3029 46.0771 90.3029 50.7625C90.3029 55.4479 86.5133 59.2458 81.8383 59.2458C77.1612 59.2458 73.3716 55.4479 73.3716 50.7625ZM103.036 52.0375C103.036 52.6979 102.501 53.2354 101.842 53.2354H90.7362C90.9529 52.4479 91.0716 51.6188 91.0716 50.7625C91.0716 49.9063 90.9529 49.0771 90.7362 48.2875H101.842C102.501 48.2875 103.036 48.825 103.036 49.4854V52.0375Z" fill="url(#paint0_linear_36_99)"/>
<path d="M101.842 47.5688H100.017V32.3375C100.017 29.0042 99.1383 25.7167 97.4695 22.8271L92.3695 13.9938C90.9674 11.5646 88.357 10.0583 85.5591 10.0583H64.5216V4.76875C64.5216 2.13958 62.3862 0 59.7612 0H15.8258C15.6279 0 15.4674 0.160417 15.4674 0.360417C15.4674 0.558333 15.6279 0.71875 15.8258 0.71875H59.7612C61.9904 0.71875 63.8049 2.53542 63.8049 4.76875V31.5271H58.9174C58.7195 31.5271 58.5591 31.6896 58.5591 31.8875C58.5591 32.0854 58.7195 32.2458 58.9174 32.2458H63.8049V47.5708H31.2883C29.9841 44 26.5591 41.4438 22.5508 41.4438C18.5404 41.4438 15.1154 44 13.8133 47.5708H4.43619V43.8625H9.75911C9.95703 43.8625 10.1174 43.7021 10.1174 43.5042V40.2104C10.1174 38.8229 8.99036 37.6958 7.60703 37.6958H4.43619V32.2458H54.5008C54.6987 32.2458 54.8591 32.0854 54.8591 31.8875C54.8591 31.6896 54.6987 31.5271 54.5008 31.5271H4.43619V4.76667C4.43619 2.53542 6.24869 0.71875 8.47786 0.71875H11.4091C11.607 0.71875 11.7674 0.558333 11.7674 0.358333C11.7674 0.160417 11.607 0 11.4091 0H8.47786C5.85494 0 3.71953 2.13958 3.71953 4.76667V47.5688H2.13411C1.07994 47.5688 0.223694 48.4292 0.223694 49.4854V52.0375C0.223694 53.0938 1.07994 53.9542 2.13411 53.9542H13.8112C15.1133 57.525 18.5383 60.0833 22.5487 60.0833C26.5591 60.0833 29.9862 57.525 31.2883 53.9542H34.2695C34.4674 53.9542 34.6279 53.7917 34.6279 53.5938C34.6279 53.3958 34.4674 53.2354 34.2695 53.2354H31.5154C31.732 52.4479 31.8508 51.6188 31.8508 50.7625C31.8508 49.9063 31.732 49.0771 31.5133 48.2875H72.9383C72.7216 49.0771 72.6029 49.9063 72.6029 50.7625C72.6029 51.6188 72.7216 52.4479 72.9383 53.2354H38.6862C38.4883 53.2354 38.3279 53.3958 38.3279 53.5938C38.3279 53.7917 38.4883 53.9542 38.6862 53.9542H73.1654C74.4633 57.4917 77.8549 60.0167 81.8383 60.0167C85.8195 60.0167 89.2112 57.4917 90.5091 53.9542H101.842C102.897 53.9542 103.753 53.0938 103.753 52.0375V49.4854C103.753 48.4292 102.897 47.5688 101.842 47.5688ZM4.43619 38.4125H7.60703C8.59661 38.4125 9.40078 39.2188 9.40078 40.2104V43.1438H4.43619V38.4125ZM13.5841 53.2354H2.13411C1.47578 53.2354 0.940361 52.6979 0.940361 52.0375V49.4854C0.940361 48.825 1.47578 48.2875 2.13411 48.2875H13.5841C13.3674 49.0771 13.2487 49.9063 13.2487 50.7625C13.2487 51.6188 13.3674 52.4479 13.5841 53.2354ZM22.5508 59.2604C17.8737 59.2604 14.0695 55.4479 14.0695 50.7625C14.0695 46.0771 17.8737 42.2667 22.5508 42.2667C27.2258 42.2667 31.0299 46.0771 31.0299 50.7625C31.0299 55.4479 27.2258 59.2604 22.5508 59.2604ZM64.5216 47.5688V10.775H85.5591C88.1029 10.775 90.4737 12.1458 91.7487 14.3521L96.8508 23.1854C98.4529 25.9667 99.3008 29.1313 99.3008 32.3375V37.6938H96.13C94.7466 37.6938 93.6195 38.8229 93.6195 40.2104V43.5021C93.6195 43.7021 93.7799 43.8625 93.9779 43.8625H99.3008V47.5688H90.507C89.2091 44.0333 85.8175 41.5083 81.8383 41.5083C77.857 41.5083 74.4654 44.0313 73.1674 47.5688H64.5216ZM99.3008 38.4125V43.1438H94.3362V40.2104C94.3362 39.2188 95.1404 38.4125 96.13 38.4125H99.3008ZM73.3716 50.7625C73.3716 46.0771 77.1612 42.2792 81.8383 42.2792C86.5133 42.2792 90.3029 46.0771 90.3029 50.7625C90.3029 55.4479 86.5133 59.2458 81.8383 59.2458C77.1612 59.2458 73.3716 55.4479 73.3716 50.7625ZM103.036 52.0375C103.036 52.6979 102.501 53.2354 101.842 53.2354H90.7362C90.9529 52.4479 91.0716 51.6188 91.0716 50.7625C91.0716 49.9063 90.9529 49.0771 90.7362 48.2875H101.842C102.501 48.2875 103.036 48.825 103.036 49.4854V52.0375Z" stroke="url(#paint1_linear_36_99)" mask="url(#path-2-outside-1_36_99)"/>
</g>
<defs>
<linearGradient id="paint0_linear_36_99" x1="51.9883" y1="0" x2="51.9883" y2="60.0833" gradientUnits="userSpaceOnUse">
<stop stop-color="#AA9ADA"/>
<stop offset="1" stop-color="#5C4A90"/>
</linearGradient>
<linearGradient id="paint1_linear_36_99" x1="51.9883" y1="0" x2="51.9883" y2="60.0833" gradientUnits="userSpaceOnUse">
<stop stop-color="#AA9ADA"/>
<stop offset="1" stop-color="#5C4A90"/>
</linearGradient>
</defs>
</svg>
