<svg width="105" height="60" viewBox="0 0 105 60" fill="none" xmlns="http://www.w3.org/2000/svg">
<g clip-path="url(#clip0_34_3)">
<path d="M23.0508 47.0667C21.0725 47.0667 19.4716 48.673 19.4716 50.6542C19.4716 52.6334 21.0726 54.2396 23.0508 54.2396C25.0269 54.2396 26.6278 52.6333 26.6278 50.6542C26.6278 48.6731 25.027 47.0667 23.0508 47.0667ZM23.0508 53.0208C21.7456 53.0208 20.6883 51.9604 20.6883 50.6542C20.6883 49.3458 21.7457 48.2854 23.0508 48.2854C24.3536 48.2854 25.4112 49.3456 25.4112 50.6542C25.4112 51.9605 24.3537 53.0208 23.0508 53.0208Z" fill="url(#paint0_linear_34_3)" stroke="url(#paint1_linear_34_3)" stroke-width="0.5"/>
<path d="M93.9828 30.1125L93.984 30.1125C94.7804 30.1195 95.4749 29.7195 95.8658 29.0343L95.8661 29.0337C96.2546 28.3487 96.2429 27.5328 95.8307 26.8591L90.2309 17.6678L90.2309 17.6678C88.7669 15.2665 86.1132 13.7729 83.3028 13.7729H76.682C76.3451 13.7729 76.0737 14.0462 76.0737 14.3833V29.5438C76.0737 29.7042 76.1364 29.8608 76.2545 29.976C76.3684 30.0892 76.5232 30.1521 76.682 30.1521H76.682H76.682H76.682H76.6821H76.6821H76.6821H76.6821H76.6821H76.6821H76.6821H76.6821H76.6821H76.6822H76.6822H76.6822H76.6822H76.6822H76.6822H76.6822H76.6822H76.6822H76.6823H76.6823H76.6823H76.6823H76.6823H76.6823H76.6823H76.6823H76.6823H76.6824H76.6824H76.6824H76.6824H76.6824H76.6824H76.6824H76.6824H76.6824H76.6825H76.6825H76.6825H76.6825H76.6825H76.6825H76.6825H76.6825H76.6825H76.6825H76.6826H76.6826H76.6826H76.6826H76.6826H76.6826H76.6826H76.6826H76.6826H76.6826H76.6827H76.6827H76.6827H76.6827H76.6827H76.6827H76.6827H76.6827H76.6827H76.6827H76.6828H76.6828H76.6828H76.6828H76.6828H76.6828H76.6828H76.6828H76.6828H76.6828H76.6828H76.6829H76.6829H76.6829H76.6829H76.6829H76.6829H76.6829H76.6829H76.6829H76.6829H76.6829H76.6829H76.683H76.683H76.683H76.683H76.683H76.683H76.683H76.683H76.683H76.683H76.683H76.683H76.6831H76.6831H76.6831H76.6831H76.6831H76.6831H76.6831H76.6831H76.6831H76.6831H76.6831H76.6831H76.6832H76.6832H76.6832H76.6832H76.6832H76.6832H76.6832H76.6832H76.6832H76.6832H76.6832H76.6832H76.6833H76.6833H76.6833H76.6833H76.6833H76.6833H76.6833H76.6834H76.6834H76.6834H76.6834H76.6834H76.6834H76.6834H76.6835H76.6835H76.6835H76.6835H76.6835H76.6835H76.6835H76.6836H76.6836H76.6836H76.6836H76.6836H76.6836H76.6836H76.6836H76.6837H76.6837H76.6837H76.6837H76.6837H76.6837H76.6837H76.6838H76.6838H76.6838H76.6838H76.6838H76.6838H76.6838H76.6838H76.6839H76.6839H76.6839H76.6839H76.6839H76.6839H76.6839H76.6839H76.684H76.684H76.684H76.684H76.684H76.684H76.684H76.684H76.684H76.6841H76.6841H76.6841H76.6841H76.6841H76.6841H76.6841H76.6841H76.6842H76.6842H76.6842H76.6842H76.6842H76.6842H76.6842H76.6842H76.6843H76.6843H76.6843H76.6843H76.6843H76.6843H76.6843H76.6843H76.6844H76.6844H76.6844H76.6844H76.6844H76.6844H76.6844H76.6844H76.6845H76.6845H76.6845H76.6845H76.6845H76.6845H76.6845H76.6846H76.6846H76.6846H76.6846H76.6846H76.6846H76.6846H76.6846H76.6847H76.6847H76.6847H76.6847H76.6847H76.6847H76.6847H76.6848H76.6848H76.6848H76.6848H76.6848H76.6848H76.6848H76.6849H76.6849H76.6849H76.6849H76.6849H76.6849H76.6849H76.6849H76.685H76.685H76.685H76.685H76.685H76.685H76.685H76.685H76.685H76.685H76.685H76.685H76.685H76.6851H76.6851H76.6851H76.6851H76.6851H76.6851H76.6851H76.6851H76.6851H76.6851H76.6851H76.6851H76.6852H76.6852H76.6852H76.6852H76.6852H76.6852H76.6852H76.6852H76.6852H76.6852H76.6852H76.6852H76.6853H76.6853H76.6853H76.6853H76.6853H76.6853H76.6853H76.6853H76.6853H76.6853H76.6853H76.6854H76.6854H76.6854H76.6854H76.6854H76.6854H76.6854H76.6854H76.6854H76.6854H76.6854H76.6855H76.6855H76.6855H76.6855H76.6855H76.6855H76.6855H76.6855H76.6855H76.6855H76.6856H76.6856H76.6856H76.6856H76.6856H76.6856H76.6856H76.6856H76.6856H76.6856H76.6857H76.6857H76.6857H76.6857H76.6857H76.6857H76.6857H76.6857H76.6857H76.6857H76.6858H76.6858H76.6858H76.6858H76.6858H76.6858H76.6858H76.6858H76.6858H76.6859H76.6859H76.6859H76.6859H76.6859H76.6859H76.6859H76.6859H76.6859H76.686H76.686H76.686H76.686H76.686H76.686H76.686H76.686H76.686H76.6861H76.6861H76.6861H76.6861H76.6861H76.6861H76.6861H76.6861H76.6862H76.6862C76.6968 30.1521 76.7928 30.1513 76.963 30.1498C78.7725 30.1341 88.9647 30.0459 93.9828 30.1125ZM93.9982 28.8938C89.221 28.8315 79.7811 28.9066 77.2903 28.929V14.9917H83.3028C85.6884 14.9917 87.9471 16.2607 89.1914 18.303L89.1914 18.303L94.7935 27.4947L94.7936 27.4948C94.9711 27.7857 94.976 28.1341 94.8067 28.43L94.8062 28.4308C94.6402 28.7234 94.3461 28.8938 94.0133 28.8938H94.0132H94.0132H94.0131H94.0131H94.0131H94.013H94.013H94.013H94.0129H94.0129H94.0128H94.0128H94.0128H94.0127H94.0127H94.0127H94.0126H94.0126H94.0126H94.0125H94.0125H94.0124H94.0124H94.0124H94.0123H94.0123H94.0123H94.0122H94.0122H94.0122H94.0121H94.0121H94.012H94.012H94.012H94.0119H94.0119H94.0119H94.0118H94.0118H94.0118H94.0117H94.0117H94.0116H94.0116H94.0116H94.0115H94.0115H94.0115H94.0114H94.0114H94.0114H94.0113H94.0113H94.0112H94.0112H94.0112H94.0111H94.0111H94.0111H94.011H94.011H94.0109H94.0109H94.0109H94.0108H94.0108H94.0108H94.0107H94.0107H94.0107H94.0106H94.0106H94.0105H94.0105H94.0105H94.0104H94.0104H94.0104H94.0103H94.0103H94.0103H94.0102H94.0102H94.0101H94.0101H94.0101H94.01H94.01H94.01H94.0099H94.0099H94.0099H94.0098H94.0098H94.0098H94.0097H94.0097H94.0096H94.0096H94.0096H94.0095H94.0095H94.0095H94.0094H94.0094H94.0094H94.0093H94.0093H94.0092H94.0092H94.0092H94.0091H94.0091H94.0091H94.009H94.009H94.009H94.0089H94.0089H94.0088H94.0088H94.0088H94.0087H94.0087H94.0087H94.0086H94.0086H94.0086H94.0085H94.0085H94.0085H94.0084H94.0084H94.0083H94.0083H94.0083H94.0082H94.0082H94.0082H94.0081H94.0081H94.0081H94.008H94.008H94.008H94.0079H94.0079H94.0078H94.0078H94.0078H94.0077H94.0077H94.0077H94.0076H94.0076H94.0076H94.0075H94.0075H94.0075H94.0074H94.0074H94.0073H94.0073H94.0073H94.0072H94.0072H94.0072H94.0071H94.0071H94.0071H94.007H94.007H94.007H94.0069H94.0069H94.0069H94.0068H94.0068H94.0068H94.0067H94.0067H94.0066H94.0066H94.0066H94.0065H94.0065H94.0065H94.0064H94.0064H94.0064H94.0063H94.0063H94.0063H94.0062H94.0062H94.0062H94.0061H94.0061H94.0061H94.006H94.006H94.0059H94.0059H94.0059H94.0058H94.0058H94.0058H94.0057H94.0057H94.0057H94.0056H94.0056H94.0056H94.0055H94.0055H94.0055H94.0054H94.0054H94.0054H94.0053H94.0053H94.0053H94.0052H94.0052H94.0052H94.0051H94.0051H94.0051H94.005H94.005H94.0049H94.0049H94.0049H94.0048H94.0048H94.0048H94.0047H94.0047H94.0047H94.0046H94.0046H94.0046H94.0045H94.0045H94.0045H94.0044H94.0044H94.0044H94.0043H94.0043H94.0043H94.0042H94.0042H94.0042H94.0041H94.0041H94.0041H94.004H94.004H94.004H94.0039H94.0039H94.0039H94.0038H94.0038H94.0038H94.0037H94.0037H94.0037H94.0036H94.0036H94.0036H94.0035H94.0035H94.0035H94.0034H94.0034H94.0034H94.0033H94.0033H94.0033H94.0032H94.0032H94.0032H94.0031H94.0031H94.0031H94.003H94.003H94.003H94.0029H94.0029H94.0029H94.0028H94.0028H94.0028H94.0028H94.0027H94.0027H94.0027H94.0026H94.0026H94.0026H94.0025H94.0025H94.0025H94.0024H94.0024H94.0024H94.0023H94.0023H94.0023H94.0022H94.0022H94.0022H94.0021H94.0021H94.0021H94.002H94.002H94.002H94.0019H94.0019H94.0019H94.0019H94.0018H94.0018H94.0018H94.0017H94.0017H94.0017H94.0016H94.0016H94.0016H94.0015H94.0015H94.0015H94.0014H94.0014H94.0014H94.0013H94.0013H94.0013H94.0013H94.0012H94.0012H94.0012H94.0011H94.0011H94.0011H94.001H94.001H94.001H94.0009H94.0009H94.0009H94.0009H94.0008H94.0008H94.0008H94.0007H94.0007H94.0007H94.0006H94.0006H94.0006H94.0005H94.0005H94.0005H94.0005H94.0004H94.0004H94.0004H94.0003H94.0003H94.0003H94.0002H94.0002H94.0002H94.0002H94.0001H94.0001H94.0001H94H94H94H94H93.9999H93.9999H93.9999H93.9998H93.9998H93.9998H93.9997H93.9997H93.9997H93.9997H93.9996H93.9996H93.9996H93.9995H93.9995H93.9995H93.9995H93.9994H93.9994H93.9994H93.9993H93.9993H93.9993H93.9993H93.9992H93.9992H93.9992H93.9991H93.9991H93.9991H93.9991H93.999H93.999H93.999H93.9989H93.9989H93.9989H93.9989H93.9988H93.9988H93.9988H93.9987H93.9987H93.9987H93.9987H93.9986H93.9986H93.9986H93.9985H93.9985H93.9985H93.9985H93.9984H93.9984H93.9984H93.9984H93.9983H93.9983H93.9983H93.9982Z" fill="url(#paint2_linear_34_3)" stroke="url(#paint3_linear_34_3)" stroke-width="0.5"/>
<path d="M76.5112 34.425H82.2258C82.5636 34.425 82.8341 34.1487 82.8341 33.8146C82.8341 33.4786 82.5617 33.2062 82.2258 33.2062H76.5112C76.1752 33.2062 75.9028 33.4786 75.9028 33.8146C75.9028 34.1487 76.1733 34.425 76.5112 34.425Z" fill="url(#paint4_linear_34_3)" stroke="url(#paint5_linear_34_3)" stroke-width="0.5"/>
<path d="M82.3383 47.0667C80.36 47.0667 78.7591 48.673 78.7591 50.6542C78.7591 52.6334 80.3601 54.2396 82.3383 54.2396C84.3144 54.2396 85.9153 52.6333 85.9153 50.6542C85.9153 48.6731 84.3145 47.0667 82.3383 47.0667ZM82.3383 53.0208C81.0331 53.0208 79.9758 51.9604 79.9758 50.6542C79.9758 49.3458 81.0332 48.2854 82.3383 48.2854C83.6411 48.2854 84.6987 49.3456 84.6987 50.6542C84.6987 51.9605 83.6412 53.0208 82.3383 53.0208Z" fill="url(#paint6_linear_34_3)" stroke="url(#paint7_linear_34_3)" stroke-width="0.5"/>
<mask id="mask0_34_3" style="mask-type:luminance" maskUnits="userSpaceOnUse" x="0" y="-1" width="105" height="62">
<path d="M0.729919 -0.25H0.479919V0V59.7354V59.9854H0.729919H104.207H104.457V59.7354V0V-0.25H104.207H0.729919Z" fill="white" stroke="white" stroke-width="0.5"/>
</mask>
<g mask="url(#mask0_34_3)">
<mask id="path-6-outside-1_34_3" maskUnits="userSpaceOnUse" x="-0.276329" y="-1" width="106" height="62" fill="black">
<rect fill="white" x="-0.276329" y="-1" width="106" height="62"/>
<path d="M102.342 47.5688H100.517V32.3375C100.517 29.0042 99.6383 25.7167 97.9695 22.8271L92.8695 13.9938C91.4674 11.5646 88.857 10.0583 86.0591 10.0583H65.0216V4.76875C65.0216 2.13958 62.8862 0 60.2612 0H16.3258C16.1278 0 15.9674 0.160417 15.9674 0.360417C15.9674 0.558333 16.1278 0.71875 16.3258 0.71875H60.2612C62.4903 0.71875 64.3049 2.53542 64.3049 4.76875V31.5271H59.4174C59.2195 31.5271 59.0591 31.6896 59.0591 31.8875C59.0591 32.0854 59.2195 32.2458 59.4174 32.2458H64.3049V47.5708H31.7883C30.4841 44 27.0591 41.4438 23.0508 41.4438C19.0403 41.4438 15.6153 44 14.3133 47.5708H4.93617V43.8625H10.2591C10.457 43.8625 10.6174 43.7021 10.6174 43.5042V40.2104C10.6174 38.8229 9.49034 37.6958 8.107 37.6958H4.93617V32.2458H55.0008C55.1987 32.2458 55.3591 32.0854 55.3591 31.8875C55.3591 31.6896 55.1987 31.5271 55.0008 31.5271H4.93617V4.76667C4.93617 2.53542 6.74867 0.71875 8.97784 0.71875H11.9091C12.107 0.71875 12.2674 0.558333 12.2674 0.358333C12.2674 0.160417 12.107 0 11.9091 0H8.97784C6.35492 0 4.2195 2.13958 4.2195 4.76667V47.5688H2.63409C1.57992 47.5688 0.723671 48.4292 0.723671 49.4854V52.0375C0.723671 53.0938 1.57992 53.9542 2.63409 53.9542H14.3112C15.6133 57.525 19.0383 60.0833 23.0487 60.0833C27.0591 60.0833 30.4862 57.525 31.7883 53.9542H34.7695C34.9674 53.9542 35.1278 53.7917 35.1278 53.5938C35.1278 53.3958 34.9674 53.2354 34.7695 53.2354H32.0153C32.232 52.4479 32.3508 51.6188 32.3508 50.7625C32.3508 49.9063 32.232 49.0771 32.0133 48.2875H73.4383C73.2216 49.0771 73.1028 49.9063 73.1028 50.7625C73.1028 51.6188 73.2216 52.4479 73.4383 53.2354H39.1862C38.9883 53.2354 38.8278 53.3958 38.8278 53.5938C38.8278 53.7917 38.9883 53.9542 39.1862 53.9542H73.6653C74.9633 57.4917 78.3549 60.0167 82.3383 60.0167C86.3195 60.0167 89.7112 57.4917 91.0091 53.9542H102.342C103.397 53.9542 104.253 53.0938 104.253 52.0375V49.4854C104.253 48.4292 103.397 47.5688 102.342 47.5688ZM4.93617 38.4125H8.107C9.09659 38.4125 9.90075 39.2188 9.90075 40.2104V43.1438H4.93617V38.4125ZM14.0841 53.2354H2.63409C1.97575 53.2354 1.44034 52.6979 1.44034 52.0375V49.4854C1.44034 48.825 1.97575 48.2875 2.63409 48.2875H14.0841C13.8674 49.0771 13.7487 49.9063 13.7487 50.7625C13.7487 51.6188 13.8674 52.4479 14.0841 53.2354ZM23.0508 59.2604C18.3737 59.2604 14.5695 55.4479 14.5695 50.7625C14.5695 46.0771 18.3737 42.2667 23.0508 42.2667C27.7258 42.2667 31.5299 46.0771 31.5299 50.7625C31.5299 55.4479 27.7258 59.2604 23.0508 59.2604ZM65.0216 47.5688V10.775H86.0591C88.6028 10.775 90.9737 12.1458 92.2487 14.3521L97.3508 23.1854C98.9528 25.9667 99.8008 29.1313 99.8008 32.3375V37.6938H96.6299C95.2466 37.6938 94.1195 38.8229 94.1195 40.2104V43.5021C94.1195 43.7021 94.2799 43.8625 94.4778 43.8625H99.8008V47.5688H91.007C89.7091 44.0333 86.3174 41.5083 82.3383 41.5083C78.357 41.5083 74.9653 44.0313 73.6674 47.5688H65.0216ZM99.8008 38.4125V43.1438H94.8362V40.2104C94.8362 39.2188 95.6403 38.4125 96.6299 38.4125H99.8008ZM73.8716 50.7625C73.8716 46.0771 77.6612 42.2792 82.3383 42.2792C87.0133 42.2792 90.8028 46.0771 90.8028 50.7625C90.8028 55.4479 87.0133 59.2458 82.3383 59.2458C77.6612 59.2458 73.8716 55.4479 73.8716 50.7625ZM103.536 52.0375C103.536 52.6979 103.001 53.2354 102.342 53.2354H91.2362C91.4528 52.4479 91.5716 51.6188 91.5716 50.7625C91.5716 49.9063 91.4528 49.0771 91.2362 48.2875H102.342C103.001 48.2875 103.536 48.825 103.536 49.4854V52.0375Z"/>
</mask>
<path d="M102.342 47.5688H100.517V32.3375C100.517 29.0042 99.6383 25.7167 97.9695 22.8271L92.8695 13.9938C91.4674 11.5646 88.857 10.0583 86.0591 10.0583H65.0216V4.76875C65.0216 2.13958 62.8862 0 60.2612 0H16.3258C16.1278 0 15.9674 0.160417 15.9674 0.360417C15.9674 0.558333 16.1278 0.71875 16.3258 0.71875H60.2612C62.4903 0.71875 64.3049 2.53542 64.3049 4.76875V31.5271H59.4174C59.2195 31.5271 59.0591 31.6896 59.0591 31.8875C59.0591 32.0854 59.2195 32.2458 59.4174 32.2458H64.3049V47.5708H31.7883C30.4841 44 27.0591 41.4438 23.0508 41.4438C19.0403 41.4438 15.6153 44 14.3133 47.5708H4.93617V43.8625H10.2591C10.457 43.8625 10.6174 43.7021 10.6174 43.5042V40.2104C10.6174 38.8229 9.49034 37.6958 8.107 37.6958H4.93617V32.2458H55.0008C55.1987 32.2458 55.3591 32.0854 55.3591 31.8875C55.3591 31.6896 55.1987 31.5271 55.0008 31.5271H4.93617V4.76667C4.93617 2.53542 6.74867 0.71875 8.97784 0.71875H11.9091C12.107 0.71875 12.2674 0.558333 12.2674 0.358333C12.2674 0.160417 12.107 0 11.9091 0H8.97784C6.35492 0 4.2195 2.13958 4.2195 4.76667V47.5688H2.63409C1.57992 47.5688 0.723671 48.4292 0.723671 49.4854V52.0375C0.723671 53.0938 1.57992 53.9542 2.63409 53.9542H14.3112C15.6133 57.525 19.0383 60.0833 23.0487 60.0833C27.0591 60.0833 30.4862 57.525 31.7883 53.9542H34.7695C34.9674 53.9542 35.1278 53.7917 35.1278 53.5938C35.1278 53.3958 34.9674 53.2354 34.7695 53.2354H32.0153C32.232 52.4479 32.3508 51.6188 32.3508 50.7625C32.3508 49.9063 32.232 49.0771 32.0133 48.2875H73.4383C73.2216 49.0771 73.1028 49.9063 73.1028 50.7625C73.1028 51.6188 73.2216 52.4479 73.4383 53.2354H39.1862C38.9883 53.2354 38.8278 53.3958 38.8278 53.5938C38.8278 53.7917 38.9883 53.9542 39.1862 53.9542H73.6653C74.9633 57.4917 78.3549 60.0167 82.3383 60.0167C86.3195 60.0167 89.7112 57.4917 91.0091 53.9542H102.342C103.397 53.9542 104.253 53.0938 104.253 52.0375V49.4854C104.253 48.4292 103.397 47.5688 102.342 47.5688ZM4.93617 38.4125H8.107C9.09659 38.4125 9.90075 39.2188 9.90075 40.2104V43.1438H4.93617V38.4125ZM14.0841 53.2354H2.63409C1.97575 53.2354 1.44034 52.6979 1.44034 52.0375V49.4854C1.44034 48.825 1.97575 48.2875 2.63409 48.2875H14.0841C13.8674 49.0771 13.7487 49.9063 13.7487 50.7625C13.7487 51.6188 13.8674 52.4479 14.0841 53.2354ZM23.0508 59.2604C18.3737 59.2604 14.5695 55.4479 14.5695 50.7625C14.5695 46.0771 18.3737 42.2667 23.0508 42.2667C27.7258 42.2667 31.5299 46.0771 31.5299 50.7625C31.5299 55.4479 27.7258 59.2604 23.0508 59.2604ZM65.0216 47.5688V10.775H86.0591C88.6028 10.775 90.9737 12.1458 92.2487 14.3521L97.3508 23.1854C98.9528 25.9667 99.8008 29.1313 99.8008 32.3375V37.6938H96.6299C95.2466 37.6938 94.1195 38.8229 94.1195 40.2104V43.5021C94.1195 43.7021 94.2799 43.8625 94.4778 43.8625H99.8008V47.5688H91.007C89.7091 44.0333 86.3174 41.5083 82.3383 41.5083C78.357 41.5083 74.9653 44.0313 73.6674 47.5688H65.0216ZM99.8008 38.4125V43.1438H94.8362V40.2104C94.8362 39.2188 95.6403 38.4125 96.6299 38.4125H99.8008ZM73.8716 50.7625C73.8716 46.0771 77.6612 42.2792 82.3383 42.2792C87.0133 42.2792 90.8028 46.0771 90.8028 50.7625C90.8028 55.4479 87.0133 59.2458 82.3383 59.2458C77.6612 59.2458 73.8716 55.4479 73.8716 50.7625ZM103.536 52.0375C103.536 52.6979 103.001 53.2354 102.342 53.2354H91.2362C91.4528 52.4479 91.5716 51.6188 91.5716 50.7625C91.5716 49.9063 91.4528 49.0771 91.2362 48.2875H102.342C103.001 48.2875 103.536 48.825 103.536 49.4854V52.0375Z" fill="url(#paint8_linear_34_3)"/>
<path d="M102.342 47.5688H100.517V32.3375C100.517 29.0042 99.6383 25.7167 97.9695 22.8271L92.8695 13.9938C91.4674 11.5646 88.857 10.0583 86.0591 10.0583H65.0216V4.76875C65.0216 2.13958 62.8862 0 60.2612 0H16.3258C16.1278 0 15.9674 0.160417 15.9674 0.360417C15.9674 0.558333 16.1278 0.71875 16.3258 0.71875H60.2612C62.4903 0.71875 64.3049 2.53542 64.3049 4.76875V31.5271H59.4174C59.2195 31.5271 59.0591 31.6896 59.0591 31.8875C59.0591 32.0854 59.2195 32.2458 59.4174 32.2458H64.3049V47.5708H31.7883C30.4841 44 27.0591 41.4438 23.0508 41.4438C19.0403 41.4438 15.6153 44 14.3133 47.5708H4.93617V43.8625H10.2591C10.457 43.8625 10.6174 43.7021 10.6174 43.5042V40.2104C10.6174 38.8229 9.49034 37.6958 8.107 37.6958H4.93617V32.2458H55.0008C55.1987 32.2458 55.3591 32.0854 55.3591 31.8875C55.3591 31.6896 55.1987 31.5271 55.0008 31.5271H4.93617V4.76667C4.93617 2.53542 6.74867 0.71875 8.97784 0.71875H11.9091C12.107 0.71875 12.2674 0.558333 12.2674 0.358333C12.2674 0.160417 12.107 0 11.9091 0H8.97784C6.35492 0 4.2195 2.13958 4.2195 4.76667V47.5688H2.63409C1.57992 47.5688 0.723671 48.4292 0.723671 49.4854V52.0375C0.723671 53.0938 1.57992 53.9542 2.63409 53.9542H14.3112C15.6133 57.525 19.0383 60.0833 23.0487 60.0833C27.0591 60.0833 30.4862 57.525 31.7883 53.9542H34.7695C34.9674 53.9542 35.1278 53.7917 35.1278 53.5938C35.1278 53.3958 34.9674 53.2354 34.7695 53.2354H32.0153C32.232 52.4479 32.3508 51.6188 32.3508 50.7625C32.3508 49.9063 32.232 49.0771 32.0133 48.2875H73.4383C73.2216 49.0771 73.1028 49.9063 73.1028 50.7625C73.1028 51.6188 73.2216 52.4479 73.4383 53.2354H39.1862C38.9883 53.2354 38.8278 53.3958 38.8278 53.5938C38.8278 53.7917 38.9883 53.9542 39.1862 53.9542H73.6653C74.9633 57.4917 78.3549 60.0167 82.3383 60.0167C86.3195 60.0167 89.7112 57.4917 91.0091 53.9542H102.342C103.397 53.9542 104.253 53.0938 104.253 52.0375V49.4854C104.253 48.4292 103.397 47.5688 102.342 47.5688ZM4.93617 38.4125H8.107C9.09659 38.4125 9.90075 39.2188 9.90075 40.2104V43.1438H4.93617V38.4125ZM14.0841 53.2354H2.63409C1.97575 53.2354 1.44034 52.6979 1.44034 52.0375V49.4854C1.44034 48.825 1.97575 48.2875 2.63409 48.2875H14.0841C13.8674 49.0771 13.7487 49.9063 13.7487 50.7625C13.7487 51.6188 13.8674 52.4479 14.0841 53.2354ZM23.0508 59.2604C18.3737 59.2604 14.5695 55.4479 14.5695 50.7625C14.5695 46.0771 18.3737 42.2667 23.0508 42.2667C27.7258 42.2667 31.5299 46.0771 31.5299 50.7625C31.5299 55.4479 27.7258 59.2604 23.0508 59.2604ZM65.0216 47.5688V10.775H86.0591C88.6028 10.775 90.9737 12.1458 92.2487 14.3521L97.3508 23.1854C98.9528 25.9667 99.8008 29.1313 99.8008 32.3375V37.6938H96.6299C95.2466 37.6938 94.1195 38.8229 94.1195 40.2104V43.5021C94.1195 43.7021 94.2799 43.8625 94.4778 43.8625H99.8008V47.5688H91.007C89.7091 44.0333 86.3174 41.5083 82.3383 41.5083C78.357 41.5083 74.9653 44.0313 73.6674 47.5688H65.0216ZM99.8008 38.4125V43.1438H94.8362V40.2104C94.8362 39.2188 95.6403 38.4125 96.6299 38.4125H99.8008ZM73.8716 50.7625C73.8716 46.0771 77.6612 42.2792 82.3383 42.2792C87.0133 42.2792 90.8028 46.0771 90.8028 50.7625C90.8028 55.4479 87.0133 59.2458 82.3383 59.2458C77.6612 59.2458 73.8716 55.4479 73.8716 50.7625ZM103.536 52.0375C103.536 52.6979 103.001 53.2354 102.342 53.2354H91.2362C91.4528 52.4479 91.5716 51.6188 91.5716 50.7625C91.5716 49.9063 91.4528 49.0771 91.2362 48.2875H102.342C103.001 48.2875 103.536 48.825 103.536 49.4854V52.0375Z" stroke="url(#paint9_linear_34_3)" mask="url(#path-6-outside-1_34_3)"/>
</g>
</g>
<defs>
<linearGradient id="paint0_linear_34_3" x1="23.0497" y1="47.3167" x2="23.0497" y2="53.9896" gradientUnits="userSpaceOnUse">
<stop stop-color="#AA9ADA"/>
<stop offset="1" stop-color="#5C4A90"/>
</linearGradient>
<linearGradient id="paint1_linear_34_3" x1="23.0497" y1="47.3167" x2="23.0497" y2="53.9896" gradientUnits="userSpaceOnUse">
<stop stop-color="#AA9ADA"/>
<stop offset="1" stop-color="#5C4A90"/>
</linearGradient>
<linearGradient id="paint2_linear_34_3" x1="86.1113" y1="14.0229" x2="86.1113" y2="29.9021" gradientUnits="userSpaceOnUse">
<stop stop-color="#AA9ADA"/>
<stop offset="1" stop-color="#5C4A90"/>
</linearGradient>
<linearGradient id="paint3_linear_34_3" x1="86.1113" y1="14.0229" x2="86.1113" y2="29.9021" gradientUnits="userSpaceOnUse">
<stop stop-color="#AA9ADA"/>
<stop offset="1" stop-color="#5C4A90"/>
</linearGradient>
<linearGradient id="paint4_linear_34_3" x1="79.3685" y1="33.4562" x2="79.3685" y2="34.175" gradientUnits="userSpaceOnUse">
<stop stop-color="#AA9ADA"/>
<stop offset="1" stop-color="#5C4A90"/>
</linearGradient>
<linearGradient id="paint5_linear_34_3" x1="79.3685" y1="33.4562" x2="79.3685" y2="34.175" gradientUnits="userSpaceOnUse">
<stop stop-color="#AA9ADA"/>
<stop offset="1" stop-color="#5C4A90"/>
</linearGradient>
<linearGradient id="paint6_linear_34_3" x1="82.3372" y1="47.3167" x2="82.3372" y2="53.9896" gradientUnits="userSpaceOnUse">
<stop stop-color="#AA9ADA"/>
<stop offset="1" stop-color="#5C4A90"/>
</linearGradient>
<linearGradient id="paint7_linear_34_3" x1="82.3372" y1="47.3167" x2="82.3372" y2="53.9896" gradientUnits="userSpaceOnUse">
<stop stop-color="#AA9ADA"/>
<stop offset="1" stop-color="#5C4A90"/>
</linearGradient>
<linearGradient id="paint8_linear_34_3" x1="52.4883" y1="0" x2="52.4883" y2="60.0833" gradientUnits="userSpaceOnUse">
<stop stop-color="#AA9ADA"/>
<stop offset="1" stop-color="#5C4A90"/>
</linearGradient>
<linearGradient id="paint9_linear_34_3" x1="52.4883" y1="0" x2="52.4883" y2="60.0833" gradientUnits="userSpaceOnUse">
<stop stop-color="#AA9ADA"/>
<stop offset="1" stop-color="#5C4A90"/>
</linearGradient>
<clipPath id="clip0_34_3">
<rect width="104" height="60" fill="white" transform="translate(0.5)"/>
</clipPath>
</defs>
</svg>
