<svg width="24" height="24" viewBox="0 0 24 24" fill="none" xmlns="http://www.w3.org/2000/svg">
<path fill-rule="evenodd" clip-rule="evenodd" d="M4.4475 18.5425C4.46851 18.3229 4.44082 18.1014 4.36641 17.8937C4.292 17.686 4.1727 17.4973 4.017 17.341C2.427 15.745 1.5 13.702 1.5 11.5C1.5 6.712 6.006 2.5 12 2.5C17.994 2.5 22.5 6.712 22.5 11.5C22.5 16.288 17.994 20.5 12 20.5C10.9426 20.5026 9.88946 20.3654 8.868 20.092C8.51097 19.9963 8.13118 20.0359 7.8015 20.203C7.221 20.497 5.9415 21.058 3.8505 21.5425C4.14196 20.5631 4.34182 19.5588 4.4475 18.5425ZM3.2475 23.2045L3.2775 23.1985C6.0225 22.654 7.6995 21.9355 8.4795 21.541C9.62768 21.8483 10.8114 22.0026 12 22C18.627 22 24 17.299 24 11.5C24 5.701 18.627 1 12 1C5.373 1 0 5.701 0 11.5C0 14.14 1.1145 16.555 2.955 18.4C2.82672 19.5852 2.56299 20.7518 2.169 21.877L2.1645 21.8935C2.05241 22.2157 1.93035 22.5344 1.7985 22.849C1.68 23.128 1.9095 23.44 2.208 23.392C2.55548 23.3351 2.90202 23.2725 3.2475 23.2045ZM12 8.4895C14.496 5.923 20.7375 10.414 12 16.1875C3.2625 10.4125 9.504 5.923 12 8.4895Z" fill="url(#paint0_linear_44_234)"/>
<defs>
<linearGradient id="paint0_linear_44_234" x1="12" y1="1" x2="12" y2="23.3969" gradientUnits="userSpaceOnUse">
<stop stop-color="#AA9ADA"/>
<stop offset="1" stop-color="#5C4A90"/>
</linearGradient>
</defs>
</svg>
