<svg width="16" height="16" viewBox="0 0 16 16" fill="none" xmlns="http://www.w3.org/2000/svg">
<path fill-rule="evenodd" clip-rule="evenodd" d="M1.55295 6.77605C1.61236 6.65776 1.71625 6.56786 1.84185 6.52606C1.96745 6.48425 2.1045 6.49396 2.22295 6.55305L7.99995 9.44005L13.7759 6.55205C13.8347 6.52203 13.8988 6.50394 13.9646 6.49882C14.0304 6.4937 14.0966 6.50166 14.1593 6.52222C14.222 6.54279 14.28 6.57557 14.3299 6.61866C14.3799 6.66175 14.4209 6.71431 14.4504 6.77331C14.48 6.8323 14.4976 6.89656 14.5022 6.96239C14.5068 7.02822 14.4983 7.0943 14.4773 7.15684C14.4562 7.21938 14.423 7.27713 14.3795 7.32677C14.336 7.3764 14.2832 7.41694 14.2239 7.44605L8.22395 10.446C8.15442 10.4809 8.07772 10.499 7.99995 10.499C7.92218 10.499 7.84548 10.4809 7.77595 10.446L1.77595 7.44605C1.65766 7.38664 1.56776 7.28274 1.52595 7.15714C1.48415 7.03155 1.49386 6.8945 1.55295 6.77605Z" fill="url(#paint0_linear_16_1107)"/>
<defs>
<linearGradient id="paint0_linear_16_1107" x1="8.00189" y1="6.49731" x2="8.00189" y2="10.499" gradientUnits="userSpaceOnUse">
<stop stop-color="#AA9ADA"/>
<stop offset="1" stop-color="#5C4A90"/>
</linearGradient>
</defs>
</svg>
