<svg width="25" height="24" viewBox="0 0 25 24" fill="none" xmlns="http://www.w3.org/2000/svg">
<g clip-path="url(#clip0_49_43)">
<path d="M0.333313 6C0.333313 5.20435 0.649384 4.44129 1.21199 3.87868C1.7746 3.31607 2.53766 3 3.33331 3H21.3333C22.129 3 22.892 3.31607 23.4546 3.87868C24.0172 4.44129 24.3333 5.20435 24.3333 6V18C24.3333 18.7956 24.0172 19.5587 23.4546 20.1213C22.892 20.6839 22.129 21 21.3333 21H3.33331C2.53766 21 1.7746 20.6839 1.21199 20.1213C0.649384 19.5587 0.333313 18.7956 0.333313 18V6ZM3.33331 4.5C2.93549 4.5 2.55396 4.65804 2.27265 4.93934C1.99135 5.22064 1.83331 5.60218 1.83331 6V6.3255L12.3333 12.6255L22.8333 6.3255V6C22.8333 5.60218 22.6753 5.22064 22.394 4.93934C22.1127 4.65804 21.7311 4.5 21.3333 4.5H3.33331ZM22.8333 8.0745L15.7713 12.312L22.8333 16.6575V8.0745ZM22.7823 18.3885L14.3223 13.182L12.3333 14.3745L10.3443 13.182L1.88431 18.387C1.96955 18.7062 2.15779 18.9883 2.4198 19.1896C2.68181 19.3908 3.00293 19.5 3.33331 19.5H21.3333C21.6635 19.5 21.9845 19.3911 22.2465 19.1902C22.5084 18.9892 22.6968 18.7074 22.7823 18.3885ZM1.83331 16.6575L8.89531 12.312L1.83331 8.0745V16.6575Z" fill="url(#paint0_linear_49_43)"/>
</g>
<defs>
<linearGradient id="paint0_linear_49_43" x1="12.3333" y1="3" x2="12.3333" y2="21" gradientUnits="userSpaceOnUse">
<stop stop-color="#AA9ADA"/>
<stop offset="1" stop-color="#5C4A90"/>
</linearGradient>
<clipPath id="clip0_49_43">
<rect width="24" height="24" fill="white" transform="translate(0.333313)"/>
</clipPath>
</defs>
</svg>
