<svg width="296" height="88" viewBox="0 0 296 88" fill="none" xmlns="http://www.w3.org/2000/svg">
<path d="M0.771484 5.92603C0.771484 3.67064 2.59984 1.84229 4.85522 1.84229C6.12003 1.84229 7.25053 2.41728 7.9996 3.32013C8.74866 2.41728 9.8792 1.84229 11.144 1.84229C13.3994 1.84229 15.2277 3.67064 15.2277 5.92603C15.2277 7.16513 14.6759 8.27533 13.8045 9.02427L8.45286 13.9803C8.19726 14.2171 7.80253 14.2171 7.54686 13.9803L2.20188 9.03047C1.32638 8.28147 0.771484 7.16853 0.771484 5.92603Z" stroke="url(#paint0_linear_17_1133)" stroke-linecap="round" stroke-linejoin="round"/>
<path d="M44 6.236L43.106 4.447C42.884 4.004 42.499 3.367 41.954 2.852C41.418 2.345 40.776 2 40 2C38.324 2 37 3.326 37 4.92C37 6.131 37.554 6.986 38.868 8.29C39.205 8.624 39.589 8.985 40.014 9.383C41.122 10.423 42.5 11.717 44 13.447C45.5 11.717 46.878 10.423 47.986 9.383C48.411 8.985 48.796 8.623 49.132 8.29C50.446 6.986 51 6.131 51 4.92C51 3.326 49.676 2 48 2C47.223 2 46.582 2.345 46.046 2.852C45.501 3.367 45.116 4.004 44.894 4.447L44 6.236ZM44.392 14.528C44.3438 14.585 44.2838 14.6309 44.2161 14.6623C44.1484 14.6938 44.0747 14.7101 44 14.7101C43.9253 14.7101 43.8516 14.6938 43.7839 14.6623C43.7162 14.6309 43.6562 14.585 43.608 14.528C42.007 12.626 40.558 11.266 39.365 10.147C37.3 8.208 36 6.989 36 4.92C36 2.755 37.79 1 40 1C41.6 1 42.719 2.05 43.404 3.008C43.664 3.373 43.862 3.724 44 4C44.1732 3.65467 44.3724 3.32304 44.596 3.008C45.281 2.049 46.4 1 48 1C50.21 1 52 2.755 52 4.92C52 6.989 50.7 8.208 48.635 10.147C47.442 11.267 45.993 12.628 44.392 14.528Z" fill="url(#paint1_linear_17_1133)"/>
<g clip-path="url(#clip0_17_1133)">
<path d="M77.1667 10C77.0746 10 77 9.92542 77 9.83335C77 9.74129 77.0746 9.66669 77.1667 9.66669" stroke="url(#paint2_linear_17_1133)"/>
<path d="M77.1666 10C77.2587 10 77.3333 9.92542 77.3333 9.83335C77.3333 9.74129 77.2587 9.66669 77.1666 9.66669" stroke="url(#paint3_linear_17_1133)"/>
<path d="M82.8854 10C82.7934 10 82.7188 9.92542 82.7188 9.83335C82.7188 9.74129 82.7934 9.66669 82.8854 9.66669" stroke="url(#paint4_linear_17_1133)"/>
<path d="M82.8854 10C82.9774 10 83.052 9.92542 83.052 9.83335C83.052 9.74129 82.9774 9.66669 82.8854 9.66669" stroke="url(#paint5_linear_17_1133)"/>
<path d="M77.5045 13C77.7786 12.5896 78.1496 12.2531 78.5849 12.0204C79.0201 11.7876 79.506 11.6659 79.9995 11.6659C80.493 11.6659 80.979 11.7876 81.4142 12.0204C81.8494 12.2531 82.2205 12.5896 82.4945 13" stroke="url(#paint6_linear_17_1133)" stroke-linecap="round" stroke-linejoin="round"/>
<path d="M77 6.33331V3.33331C77 2.53767 77.3161 1.7746 77.8787 1.21199C78.4413 0.649384 79.2043 0.333313 80 0.333313C80.7957 0.333313 81.5587 0.649384 82.1213 1.21199C82.6839 1.7746 83 2.53767 83 3.33331V6.33331" stroke="url(#paint7_linear_17_1133)" stroke-linecap="round" stroke-linejoin="round"/>
<path d="M86.3107 13.6666L85.7107 4.99998C85.6985 4.81923 85.6182 4.64983 85.4858 4.52607C85.3536 4.40231 85.1792 4.33341 84.998 4.33331H75C74.8188 4.33341 74.6445 4.40231 74.5122 4.52607C74.3799 4.64983 74.2995 4.81923 74.2873 4.99998L73.6873 13.6666C73.6722 13.8888 73.6647 14.1111 73.6647 14.3333C73.6647 14.6869 73.8051 15.026 74.0552 15.2761C74.3052 15.5262 74.6444 15.6666 74.998 15.6666H84.998C85.3516 15.6666 85.6908 15.5262 85.9408 15.2761C86.1909 15.026 86.3314 14.6869 86.3314 14.3333C86.3327 14.1111 86.3258 13.8888 86.3107 13.6666Z" stroke="url(#paint8_linear_17_1133)" stroke-linecap="round" stroke-linejoin="round"/>
</g>
<g clip-path="url(#clip1_17_1133)">
<path d="M113.167 10C113.075 10 113 9.92542 113 9.83335C113 9.74129 113.075 9.66669 113.167 9.66669" stroke="url(#paint9_linear_17_1133)"/>
<path d="M113.167 10C113.259 10 113.333 9.92542 113.333 9.83335C113.333 9.74129 113.259 9.66669 113.167 9.66669" stroke="url(#paint10_linear_17_1133)"/>
<path d="M118.885 10C118.793 10 118.719 9.92542 118.719 9.83335C118.719 9.74129 118.793 9.66669 118.885 9.66669" stroke="url(#paint11_linear_17_1133)"/>
<path d="M118.885 10C118.977 10 119.052 9.92542 119.052 9.83335C119.052 9.74129 118.977 9.66669 118.885 9.66669" stroke="url(#paint12_linear_17_1133)"/>
<path d="M118.494 11.6667C118.22 12.0772 117.849 12.4136 117.414 12.6464C116.979 12.8791 116.493 13.0009 115.999 13.0009C115.506 13.0009 115.02 12.8791 114.585 12.6464C114.15 12.4136 113.779 12.0772 113.505 11.6667" stroke="url(#paint13_linear_17_1133)" stroke-linecap="round" stroke-linejoin="round"/>
<path d="M113 6.33331V3.33331C113 2.53767 113.316 1.7746 113.879 1.21199C114.441 0.649384 115.204 0.333313 116 0.333313C116.796 0.333313 117.559 0.649384 118.121 1.21199C118.684 1.7746 119 2.53767 119 3.33331V6.33331" stroke="url(#paint14_linear_17_1133)" stroke-linecap="round" stroke-linejoin="round"/>
<path d="M122.311 13.6666L121.711 4.99998C121.698 4.81923 121.618 4.64983 121.486 4.52607C121.354 4.40231 121.179 4.33341 120.998 4.33331H111C110.819 4.33341 110.644 4.40231 110.512 4.52607C110.38 4.64983 110.3 4.81923 110.287 4.99998L109.687 13.6666C109.672 13.8888 109.665 14.1111 109.665 14.3333C109.665 14.6869 109.805 15.026 110.055 15.2761C110.305 15.5262 110.644 15.6666 110.998 15.6666H120.998C121.352 15.6666 121.691 15.5262 121.941 15.2761C122.191 15.026 122.331 14.6869 122.331 14.3333C122.333 14.1111 122.326 13.8888 122.311 13.6666Z" stroke="url(#paint15_linear_17_1133)" stroke-linecap="round" stroke-linejoin="round"/>
</g>
<path d="M146.667 13.5C146.676 12.7383 146.834 11.9858 147.133 11.2853C147.46 10.6313 148.826 10.178 150.541 9.54331C151.007 9.37131 150.928 8.16065 150.723 7.93465C150.395 7.58065 150.146 7.16134 149.992 6.70426C149.838 6.24718 149.783 5.7627 149.829 5.28265C149.8 4.97701 149.834 4.6686 149.929 4.37663C150.024 4.08467 150.178 3.8154 150.382 3.58561C150.585 3.35582 150.834 3.17043 151.112 3.041C151.391 2.91157 151.693 2.84087 152 2.83331C152.307 2.84087 152.609 2.91157 152.887 3.041C153.166 3.17043 153.415 3.35582 153.618 3.58561C153.822 3.8154 153.976 4.08467 154.071 4.37663C154.166 4.6686 154.2 4.97701 154.171 5.28265C154.217 5.76229 154.162 6.24641 154.009 6.70323C153.855 7.16005 153.607 7.57925 153.28 7.93331C153.075 8.15931 152.999 9.36998 153.462 9.54198C155.177 10.1766 156.543 10.63 156.869 11.284C157.168 11.9851 157.325 12.738 157.333 13.5H146.667Z" stroke="url(#paint16_linear_17_1133)" stroke-linecap="round" stroke-linejoin="round"/>
<g clip-path="url(#clip2_17_1133)">
<path d="M187.657 6.24703C187.767 5.91703 188.233 5.91703 188.343 6.24703L188.988 8.18403C189.13 8.60983 189.369 8.99671 189.687 9.31401C190.004 9.6313 190.391 9.87029 190.817 10.012L192.753 10.657C193.083 10.767 193.083 11.233 192.753 11.343L190.816 11.988C190.39 12.13 190.003 12.3692 189.686 12.6867C189.369 13.0041 189.13 13.3911 188.988 13.817L188.343 15.753C188.319 15.8253 188.273 15.8882 188.212 15.9328C188.15 15.9774 188.076 16.0015 188 16.0015C187.924 16.0015 187.85 15.9774 187.788 15.9328C187.727 15.8882 187.681 15.8253 187.657 15.753L187.012 13.816C186.87 13.3903 186.631 13.0035 186.314 12.6862C185.997 12.3689 185.61 12.1299 185.184 11.988L183.247 11.343C183.175 11.3193 183.112 11.2734 183.067 11.2118C183.023 11.1502 182.999 11.0761 182.999 11C182.999 10.924 183.023 10.8499 183.067 10.7883C183.112 10.7267 183.175 10.6807 183.247 10.657L185.184 10.012C185.61 9.87016 185.997 9.63111 186.314 9.31382C186.631 8.99653 186.87 8.60972 187.012 8.18403L187.657 6.24703ZM183.794 1.14803C183.808 1.10472 183.836 1.06704 183.873 1.04033C183.91 1.01362 183.954 0.999241 184 0.999241C184.046 0.999241 184.09 1.01362 184.127 1.04033C184.164 1.06704 184.192 1.10472 184.206 1.14803L184.593 2.31003C184.766 2.82803 185.172 3.23403 185.69 3.40703L186.852 3.79403C186.895 3.80837 186.933 3.83599 186.96 3.87297C186.986 3.90995 187.001 3.95441 187.001 4.00003C187.001 4.04565 186.986 4.0901 186.96 4.12709C186.933 4.16407 186.895 4.19169 186.852 4.20603L185.69 4.59303C185.434 4.67787 185.202 4.82122 185.012 5.01167C184.821 5.20212 184.678 5.4344 184.593 5.69003L184.206 6.85203C184.192 6.89533 184.164 6.93302 184.127 6.95973C184.09 6.98644 184.046 7.00082 184 7.00082C183.954 7.00082 183.91 6.98644 183.873 6.95973C183.836 6.93302 183.808 6.89533 183.794 6.85203L183.407 5.69003C183.322 5.4344 183.179 5.20212 182.988 5.01167C182.798 4.82122 182.566 4.67787 182.31 4.59303L181.148 4.20603C181.105 4.19169 181.067 4.16407 181.04 4.12709C181.014 4.0901 180.999 4.04565 180.999 4.00003C180.999 3.95441 181.014 3.90995 181.04 3.87297C181.067 3.83599 181.105 3.80837 181.148 3.79403L182.31 3.40703C182.566 3.32219 182.798 3.17884 182.988 2.98839C183.179 2.79794 183.322 2.56565 183.407 2.31003L183.794 1.14803ZM190.863 0.0990285C190.873 0.0705548 190.891 0.0458644 190.916 0.0283901C190.941 0.0109158 190.97 0.00152588 191 0.00152588C191.03 0.00152588 191.06 0.0109158 191.084 0.0283901C191.109 0.0458644 191.127 0.0705548 191.137 0.0990285L191.395 0.873029C191.51 1.21903 191.781 1.49003 192.127 1.60503L192.901 1.86303C192.93 1.8729 192.954 1.8914 192.972 1.91595C192.989 1.9405 192.999 1.96989 192.999 2.00003C192.999 2.03016 192.989 2.05955 192.972 2.08411C192.954 2.10866 192.93 2.12716 192.901 2.13703L192.127 2.39503C191.957 2.45203 191.802 2.54782 191.675 2.67484C191.548 2.80187 191.452 2.95667 191.395 3.12703L191.137 3.90103C191.127 3.9295 191.109 3.95419 191.084 3.97167C191.06 3.98914 191.03 3.99853 191 3.99853C190.97 3.99853 190.941 3.98914 190.916 3.97167C190.891 3.95419 190.873 3.9295 190.863 3.90103L190.605 3.12703C190.548 2.95667 190.452 2.80187 190.325 2.67484C190.198 2.54782 190.043 2.45203 189.873 2.39503L189.1 2.13703C189.072 2.12716 189.047 2.10866 189.029 2.08411C189.012 2.05955 189.003 2.03016 189.003 2.00003C189.003 1.96989 189.012 1.9405 189.029 1.91595C189.047 1.8914 189.072 1.8729 189.1 1.86303L189.874 1.60503C190.22 1.49003 190.491 1.21903 190.606 0.873029L190.863 0.0990285Z" fill="url(#paint17_linear_17_1133)"/>
</g>
<path d="M221.338 1.59C220.386 1.85232 219.44 2.13774 218.501 2.446C218.415 2.47366 218.339 2.52491 218.281 2.59388C218.223 2.66285 218.186 2.74676 218.173 2.836C217.619 6.993 218.899 10.026 220.426 12.024C221.072 12.8786 221.843 13.6314 222.713 14.257C223.059 14.501 223.365 14.677 223.606 14.79C223.726 14.8467 223.824 14.886 223.899 14.908C223.932 14.9181 223.966 14.9264 224 14.933C224.034 14.9264 224.067 14.918 224.1 14.908C224.176 14.8853 224.274 14.846 224.394 14.79C224.634 14.677 224.941 14.5 225.287 14.257C226.157 13.6314 226.928 12.8786 227.574 12.024C229.101 10.027 230.381 6.993 229.827 2.836C229.814 2.74676 229.777 2.66285 229.719 2.59388C229.661 2.52491 229.585 2.47366 229.499 2.446C228.848 2.233 227.749 1.886 226.662 1.591C225.552 1.29 224.531 1.067 224 1.067C223.47 1.067 222.448 1.289 221.338 1.59ZM221.072 0.56C222.157 0.265 223.31 0 224 0C224.69 0 225.843 0.265 226.928 0.56C228.038 0.86 229.157 1.215 229.815 1.43C230.09 1.52085 230.334 1.68747 230.519 1.9107C230.703 2.13394 230.821 2.40474 230.859 2.692C231.455 7.169 230.072 10.487 228.394 12.682C227.682 13.6207 226.834 14.4476 225.877 15.135C225.547 15.3734 225.196 15.5826 224.829 15.76C224.549 15.892 224.248 16 224 16C223.752 16 223.452 15.892 223.171 15.76C222.804 15.5826 222.453 15.3734 222.123 15.135C221.166 14.4476 220.318 13.6207 219.606 12.682C217.928 10.487 216.545 7.169 217.141 2.692C217.179 2.40474 217.297 2.13394 217.481 1.9107C217.666 1.68747 217.91 1.52085 218.185 1.43C219.14 1.11701 220.103 0.826926 221.072 0.56Z" fill="url(#paint18_linear_17_1133)"/>
<g clip-path="url(#clip3_17_1133)">
<path d="M265.5 1.00001C265.102 1.00001 264.721 1.15804 264.439 1.43935C264.158 1.72065 264 2.10218 264 2.50001C264 2.89783 264.158 3.27936 264.439 3.56067C264.721 3.84197 265.102 4.00001 265.5 4.00001C265.898 4.00001 266.279 3.84197 266.561 3.56067C266.842 3.27936 267 2.89783 267 2.50001C267 2.10218 266.842 1.72065 266.561 1.43935C266.279 1.15804 265.898 1.00001 265.5 1.00001ZM263 2.50001C263 1.91344 263.206 1.34552 263.582 0.89562C263.959 0.445715 264.481 0.142472 265.059 0.038946C265.636 -0.0645804 266.232 0.0382022 266.741 0.329311C267.25 0.62042 267.641 1.08132 267.844 1.63137C268.048 2.18142 268.052 2.78559 267.855 3.33818C267.658 3.89077 267.274 4.3566 266.768 4.65415C266.263 4.95171 265.669 5.06204 265.09 4.96586C264.511 4.86968 263.985 4.5731 263.603 4.12801L256.885 7.24801C257.039 7.73746 257.039 8.26256 256.885 8.75201L263.603 11.872C264.007 11.4023 264.571 11.0993 265.185 11.0217C265.8 10.944 266.421 11.0973 266.929 11.4517C267.437 11.8062 267.795 12.3366 267.935 12.9401C268.074 13.5437 267.984 14.1775 267.683 14.7186C267.381 15.2597 266.89 15.6696 266.303 15.869C265.717 16.0683 265.077 16.0428 264.508 15.7974C263.94 15.552 263.482 15.1043 263.225 14.5409C262.967 13.9775 262.928 13.3386 263.115 12.748L256.397 9.62801C256.064 10.0156 255.621 10.292 255.127 10.4201C254.632 10.5482 254.111 10.5218 253.632 10.3445C253.153 10.1672 252.74 9.84744 252.448 9.4283C252.156 9.00915 252 8.5107 252 8.00001C252 7.48931 252.156 6.99087 252.448 6.57172C252.74 6.15258 253.153 5.83284 253.632 5.65553C254.111 5.47822 254.632 5.45183 255.127 5.57992C255.621 5.70801 256.064 5.98444 256.397 6.37201L263.115 3.25201C263.039 3.00868 263 2.75507 263 2.50001ZM254.5 6.50001C254.102 6.50001 253.721 6.65804 253.439 6.93935C253.158 7.22065 253 7.60218 253 8.00001C253 8.39783 253.158 8.77936 253.439 9.06067C253.721 9.34197 254.102 9.50001 254.5 9.50001C254.898 9.50001 255.279 9.34197 255.561 9.06067C255.842 8.77936 256 8.39783 256 8.00001C256 7.60218 255.842 7.22065 255.561 6.93935C255.279 6.65804 254.898 6.50001 254.5 6.50001ZM265.5 12C265.102 12 264.721 12.158 264.439 12.4393C264.158 12.7207 264 13.1022 264 13.5C264 13.8978 264.158 14.2794 264.439 14.5607C264.721 14.842 265.102 15 265.5 15C265.898 15 266.279 14.842 266.561 14.5607C266.842 14.2794 267 13.8978 267 13.5C267 13.1022 266.842 12.7207 266.561 12.4393C266.279 12.158 265.898 12 265.5 12Z" fill="url(#paint19_linear_17_1133)"/>
</g>
<g clip-path="url(#clip4_17_1133)">
<path d="M11.742 46.344C12.7103 45.0227 13.144 43.3845 12.9563 41.7571C12.7686 40.1298 11.9734 38.6333 10.7297 37.5671C9.4861 36.5009 7.88573 35.9436 6.24882 36.0067C4.61191 36.0697 3.05917 36.7485 1.90125 37.9073C0.743334 39.066 0.0656328 40.6193 0.00373101 42.2562C-0.0581708 43.8932 0.500292 45.4931 1.56739 46.736C2.63449 47.9789 4.13153 48.773 5.759 48.9596C7.38648 49.1461 9.02436 48.7112 10.345 47.742H10.344C10.3733 47.782 10.406 47.8203 10.442 47.857L14.292 51.707C14.4795 51.8946 14.7339 52.0001 14.9991 52.0002C15.2644 52.0003 15.5188 51.895 15.7065 51.7075C15.8941 51.52 15.9996 51.2656 15.9997 51.0003C15.9998 50.7351 15.8945 50.4806 15.707 50.293L11.857 46.443C11.8212 46.4068 11.7828 46.3743 11.742 46.344ZM12 42.5C12 43.2222 11.8577 43.9374 11.5813 44.6047C11.3049 45.272 10.8998 45.8783 10.3891 46.3891C9.87835 46.8998 9.27203 47.3049 8.60474 47.5813C7.93745 47.8577 7.22225 48 6.49998 48C5.77771 48 5.06251 47.8577 4.39522 47.5813C3.72793 47.3049 3.12162 46.8998 2.61089 46.3891C2.10017 45.8783 1.69505 45.272 1.41864 44.6047C1.14224 43.9374 0.999982 43.2222 0.999982 42.5C0.999982 41.0413 1.57945 39.6423 2.6109 38.6109C3.64235 37.5794 5.04129 37 6.49998 37C7.95867 37 9.35762 37.5794 10.3891 38.6109C11.4205 39.6423 12 41.0413 12 42.5Z" fill="url(#paint20_linear_17_1133)"/>
</g>
<g clip-path="url(#clip5_17_1133)">
<path d="M44.05 45.6C44.386 45.6 44.554 45.36 44.604 44.973C44.644 44.439 44.802 44.158 45.451 43.713C46.124 43.238 46.5 42.623 46.5 41.727C46.5 40.402 45.58 39.5 44.238 39.5C43.218 39.5 42.446 39.992 42.138 40.79C42.0444 41.0079 41.9974 41.2429 42 41.48C42 41.873 42.203 42.12 42.545 42.12C42.817 42.12 43 41.973 43.109 41.61C43.267 41.018 43.634 40.695 44.183 40.695C44.793 40.695 45.213 41.141 45.213 41.779C45.213 42.342 45.005 42.664 44.391 43.104C43.772 43.537 43.465 44.018 43.465 44.744V44.855C43.465 45.283 43.673 45.6 44.05 45.6Z" fill="url(#paint21_linear_17_1133)"/>
<path d="M46.273 38.513L45.352 37.569L46.067 36.871L46.689 37.508L47.5791 37.497C47.9643 37.4924 48.3466 37.5649 48.7034 37.7103C49.0602 37.8556 49.3844 38.0708 49.6568 38.3432C49.9292 38.6157 50.1444 38.9398 50.2898 39.2967C50.4351 39.6535 50.5076 40.0357 50.503 40.421L50.493 41.311L51.129 41.933C51.4045 42.2022 51.6234 42.5237 51.7728 42.8786C51.9223 43.2336 51.9992 43.6149 51.9992 44C51.9992 44.3851 51.9223 44.7664 51.7728 45.1213C51.6234 45.4763 51.4045 45.7978 51.129 46.067L50.492 46.689L50.503 47.579C50.5076 47.9642 50.4351 48.3465 50.2898 48.7033C50.1444 49.0601 49.9292 49.3843 49.6568 49.6567C49.3844 49.9292 49.0602 50.1444 48.7034 50.2897C48.3466 50.435 47.9643 50.5075 47.5791 50.503L46.689 50.493L46.067 51.129C45.7979 51.4044 45.4764 51.6233 45.1214 51.7728C44.7664 51.9222 44.3852 51.9992 44 51.9992C43.6149 51.9992 43.2337 51.9222 42.8787 51.7728C42.5237 51.6233 42.2022 51.4044 41.933 51.129L41.311 50.492L40.421 50.503C40.0358 50.5075 39.6535 50.435 39.2967 50.2897C38.9399 50.1444 38.6157 49.9292 38.3433 49.6567C38.0709 49.3843 37.8557 49.0601 37.7103 48.7033C37.565 48.3465 37.4925 47.9642 37.497 47.579L37.507 46.689L36.871 46.067C36.5956 45.7978 36.3767 45.4763 36.2273 45.1213C36.0778 44.7664 36.0009 44.3851 36.0009 44C36.0009 43.6149 36.0778 43.2336 36.2273 42.8786C36.3767 42.5237 36.5956 42.2022 36.871 41.933L37.508 41.311L37.497 40.421C37.4925 40.0357 37.565 39.6535 37.7103 39.2967C37.8557 38.9398 38.0709 38.6157 38.3433 38.3432C38.6157 38.0708 38.9399 37.8556 39.2967 37.7103C39.6535 37.5649 40.0358 37.4924 40.421 37.497L41.311 37.507L41.933 36.871C42.2022 36.5955 42.5237 36.3766 42.8787 36.2272C43.2337 36.0778 43.6149 36.0008 44 36.0008C44.3852 36.0008 44.7664 36.0778 45.1214 36.2272C45.4764 36.3766 45.7979 36.5955 46.067 36.871L45.352 37.569C45.176 37.3888 44.9657 37.2456 44.7335 37.1478C44.5014 37.05 44.252 36.9997 44 36.9997C43.7481 36.9997 43.4987 37.05 43.2666 37.1478C43.0344 37.2456 42.8241 37.3888 42.648 37.569L41.728 38.513L40.408 38.497C40.1562 38.4942 39.9064 38.5417 39.6732 38.6368C39.44 38.7319 39.2282 38.8727 39.0501 39.0508C38.8721 39.2289 38.7315 39.4408 38.6365 39.6741C38.5415 39.9073 38.4941 40.1572 38.497 40.409L38.513 41.727L37.569 42.648C37.3888 42.824 37.2456 43.0343 37.1479 43.2665C37.0501 43.4987 36.9997 43.7481 36.9997 44C36.9997 44.2519 37.0501 44.5013 37.1479 44.7335C37.2456 44.9657 37.3888 45.176 37.569 45.352L38.513 46.272L38.497 47.592C38.4942 47.8438 38.5418 48.0937 38.6369 48.3268C38.732 48.56 38.8727 48.7719 39.0508 48.9499C39.229 49.1279 39.4409 49.2686 39.6741 49.3635C39.9074 49.4585 40.1572 49.5059 40.409 49.503L41.727 49.487L42.648 50.431C42.8241 50.6112 43.0344 50.7544 43.2666 50.8522C43.4987 50.9499 43.7481 51.0003 44 51.0003C44.252 51.0003 44.5014 50.9499 44.7335 50.8522C44.9657 50.7544 45.176 50.6112 45.352 50.431L46.272 49.487L47.592 49.503C47.8439 49.5058 48.0937 49.4583 48.3269 49.3632C48.5601 49.2681 48.7719 49.1273 48.95 48.9492C49.128 48.7711 49.2686 48.5592 49.3636 48.3259C49.4586 48.0927 49.506 47.8428 49.503 47.591L49.4871 46.273L50.431 45.352C50.6113 45.176 50.7545 44.9657 50.8522 44.7335C50.95 44.5013 51.0004 44.2519 51.0004 44C51.0004 43.7481 50.95 43.4987 50.8522 43.2665C50.7545 43.0343 50.6113 42.824 50.431 42.648L49.4871 41.728L49.503 40.408C49.5059 40.1562 49.4583 39.9063 49.3632 39.6731C49.2681 39.4399 49.1274 39.2281 48.9493 39.0501C48.7711 38.872 48.5592 38.7314 48.326 38.6364C48.0927 38.5415 47.8429 38.494 47.591 38.497L46.273 38.513Z" fill="url(#paint22_linear_17_1133)"/>
<path d="M43.001 47C43.001 46.7348 43.1063 46.4804 43.2939 46.2929C43.4814 46.1054 43.7358 46 44.001 46C44.2662 46 44.5205 46.1054 44.7081 46.2929C44.8956 46.4804 45.001 46.7348 45.001 47C45.001 47.2652 44.8956 47.5196 44.7081 47.7071C44.5205 47.8946 44.2662 48 44.001 48C43.7358 48 43.4814 47.8946 43.2939 47.7071C43.1063 47.5196 43.001 47.2652 43.001 47Z" fill="url(#paint23_linear_17_1133)"/>
</g>
<path fill-rule="evenodd" clip-rule="evenodd" d="M74.5 48C74.5 47.8674 74.5527 47.7402 74.6464 47.6464C74.7402 47.5527 74.8674 47.5 75 47.5H85C85.1326 47.5 85.2598 47.5527 85.3536 47.6464C85.4473 47.7402 85.5 47.8674 85.5 48C85.5 48.1326 85.4473 48.2598 85.3536 48.3536C85.2598 48.4473 85.1326 48.5 85 48.5H75C74.8674 48.5 74.7402 48.4473 74.6464 48.3536C74.5527 48.2598 74.5 48.1326 74.5 48ZM74.5 44C74.5 43.8674 74.5527 43.7402 74.6464 43.6464C74.7402 43.5527 74.8674 43.5 75 43.5H85C85.1326 43.5 85.2598 43.5527 85.3536 43.6464C85.4473 43.7402 85.5 43.8674 85.5 44C85.5 44.1326 85.4473 44.2598 85.3536 44.3536C85.2598 44.4473 85.1326 44.5 85 44.5H75C74.8674 44.5 74.7402 44.4473 74.6464 44.3536C74.5527 44.2598 74.5 44.1326 74.5 44ZM74.5 40C74.5 39.8674 74.5527 39.7402 74.6464 39.6464C74.7402 39.5527 74.8674 39.5 75 39.5H85C85.1326 39.5 85.2598 39.5527 85.3536 39.6464C85.4473 39.7402 85.5 39.8674 85.5 40C85.5 40.1326 85.4473 40.2598 85.3536 40.3536C85.2598 40.4473 85.1326 40.5 85 40.5H75C74.8674 40.5 74.7402 40.4473 74.6464 40.3536C74.5527 40.2598 74.5 40.1326 74.5 40Z" fill="url(#paint24_linear_17_1133)"/>
<path d="M109 38.5C109 38.1022 109.158 37.7206 109.439 37.4393C109.721 37.158 110.102 37 110.5 37H113.5C113.898 37 114.279 37.158 114.561 37.4393C114.842 37.7206 115 38.1022 115 38.5V41.5C115 41.8978 114.842 42.2794 114.561 42.5607C114.279 42.842 113.898 43 113.5 43H110.5C110.102 43 109.721 42.842 109.439 42.5607C109.158 42.2794 109 41.8978 109 41.5V38.5ZM110.5 38C110.367 38 110.24 38.0527 110.146 38.1464C110.053 38.2402 110 38.3674 110 38.5V41.5C110 41.6326 110.053 41.7598 110.146 41.8536C110.24 41.9473 110.367 42 110.5 42H113.5C113.633 42 113.76 41.9473 113.854 41.8536C113.947 41.7598 114 41.6326 114 41.5V38.5C114 38.3674 113.947 38.2402 113.854 38.1464C113.76 38.0527 113.633 38 113.5 38H110.5ZM117 38.5C117 38.1022 117.158 37.7206 117.439 37.4393C117.721 37.158 118.102 37 118.5 37H121.5C121.898 37 122.279 37.158 122.561 37.4393C122.842 37.7206 123 38.1022 123 38.5V41.5C123 41.8978 122.842 42.2794 122.561 42.5607C122.279 42.842 121.898 43 121.5 43H118.5C118.102 43 117.721 42.842 117.439 42.5607C117.158 42.2794 117 41.8978 117 41.5V38.5ZM118.5 38C118.367 38 118.24 38.0527 118.146 38.1464C118.053 38.2402 118 38.3674 118 38.5V41.5C118 41.6326 118.053 41.7598 118.146 41.8536C118.24 41.9473 118.367 42 118.5 42H121.5C121.633 42 121.76 41.9473 121.854 41.8536C121.947 41.7598 122 41.6326 122 41.5V38.5C122 38.3674 121.947 38.2402 121.854 38.1464C121.76 38.0527 121.633 38 121.5 38H118.5ZM109 46.5C109 46.1022 109.158 45.7206 109.439 45.4393C109.721 45.158 110.102 45 110.5 45H113.5C113.898 45 114.279 45.158 114.561 45.4393C114.842 45.7206 115 46.1022 115 46.5V49.5C115 49.8978 114.842 50.2794 114.561 50.5607C114.279 50.842 113.898 51 113.5 51H110.5C110.102 51 109.721 50.842 109.439 50.5607C109.158 50.2794 109 49.8978 109 49.5V46.5ZM110.5 46C110.367 46 110.24 46.0527 110.146 46.1464C110.053 46.2402 110 46.3674 110 46.5V49.5C110 49.6326 110.053 49.7598 110.146 49.8536C110.24 49.9473 110.367 50 110.5 50H113.5C113.633 50 113.76 49.9473 113.854 49.8536C113.947 49.7598 114 49.6326 114 49.5V46.5C114 46.3674 113.947 46.2402 113.854 46.1464C113.76 46.0527 113.633 46 113.5 46H110.5ZM117 46.5C117 46.1022 117.158 45.7206 117.439 45.4393C117.721 45.158 118.102 45 118.5 45H121.5C121.898 45 122.279 45.158 122.561 45.4393C122.842 45.7206 123 46.1022 123 46.5V49.5C123 49.8978 122.842 50.2794 122.561 50.5607C122.279 50.842 121.898 51 121.5 51H118.5C118.102 51 117.721 50.842 117.439 50.5607C117.158 50.2794 117 49.8978 117 49.5V46.5ZM118.5 46C118.367 46 118.24 46.0527 118.146 46.1464C118.053 46.2402 118 46.3674 118 46.5V49.5C118 49.6326 118.053 49.7598 118.146 49.8536C118.24 49.9473 118.367 50 118.5 50H121.5C121.633 50 121.76 49.9473 121.854 49.8536C121.947 49.7598 122 49.6326 122 49.5V46.5C122 46.3674 121.947 46.2402 121.854 46.1464C121.76 46.0527 121.633 46 121.5 46H118.5Z" fill="url(#paint25_linear_17_1133)"/>
<path d="M150 46.5C150 46.3674 150.053 46.2402 150.146 46.1464C150.24 46.0527 150.367 46 150.5 46H153.5C153.633 46 153.76 46.0527 153.854 46.1464C153.947 46.2402 154 46.3674 154 46.5C154 46.6326 153.947 46.7598 153.854 46.8536C153.76 46.9473 153.633 47 153.5 47H150.5C150.367 47 150.24 46.9473 150.146 46.8536C150.053 46.7598 150 46.6326 150 46.5ZM148 43.5C148 43.3674 148.053 43.2402 148.146 43.1464C148.24 43.0527 148.367 43 148.5 43H155.5C155.633 43 155.76 43.0527 155.854 43.1464C155.947 43.2402 156 43.3674 156 43.5C156 43.6326 155.947 43.7598 155.854 43.8536C155.76 43.9473 155.633 44 155.5 44H148.5C148.367 44 148.24 43.9473 148.146 43.8536C148.053 43.7598 148 43.6326 148 43.5ZM146 40.5C146 40.3674 146.053 40.2402 146.146 40.1464C146.24 40.0527 146.367 40 146.5 40H157.5C157.633 40 157.76 40.0527 157.854 40.1464C157.947 40.2402 158 40.3674 158 40.5C158 40.6326 157.947 40.7598 157.854 40.8536C157.76 40.9473 157.633 41 157.5 41H146.5C146.367 41 146.24 40.9473 146.146 40.8536C146.053 40.7598 146 40.6326 146 40.5Z" fill="url(#paint26_linear_17_1133)"/>
<path fill-rule="evenodd" clip-rule="evenodd" d="M181.553 42.776C181.612 42.6578 181.716 42.5679 181.842 42.5261C181.967 42.4843 182.104 42.494 182.223 42.553L188 45.44L193.776 42.552C193.835 42.522 193.899 42.5039 193.965 42.4988C194.03 42.4937 194.097 42.5017 194.159 42.5222C194.222 42.5428 194.28 42.5756 194.33 42.6187C194.38 42.6618 194.421 42.7143 194.45 42.7733C194.48 42.8323 194.498 42.8966 194.502 42.9624C194.507 43.0282 194.498 43.0943 194.477 43.1568C194.456 43.2194 194.423 43.2771 194.38 43.3268C194.336 43.3764 194.283 43.4169 194.224 43.446L188.224 46.446C188.154 46.4809 188.078 46.499 188 46.499C187.922 46.499 187.845 46.4809 187.776 46.446L181.776 43.446C181.658 43.3866 181.568 43.2827 181.526 43.1571C181.484 43.0315 181.494 42.8945 181.553 42.776Z" fill="url(#paint27_linear_17_1133)"/>
<path fill-rule="evenodd" clip-rule="evenodd" d="M223.776 41.553C223.846 41.5181 223.922 41.5 224 41.5C224.078 41.5 224.155 41.5181 224.224 41.553L230.224 44.553C230.283 44.5821 230.336 44.6226 230.38 44.6723C230.423 44.7219 230.456 44.7797 230.477 44.8422C230.498 44.9047 230.507 44.9708 230.502 45.0366C230.498 45.1025 230.48 45.1667 230.451 45.2257C230.421 45.2847 230.38 45.3373 230.33 45.3804C230.28 45.4235 230.222 45.4562 230.159 45.4768C230.097 45.4974 230.031 45.5053 229.965 45.5002C229.899 45.4951 229.835 45.477 229.776 45.447L224 42.56L218.224 45.447C218.165 45.477 218.101 45.4951 218.035 45.5002C217.97 45.5053 217.903 45.4974 217.841 45.4768C217.778 45.4562 217.72 45.4235 217.67 45.3804C217.62 45.3373 217.579 45.2847 217.55 45.2257C217.52 45.1667 217.502 45.1025 217.498 45.0366C217.493 44.9708 217.502 44.9047 217.523 44.8422C217.544 44.7797 217.577 44.7219 217.62 44.6723C217.664 44.6226 217.717 44.5821 217.776 44.553L223.776 41.553Z" fill="url(#paint28_linear_17_1133)"/>
<path d="M254.5 44C254.5 43.0345 254.754 42.0859 255.237 41.2497C255.719 40.4135 256.414 39.719 257.25 39.2362C258.086 38.7534 259.034 38.4992 260 38.4991C260.965 38.4991 261.914 38.7532 262.75 39.236C262.865 39.3012 263.001 39.3185 263.128 39.2839C263.256 39.2493 263.364 39.1657 263.43 39.0513C263.496 38.937 263.514 38.8012 263.481 38.6735C263.447 38.5459 263.364 38.4368 263.25 38.37C262.011 37.6546 260.57 37.368 259.152 37.5547C257.733 37.7415 256.416 38.3911 255.404 39.4028C254.392 40.4145 253.742 41.7318 253.556 43.1504C253.369 44.569 253.655 46.0096 254.371 47.2488C255.086 48.488 256.19 49.4565 257.512 50.0042C258.834 50.5518 260.3 50.648 261.682 50.2778C263.064 49.9076 264.285 49.0917 265.156 47.9567C266.028 46.8216 266.5 45.4308 266.5 44C266.5 43.8674 266.447 43.7402 266.354 43.6464C266.26 43.5527 266.133 43.5 266 43.5C265.867 43.5 265.74 43.5527 265.646 43.6464C265.553 43.7402 265.5 43.8674 265.5 44C265.5 45.4587 264.921 46.8576 263.889 47.8891C262.858 48.9205 261.459 49.5 260 49.5C258.541 49.5 257.142 48.9205 256.111 47.8891C255.079 46.8576 254.5 45.4587 254.5 44Z" fill="url(#paint29_linear_17_1133)"/>
<path d="M267.354 39.354C267.401 39.3075 267.437 39.2523 267.463 39.1916C267.488 39.1309 267.501 39.0658 267.501 39C267.501 38.9343 267.488 38.8692 267.463 38.8084C267.437 38.7477 267.401 38.6925 267.354 38.646C267.308 38.5995 267.252 38.5627 267.192 38.5375C267.131 38.5123 267.066 38.4994 267 38.4994C266.934 38.4994 266.869 38.5123 266.808 38.5375C266.748 38.5627 266.693 38.5995 266.646 38.646L260 45.293L257.354 42.646C257.308 42.5995 257.252 42.5627 257.192 42.5375C257.131 42.5123 257.066 42.4994 257 42.4994C256.934 42.4994 256.869 42.5123 256.808 42.5375C256.748 42.5627 256.693 42.5995 256.646 42.646C256.6 42.6925 256.563 42.7477 256.537 42.8084C256.512 42.8692 256.499 42.9343 256.499 43C256.499 43.0658 256.512 43.1309 256.537 43.1916C256.563 43.2523 256.6 43.3075 256.646 43.354L259.646 46.354C259.692 46.4006 259.748 46.4375 259.808 46.4627C259.869 46.4879 259.934 46.5009 260 46.5009C260.066 46.5009 260.131 46.4879 260.192 46.4627C260.252 46.4375 260.308 46.4006 260.354 46.354L267.354 39.354Z" fill="url(#paint30_linear_17_1133)"/>
<path d="M5 80C5 80.2652 4.89464 80.5196 4.70711 80.7071C4.51957 80.8946 4.26522 81 4 81C3.73478 81 3.48043 80.8946 3.29289 80.7071C3.10536 80.5196 3 80.2652 3 80C3 79.7348 3.10536 79.4804 3.29289 79.2929C3.48043 79.1054 3.73478 79 4 79C4.26522 79 4.51957 79.1054 4.70711 79.2929C4.89464 79.4804 5 79.7348 5 80ZM9 80C9 80.2652 8.89464 80.5196 8.70711 80.7071C8.51957 80.8946 8.26522 81 8 81C7.73478 81 7.48043 80.8946 7.29289 80.7071C7.10536 80.5196 7 80.2652 7 80C7 79.7348 7.10536 79.4804 7.29289 79.2929C7.48043 79.1054 7.73478 79 8 79C8.26522 79 8.51957 79.1054 8.70711 79.2929C8.89464 79.4804 9 79.7348 9 80ZM12 81C12.2652 81 12.5196 80.8946 12.7071 80.7071C12.8946 80.5196 13 80.2652 13 80C13 79.7348 12.8946 79.4804 12.7071 79.2929C12.5196 79.1054 12.2652 79 12 79C11.7348 79 11.4804 79.1054 11.2929 79.2929C11.1054 79.4804 11 79.7348 11 80C11 80.2652 11.1054 80.5196 11.2929 80.7071C11.4804 80.8946 11.7348 81 12 81Z" fill="url(#paint31_linear_17_1133)"/>
<path d="M2.165 87.803L2.185 87.799C4.015 87.436 5.133 86.957 5.653 86.694C6.41845 86.8989 7.20761 87.0018 8 87C12.418 87 16 83.866 16 80C16 76.134 12.418 73 8 73C3.582 73 0 76.134 0 80C0 81.76 0.743 83.37 1.97 84.6C1.88448 85.3902 1.70866 86.1679 1.446 86.918L1.443 86.929C1.36827 87.1438 1.2869 87.3562 1.199 87.566C1.12 87.752 1.273 87.96 1.472 87.928C1.70365 87.89 1.93468 87.8484 2.165 87.803ZM2.965 84.695C2.97901 84.5486 2.96055 84.4009 2.91094 84.2625C2.86133 84.124 2.7818 83.9982 2.678 83.894C1.618 82.83 1 81.468 1 80C1 76.808 4.004 74 8 74C11.996 74 15 76.808 15 80C15 83.192 11.996 86 8 86C7.29506 86.0017 6.59298 85.9103 5.912 85.728C5.67398 85.6642 5.42079 85.6906 5.201 85.802C4.814 85.998 3.961 86.372 2.567 86.695C2.76131 86.0421 2.89455 85.3726 2.965 84.695Z" fill="url(#paint32_linear_17_1133)"/>
<g clip-path="url(#clip6_17_1133)">
<path fill-rule="evenodd" clip-rule="evenodd" d="M42.5 84C43.2223 84 43.9375 83.8577 44.6048 83.5813C45.272 83.3049 45.8784 82.8998 46.3891 82.3891C46.8998 81.8784 47.3049 81.272 47.5813 80.6048C47.8577 79.9375 48 79.2223 48 78.5C48 77.7777 47.8577 77.0625 47.5813 76.3952C47.3049 75.728 46.8998 75.1216 46.3891 74.6109C45.8784 74.1002 45.272 73.6951 44.6048 73.4187C43.9375 73.1423 43.2223 73 42.5 73C41.0413 73 39.6424 73.5795 38.6109 74.6109C37.5795 75.6424 37 77.0413 37 78.5C37 79.9587 37.5795 81.3576 38.6109 82.3891C39.6424 83.4205 41.0413 84 42.5 84ZM49 78.5C49 80.2239 48.3152 81.8772 47.0962 83.0962C45.8772 84.3152 44.2239 85 42.5 85C40.7761 85 39.1228 84.3152 37.9038 83.0962C36.6848 81.8772 36 80.2239 36 78.5C36 76.7761 36.6848 75.1228 37.9038 73.9038C39.1228 72.6848 40.7761 72 42.5 72C44.2239 72 45.8772 72.6848 47.0962 73.9038C48.3152 75.1228 49 76.7761 49 78.5Z" fill="url(#paint33_linear_17_1133)"/>
<path d="M46.344 83.742C46.3733 83.782 46.406 83.8204 46.442 83.857L50.292 87.707C50.4795 87.8947 50.7339 88.0001 50.9991 88.0002C51.2644 88.0003 51.5189 87.895 51.7065 87.7075C51.8941 87.52 51.9996 87.2656 51.9997 87.0004C51.9998 86.7351 51.8945 86.4807 51.707 86.293L47.857 82.443C47.8213 82.4068 47.7828 82.3734 47.742 82.343C47.3502 82.8783 46.8787 83.3504 46.344 83.743V83.742Z" fill="url(#paint34_linear_17_1133)"/>
<path fill-rule="evenodd" clip-rule="evenodd" d="M42.5 75C42.6326 75 42.7598 75.0527 42.8536 75.1464C42.9473 75.2402 43 75.3674 43 75.5V78H45.5C45.6326 78 45.7598 78.0527 45.8536 78.1464C45.9473 78.2402 46 78.3674 46 78.5C46 78.6326 45.9473 78.7598 45.8536 78.8536C45.7598 78.9473 45.6326 79 45.5 79H43V81.5C43 81.6326 42.9473 81.7598 42.8536 81.8536C42.7598 81.9473 42.6326 82 42.5 82C42.3674 82 42.2402 81.9473 42.1464 81.8536C42.0527 81.7598 42 81.6326 42 81.5V79H39.5C39.3674 79 39.2402 78.9473 39.1464 78.8536C39.0527 78.7598 39 78.6326 39 78.5C39 78.3674 39.0527 78.2402 39.1464 78.1464C39.2402 78.0527 39.3674 78 39.5 78H42V75.5C42 75.3674 42.0527 75.2402 42.1464 75.1464C42.2402 75.0527 42.3674 75 42.5 75Z" fill="url(#paint35_linear_17_1133)"/>
</g>
<g clip-path="url(#clip7_17_1133)">
<path fill-rule="evenodd" clip-rule="evenodd" d="M78.5 84C79.2223 84 79.9375 83.8577 80.6048 83.5813C81.272 83.3049 81.8784 82.8998 82.3891 82.3891C82.8998 81.8784 83.3049 81.272 83.5813 80.6048C83.8577 79.9375 84 79.2223 84 78.5C84 77.7777 83.8577 77.0625 83.5813 76.3952C83.3049 75.728 82.8998 75.1216 82.3891 74.6109C81.8784 74.1002 81.272 73.6951 80.6048 73.4187C79.9375 73.1423 79.2223 73 78.5 73C77.0413 73 75.6424 73.5795 74.6109 74.6109C73.5795 75.6424 73 77.0413 73 78.5C73 79.9587 73.5795 81.3576 74.6109 82.3891C75.6424 83.4205 77.0413 84 78.5 84ZM85 78.5C85 80.2239 84.3152 81.8772 83.0962 83.0962C81.8772 84.3152 80.2239 85 78.5 85C76.7761 85 75.1228 84.3152 73.9038 83.0962C72.6848 81.8772 72 80.2239 72 78.5C72 76.7761 72.6848 75.1228 73.9038 73.9038C75.1228 72.6848 76.7761 72 78.5 72C80.2239 72 81.8772 72.6848 83.0962 73.9038C84.3152 75.1228 85 76.7761 85 78.5Z" fill="url(#paint36_linear_17_1133)"/>
<path d="M82.344 83.742C82.3733 83.782 82.406 83.8204 82.442 83.857L86.292 87.707C86.4795 87.8947 86.7339 88.0001 86.9991 88.0002C87.2644 88.0003 87.5189 87.895 87.7065 87.7075C87.8941 87.52 87.9996 87.2656 87.9997 87.0004C87.9998 86.7351 87.8945 86.4807 87.707 86.293L83.857 82.443C83.8213 82.4068 83.7828 82.3734 83.742 82.343C83.3502 82.8783 82.8787 83.3504 82.344 83.743V83.742Z" fill="url(#paint37_linear_17_1133)"/>
<path fill-rule="evenodd" clip-rule="evenodd" d="M75 78.5C75 78.3674 75.0527 78.2402 75.1464 78.1464C75.2402 78.0527 75.3674 78 75.5 78H81.5C81.6326 78 81.7598 78.0527 81.8536 78.1464C81.9473 78.2402 82 78.3674 82 78.5C82 78.6326 81.9473 78.7598 81.8536 78.8536C81.7598 78.9473 81.6326 79 81.5 79H75.5C75.3674 79 75.2402 78.9473 75.1464 78.8536C75.0527 78.7598 75 78.6326 75 78.5Z" fill="url(#paint38_linear_17_1133)"/>
</g>
<g clip-path="url(#clip8_17_1133)">
<path d="M116 72C113.829 72 113.556 72.01 112.703 72.048C111.85 72.088 111.269 72.222 110.76 72.42C110.226 72.6203 109.742 72.9354 109.343 73.343C108.935 73.7421 108.62 74.2258 108.42 74.76C108.222 75.268 108.087 75.85 108.048 76.7C108.01 77.555 108 77.827 108 80.001C108 82.173 108.01 82.445 108.048 83.298C108.088 84.15 108.222 84.731 108.42 85.24C108.625 85.766 108.898 86.212 109.343 86.657C109.787 87.102 110.233 87.376 110.759 87.58C111.269 87.778 111.849 87.913 112.701 87.952C113.555 87.99 113.827 88 116 88C118.173 88 118.444 87.99 119.298 87.952C120.149 87.912 120.732 87.778 121.241 87.58C121.775 87.3795 122.258 87.0645 122.657 86.657C123.102 86.212 123.375 85.766 123.58 85.24C123.777 84.731 123.912 84.15 123.952 83.298C123.99 82.445 124 82.173 124 80C124 77.827 123.99 77.555 123.952 76.701C123.912 75.85 123.777 75.268 123.58 74.76C123.38 74.2258 123.065 73.7421 122.657 73.343C122.258 72.9354 121.774 72.6203 121.24 72.42C120.73 72.222 120.148 72.087 119.297 72.048C118.443 72.01 118.172 72 115.998 72H116ZM115.283 73.442H116.001C118.137 73.442 118.39 73.449 119.233 73.488C120.013 73.523 120.437 73.654 120.719 73.763C121.092 73.908 121.359 74.082 121.639 74.362C121.919 74.642 122.092 74.908 122.237 75.282C122.347 75.563 122.477 75.987 122.512 76.767C122.551 77.61 122.559 77.863 122.559 79.998C122.559 82.133 122.551 82.387 122.512 83.23C122.477 84.01 122.346 84.433 122.237 84.715C122.108 85.0619 121.903 85.3758 121.638 85.634C121.358 85.914 121.092 86.087 120.718 86.232C120.438 86.342 120.014 86.472 119.233 86.508C118.39 86.546 118.137 86.555 116.001 86.555C113.865 86.555 113.611 86.546 112.768 86.508C111.988 86.472 111.565 86.342 111.283 86.232C110.936 86.1033 110.622 85.899 110.363 85.634C110.097 85.3756 109.892 85.0614 109.763 84.714C109.654 84.433 109.523 84.009 109.488 83.229C109.45 82.386 109.442 82.133 109.442 79.996C109.442 77.859 109.45 77.608 109.488 76.765C109.524 75.985 109.654 75.561 109.764 75.279C109.909 74.906 110.083 74.639 110.363 74.359C110.643 74.079 110.909 73.906 111.283 73.761C111.565 73.651 111.988 73.521 112.768 73.485C113.506 73.451 113.792 73.441 115.283 73.44V73.442ZM120.271 74.77C120.145 74.77 120.02 74.7948 119.904 74.8431C119.787 74.8913 119.681 74.962 119.592 75.0512C119.503 75.1403 119.432 75.2462 119.384 75.3626C119.336 75.4791 119.311 75.6039 119.311 75.73C119.311 75.8561 119.336 75.9809 119.384 76.0974C119.432 76.2138 119.503 76.3197 119.592 76.4088C119.681 76.498 119.787 76.5687 119.904 76.6169C120.02 76.6652 120.145 76.69 120.271 76.69C120.526 76.69 120.77 76.5889 120.95 76.4088C121.13 76.2288 121.231 75.9846 121.231 75.73C121.231 75.4754 121.13 75.2312 120.95 75.0512C120.77 74.8711 120.526 74.77 120.271 74.77ZM116.001 75.892C115.456 75.8835 114.915 75.9835 114.409 76.1861C113.903 76.3888 113.443 76.6901 113.054 77.0724C112.666 77.4548 112.357 77.9106 112.147 78.4133C111.936 78.916 111.828 79.4555 111.828 80.0005C111.828 80.5455 111.936 81.085 112.147 81.5877C112.357 82.0904 112.666 82.5462 113.054 82.9286C113.443 83.3109 113.903 83.6122 114.409 83.8149C114.915 84.0175 115.456 84.1175 116.001 84.109C117.08 84.0922 118.108 83.6519 118.865 82.8833C119.622 82.1146 120.046 81.0792 120.046 80.0005C120.046 78.9218 119.622 77.8864 118.865 77.1177C118.108 76.3491 117.08 75.9088 116.001 75.892ZM116.001 77.333C116.351 77.333 116.698 77.402 117.022 77.536C117.345 77.67 117.639 77.8665 117.887 78.1141C118.135 78.3618 118.331 78.6558 118.465 78.9794C118.599 79.303 118.668 79.6498 118.668 80C118.668 80.3502 118.599 80.697 118.465 81.0206C118.331 81.3442 118.135 81.6382 117.887 81.8859C117.639 82.1335 117.345 82.33 117.022 82.464C116.698 82.598 116.351 82.667 116.001 82.667C115.294 82.667 114.615 82.386 114.115 81.8859C113.615 81.3857 113.334 80.7073 113.334 80C113.334 79.2927 113.615 78.6143 114.115 78.1141C114.615 77.614 115.294 77.333 116.001 77.333Z" fill="url(#paint39_linear_17_1133)"/>
</g>
<g clip-path="url(#clip9_17_1133)">
<path d="M157.601 74.3261C156.868 73.5856 155.994 72.9985 155.031 72.5991C154.069 72.1998 153.036 71.9961 151.994 72.0001C147.627 72.0001 144.068 75.5581 144.064 79.9261C144.064 81.3251 144.43 82.6861 145.121 83.8911L144 88.0001L148.204 86.8981C149.366 87.5323 150.67 87.8641 151.994 87.8631H151.998C156.366 87.8631 159.924 84.3051 159.928 79.9331C159.929 78.8911 159.724 77.8593 159.324 76.897C158.925 75.9347 158.34 75.061 157.601 74.3261ZM151.994 86.5211C150.813 86.5201 149.654 86.2024 148.638 85.6011L148.398 85.4571L145.904 86.1111L146.57 83.6781L146.414 83.4271C145.754 82.3774 145.405 81.1621 145.407 79.9221C145.407 76.2961 148.364 73.3381 151.998 73.3381C152.864 73.3365 153.721 73.5063 154.521 73.8377C155.321 74.1692 156.047 74.6556 156.658 75.2691C157.271 75.8802 157.757 76.6066 158.088 77.4064C158.419 78.2062 158.588 79.0635 158.586 79.9291C158.582 83.5681 155.625 86.5211 151.994 86.5211ZM155.609 81.5871C155.412 81.4881 154.439 81.0091 154.256 80.9411C154.074 80.8761 153.941 80.8421 153.811 81.0401C153.678 81.2371 153.298 81.6861 153.184 81.8151C153.07 81.9481 152.952 81.9631 152.754 81.8651C152.557 81.7651 151.918 81.5571 151.162 80.8801C150.572 80.3551 150.177 79.7051 150.059 79.5081C149.945 79.3101 150.048 79.2041 150.147 79.1051C150.234 79.0171 150.344 78.8731 150.443 78.7591C150.543 78.6451 150.576 78.5611 150.641 78.4291C150.706 78.2951 150.675 78.1811 150.626 78.0821C150.576 77.9831 150.181 77.0061 150.014 76.6121C149.854 76.2231 149.691 76.2771 149.569 76.2721C149.455 76.2651 149.322 76.2651 149.189 76.2651C149.089 76.2676 148.99 76.2909 148.899 76.3334C148.808 76.3759 148.726 76.4367 148.66 76.5121C148.478 76.7101 147.969 77.1891 147.969 78.1661C147.969 79.1431 148.679 80.0821 148.779 80.2151C148.877 80.3481 150.173 82.3471 152.162 83.2071C152.632 83.4121 153.002 83.5331 153.291 83.6251C153.766 83.7771 154.195 83.7541 154.537 83.7051C154.917 83.6471 155.708 83.2251 155.875 82.7621C156.039 82.2981 156.039 81.9021 155.989 81.8191C155.94 81.7351 155.807 81.6861 155.609 81.5871Z" fill="url(#paint40_linear_17_1133)"/>
</g>
<path d="M180 76C180 75.4696 180.211 74.9609 180.586 74.5858C180.961 74.2107 181.47 74 182 74H194C194.53 74 195.039 74.2107 195.414 74.5858C195.789 74.9609 196 75.4696 196 76V84C196 84.5304 195.789 85.0391 195.414 85.4142C195.039 85.7893 194.53 86 194 86H182C181.47 86 180.961 85.7893 180.586 85.4142C180.211 85.0391 180 84.5304 180 84V76ZM182 75C181.735 75 181.48 75.1054 181.293 75.2929C181.105 75.4804 181 75.7348 181 76V76.217L188 80.417L195 76.217V76C195 75.7348 194.895 75.4804 194.707 75.2929C194.52 75.1054 194.265 75 194 75H182ZM195 77.383L190.292 80.208L195 83.105V77.383ZM194.966 84.259L189.326 80.788L188 81.583L186.674 80.788L181.034 84.258C181.091 84.4708 181.216 84.6589 181.391 84.7931C181.566 84.9272 181.78 85 182 85H194C194.22 85 194.434 84.9274 194.609 84.7934C194.783 84.6595 194.909 84.4716 194.966 84.259ZM181 83.105L185.708 80.208L181 77.383V83.105Z" fill="url(#paint41_linear_17_1133)"/>
<g clip-path="url(#clip10_17_1133)">
<path d="M227 73C227.265 73 227.52 73.1054 227.707 73.2929C227.895 73.4804 228 73.7348 228 74V86C228 86.2652 227.895 86.5196 227.707 86.7071C227.52 86.8946 227.265 87 227 87H221C220.735 87 220.48 86.8946 220.293 86.7071C220.105 86.5196 220 86.2652 220 86V74C220 73.7348 220.105 73.4804 220.293 73.2929C220.48 73.1054 220.735 73 221 73H227ZM221 72C220.47 72 219.961 72.2107 219.586 72.5858C219.211 72.9609 219 73.4696 219 74V86C219 86.5304 219.211 87.0391 219.586 87.4142C219.961 87.7893 220.47 88 221 88H227C227.53 88 228.039 87.7893 228.414 87.4142C228.789 87.0391 229 86.5304 229 86V74C229 73.4696 228.789 72.9609 228.414 72.5858C228.039 72.2107 227.53 72 227 72H221Z" fill="url(#paint42_linear_17_1133)"/>
<path d="M224 86C224.265 86 224.52 85.8946 224.707 85.7071C224.895 85.5196 225 85.2652 225 85C225 84.7348 224.895 84.4804 224.707 84.2929C224.52 84.1054 224.265 84 224 84C223.735 84 223.48 84.1054 223.293 84.2929C223.105 84.4804 223 84.7348 223 85C223 85.2652 223.105 85.5196 223.293 85.7071C223.48 85.8946 223.735 86 224 86Z" fill="url(#paint43_linear_17_1133)"/>
</g>
<defs>
<linearGradient id="paint0_linear_17_1133" x1="7.99961" y1="1.84229" x2="7.99961" y2="14.1579" gradientUnits="userSpaceOnUse">
<stop stop-color="#AA9ADA"/>
<stop offset="1" stop-color="#5C4A90"/>
</linearGradient>
<linearGradient id="paint1_linear_17_1133" x1="44" y1="1" x2="44" y2="14.7101" gradientUnits="userSpaceOnUse">
<stop stop-color="#AA9ADA"/>
<stop offset="1" stop-color="#5C4A90"/>
</linearGradient>
<linearGradient id="paint2_linear_17_1133" x1="77.0833" y1="9.66669" x2="77.0833" y2="10" gradientUnits="userSpaceOnUse">
<stop stop-color="#AA9ADA"/>
<stop offset="1" stop-color="#5C4A90"/>
</linearGradient>
<linearGradient id="paint3_linear_17_1133" x1="77.25" y1="9.66669" x2="77.25" y2="10" gradientUnits="userSpaceOnUse">
<stop stop-color="#AA9ADA"/>
<stop offset="1" stop-color="#5C4A90"/>
</linearGradient>
<linearGradient id="paint4_linear_17_1133" x1="82.8021" y1="9.66669" x2="82.8021" y2="10" gradientUnits="userSpaceOnUse">
<stop stop-color="#AA9ADA"/>
<stop offset="1" stop-color="#5C4A90"/>
</linearGradient>
<linearGradient id="paint5_linear_17_1133" x1="82.9687" y1="9.66669" x2="82.9687" y2="10" gradientUnits="userSpaceOnUse">
<stop stop-color="#AA9ADA"/>
<stop offset="1" stop-color="#5C4A90"/>
</linearGradient>
<linearGradient id="paint6_linear_17_1133" x1="79.9995" y1="11.6659" x2="79.9995" y2="13" gradientUnits="userSpaceOnUse">
<stop stop-color="#AA9ADA"/>
<stop offset="1" stop-color="#5C4A90"/>
</linearGradient>
<linearGradient id="paint7_linear_17_1133" x1="80" y1="0.333313" x2="80" y2="6.33331" gradientUnits="userSpaceOnUse">
<stop stop-color="#AA9ADA"/>
<stop offset="1" stop-color="#5C4A90"/>
</linearGradient>
<linearGradient id="paint8_linear_17_1133" x1="79.9981" y1="4.33331" x2="79.9981" y2="15.6666" gradientUnits="userSpaceOnUse">
<stop stop-color="#AA9ADA"/>
<stop offset="1" stop-color="#5C4A90"/>
</linearGradient>
<linearGradient id="paint9_linear_17_1133" x1="113.083" y1="9.66669" x2="113.083" y2="10" gradientUnits="userSpaceOnUse">
<stop stop-color="#AA9ADA"/>
<stop offset="1" stop-color="#5C4A90"/>
</linearGradient>
<linearGradient id="paint10_linear_17_1133" x1="113.25" y1="9.66669" x2="113.25" y2="10" gradientUnits="userSpaceOnUse">
<stop stop-color="#AA9ADA"/>
<stop offset="1" stop-color="#5C4A90"/>
</linearGradient>
<linearGradient id="paint11_linear_17_1133" x1="118.802" y1="9.66669" x2="118.802" y2="10" gradientUnits="userSpaceOnUse">
<stop stop-color="#AA9ADA"/>
<stop offset="1" stop-color="#5C4A90"/>
</linearGradient>
<linearGradient id="paint12_linear_17_1133" x1="118.969" y1="9.66669" x2="118.969" y2="10" gradientUnits="userSpaceOnUse">
<stop stop-color="#AA9ADA"/>
<stop offset="1" stop-color="#5C4A90"/>
</linearGradient>
<linearGradient id="paint13_linear_17_1133" x1="116" y1="11.6667" x2="116" y2="13.0009" gradientUnits="userSpaceOnUse">
<stop stop-color="#AA9ADA"/>
<stop offset="1" stop-color="#5C4A90"/>
</linearGradient>
<linearGradient id="paint14_linear_17_1133" x1="116" y1="0.333313" x2="116" y2="6.33331" gradientUnits="userSpaceOnUse">
<stop stop-color="#AA9ADA"/>
<stop offset="1" stop-color="#5C4A90"/>
</linearGradient>
<linearGradient id="paint15_linear_17_1133" x1="115.998" y1="4.33331" x2="115.998" y2="15.6666" gradientUnits="userSpaceOnUse">
<stop stop-color="#AA9ADA"/>
<stop offset="1" stop-color="#5C4A90"/>
</linearGradient>
<linearGradient id="paint16_linear_17_1133" x1="152" y1="2.83331" x2="152" y2="13.5" gradientUnits="userSpaceOnUse">
<stop stop-color="#AA9ADA"/>
<stop offset="1" stop-color="#5C4A90"/>
</linearGradient>
<linearGradient id="paint17_linear_17_1133" x1="187" y1="0.00152588" x2="187" y2="16.0015" gradientUnits="userSpaceOnUse">
<stop stop-color="#AA9ADA"/>
<stop offset="1" stop-color="#5C4A90"/>
</linearGradient>
<linearGradient id="paint18_linear_17_1133" x1="224" y1="0" x2="224" y2="16" gradientUnits="userSpaceOnUse">
<stop stop-color="#AA9ADA"/>
<stop offset="1" stop-color="#5C4A90"/>
</linearGradient>
<linearGradient id="paint19_linear_17_1133" x1="260" y1="-0.000305176" x2="260" y2="16.0019" gradientUnits="userSpaceOnUse">
<stop stop-color="#AA9ADA"/>
<stop offset="1" stop-color="#5C4A90"/>
</linearGradient>
<linearGradient id="paint20_linear_17_1133" x1="7.99938" y1="36.0018" x2="7.99938" y2="52.0002" gradientUnits="userSpaceOnUse">
<stop stop-color="#AA9ADA"/>
<stop offset="1" stop-color="#5C4A90"/>
</linearGradient>
<linearGradient id="paint21_linear_17_1133" x1="44.2499" y1="39.5" x2="44.2499" y2="45.6" gradientUnits="userSpaceOnUse">
<stop stop-color="#AA9ADA"/>
<stop offset="1" stop-color="#5C4A90"/>
</linearGradient>
<linearGradient id="paint22_linear_17_1133" x1="44" y1="36.0008" x2="44" y2="51.9992" gradientUnits="userSpaceOnUse">
<stop stop-color="#AA9ADA"/>
<stop offset="1" stop-color="#5C4A90"/>
</linearGradient>
<linearGradient id="paint23_linear_17_1133" x1="44.001" y1="46" x2="44.001" y2="48" gradientUnits="userSpaceOnUse">
<stop stop-color="#AA9ADA"/>
<stop offset="1" stop-color="#5C4A90"/>
</linearGradient>
<linearGradient id="paint24_linear_17_1133" x1="80" y1="39.5" x2="80" y2="48.5" gradientUnits="userSpaceOnUse">
<stop stop-color="#AA9ADA"/>
<stop offset="1" stop-color="#5C4A90"/>
</linearGradient>
<linearGradient id="paint25_linear_17_1133" x1="116" y1="37" x2="116" y2="51" gradientUnits="userSpaceOnUse">
<stop stop-color="#AA9ADA"/>
<stop offset="1" stop-color="#5C4A90"/>
</linearGradient>
<linearGradient id="paint26_linear_17_1133" x1="152" y1="40" x2="152" y2="47" gradientUnits="userSpaceOnUse">
<stop stop-color="#AA9ADA"/>
<stop offset="1" stop-color="#5C4A90"/>
</linearGradient>
<linearGradient id="paint27_linear_17_1133" x1="188.002" y1="42.4973" x2="188.002" y2="46.499" gradientUnits="userSpaceOnUse">
<stop stop-color="#AA9ADA"/>
<stop offset="1" stop-color="#5C4A90"/>
</linearGradient>
<linearGradient id="paint28_linear_17_1133" x1="224" y1="41.5" x2="224" y2="45.5017" gradientUnits="userSpaceOnUse">
<stop stop-color="#AA9ADA"/>
<stop offset="1" stop-color="#5C4A90"/>
</linearGradient>
<linearGradient id="paint29_linear_17_1133" x1="260" y1="37.4991" x2="260" y2="50.4992" gradientUnits="userSpaceOnUse">
<stop stop-color="#AA9ADA"/>
<stop offset="1" stop-color="#5C4A90"/>
</linearGradient>
<linearGradient id="paint30_linear_17_1133" x1="262" y1="38.4994" x2="262" y2="46.5009" gradientUnits="userSpaceOnUse">
<stop stop-color="#AA9ADA"/>
<stop offset="1" stop-color="#5C4A90"/>
</linearGradient>
<linearGradient id="paint31_linear_17_1133" x1="8" y1="79" x2="8" y2="81" gradientUnits="userSpaceOnUse">
<stop stop-color="#AA9ADA"/>
<stop offset="1" stop-color="#5C4A90"/>
</linearGradient>
<linearGradient id="paint32_linear_17_1133" x1="8" y1="73" x2="8" y2="87.9313" gradientUnits="userSpaceOnUse">
<stop stop-color="#AA9ADA"/>
<stop offset="1" stop-color="#5C4A90"/>
</linearGradient>
<linearGradient id="paint33_linear_17_1133" x1="42.5" y1="72" x2="42.5" y2="85" gradientUnits="userSpaceOnUse">
<stop stop-color="#AA9ADA"/>
<stop offset="1" stop-color="#5C4A90"/>
</linearGradient>
<linearGradient id="paint34_linear_17_1133" x1="49.1718" y1="82.343" x2="49.1718" y2="88.0002" gradientUnits="userSpaceOnUse">
<stop stop-color="#AA9ADA"/>
<stop offset="1" stop-color="#5C4A90"/>
</linearGradient>
<linearGradient id="paint35_linear_17_1133" x1="42.5" y1="75" x2="42.5" y2="82" gradientUnits="userSpaceOnUse">
<stop stop-color="#AA9ADA"/>
<stop offset="1" stop-color="#5C4A90"/>
</linearGradient>
<linearGradient id="paint36_linear_17_1133" x1="78.5" y1="72" x2="78.5" y2="85" gradientUnits="userSpaceOnUse">
<stop stop-color="#AA9ADA"/>
<stop offset="1" stop-color="#5C4A90"/>
</linearGradient>
<linearGradient id="paint37_linear_17_1133" x1="85.1718" y1="82.343" x2="85.1718" y2="88.0002" gradientUnits="userSpaceOnUse">
<stop stop-color="#AA9ADA"/>
<stop offset="1" stop-color="#5C4A90"/>
</linearGradient>
<linearGradient id="paint38_linear_17_1133" x1="78.5" y1="78" x2="78.5" y2="79" gradientUnits="userSpaceOnUse">
<stop stop-color="#AA9ADA"/>
<stop offset="1" stop-color="#5C4A90"/>
</linearGradient>
<linearGradient id="paint39_linear_17_1133" x1="116" y1="72" x2="116" y2="88" gradientUnits="userSpaceOnUse">
<stop stop-color="#AA9ADA"/>
<stop offset="1" stop-color="#5C4A90"/>
</linearGradient>
<linearGradient id="paint40_linear_17_1133" x1="151.964" y1="72" x2="151.964" y2="88.0001" gradientUnits="userSpaceOnUse">
<stop stop-color="#AA9ADA"/>
<stop offset="1" stop-color="#5C4A90"/>
</linearGradient>
<linearGradient id="paint41_linear_17_1133" x1="188" y1="74" x2="188" y2="86" gradientUnits="userSpaceOnUse">
<stop stop-color="#AA9ADA"/>
<stop offset="1" stop-color="#5C4A90"/>
</linearGradient>
<linearGradient id="paint42_linear_17_1133" x1="224" y1="72" x2="224" y2="88" gradientUnits="userSpaceOnUse">
<stop stop-color="#AA9ADA"/>
<stop offset="1" stop-color="#5C4A90"/>
</linearGradient>
<linearGradient id="paint43_linear_17_1133" x1="224" y1="84" x2="224" y2="86" gradientUnits="userSpaceOnUse">
<stop stop-color="#AA9ADA"/>
<stop offset="1" stop-color="#5C4A90"/>
</linearGradient>
<clipPath id="clip0_17_1133">
<rect width="16" height="16" fill="white" transform="translate(72)"/>
</clipPath>
<clipPath id="clip1_17_1133">
<rect width="16" height="16" fill="white" transform="translate(108)"/>
</clipPath>
<clipPath id="clip2_17_1133">
<rect width="16" height="16" fill="white" transform="translate(180)"/>
</clipPath>
<clipPath id="clip3_17_1133">
<rect width="16" height="16" fill="white" transform="translate(252)"/>
</clipPath>
<clipPath id="clip4_17_1133">
<rect width="16" height="16" fill="white" transform="translate(0 36)"/>
</clipPath>
<clipPath id="clip5_17_1133">
<rect width="16" height="16" fill="white" transform="translate(36 36)"/>
</clipPath>
<clipPath id="clip6_17_1133">
<rect width="16" height="16" fill="white" transform="translate(36 72)"/>
</clipPath>
<clipPath id="clip7_17_1133">
<rect width="16" height="16" fill="white" transform="translate(72 72)"/>
</clipPath>
<clipPath id="clip8_17_1133">
<rect width="16" height="16" fill="white" transform="translate(108 72)"/>
</clipPath>
<clipPath id="clip9_17_1133">
<rect width="16" height="16" fill="white" transform="translate(144 72)"/>
</clipPath>
<clipPath id="clip10_17_1133">
<rect width="16" height="16" fill="white" transform="translate(216 72)"/>
</clipPath>
</defs>
</svg>
