<svg width="16" height="16" viewBox="0 0 16 16" fill="none" xmlns="http://www.w3.org/2000/svg">
<g clip-path="url(#clip0_16_1089)">
<path d="M8.04998 9.6C8.38598 9.6 8.55398 9.36 8.60398 8.973C8.64398 8.439 8.80198 8.158 9.45098 7.713C10.124 7.238 10.5 6.623 10.5 5.727C10.5 4.402 9.57998 3.5 8.23798 3.5C7.21798 3.5 6.44598 3.992 6.13798 4.79C6.04436 5.00786 5.99736 5.24289 5.99998 5.48C5.99998 5.873 6.20298 6.12 6.54498 6.12C6.81698 6.12 6.99998 5.973 7.10898 5.61C7.26698 5.018 7.63398 4.695 8.18298 4.695C8.79298 4.695 9.21298 5.141 9.21298 5.779C9.21298 6.342 9.00498 6.664 8.39098 7.104C7.77198 7.537 7.46498 8.018 7.46498 8.744V8.855C7.46498 9.283 7.67298 9.6 8.04998 9.6Z" fill="url(#paint0_linear_16_1089)"/>
<path d="M10.273 2.51299L9.35205 1.56899L10.067 0.870989L10.689 1.50799L11.5791 1.49699C11.9643 1.49243 12.3466 1.56495 12.7034 1.71028C13.0602 1.85561 13.3844 2.07082 13.6568 2.34325C13.9292 2.61568 14.1444 2.93983 14.2898 3.29665C14.4351 3.65347 14.5076 4.03574 14.503 4.42099L14.493 5.31099L15.129 5.93299C15.4045 6.20216 15.6234 6.52367 15.7728 6.87864C15.9223 7.2336 15.9992 7.61485 15.9992 7.99999C15.9992 8.38513 15.9223 8.76638 15.7728 9.12134C15.6234 9.47631 15.4045 9.79782 15.129 10.067L14.492 10.689L14.503 11.579C14.5076 11.9642 14.4351 12.3465 14.2898 12.7033C14.1444 13.0601 13.9292 13.3843 13.6568 13.6567C13.3844 13.9292 13.0602 14.1444 12.7034 14.2897C12.3466 14.435 11.9643 14.5075 11.5791 14.503L10.689 14.493L10.067 15.129C9.79788 15.4044 9.47637 15.6233 9.1214 15.7728C8.76644 15.9222 8.38519 15.9992 8.00005 15.9992C7.61491 15.9992 7.23366 15.9222 6.8787 15.7728C6.52373 15.6233 6.20222 15.4044 5.93305 15.129L5.31105 14.492L4.42105 14.503C4.0358 14.5075 3.65353 14.435 3.29671 14.2897C2.9399 14.1444 2.61574 13.9292 2.34331 13.6567C2.07088 13.3843 1.85567 13.0601 1.71034 12.7033C1.56501 12.3465 1.49249 11.9642 1.49705 11.579L1.50705 10.689L0.87105 10.067C0.59559 9.79782 0.37671 9.47631 0.227273 9.12134C0.0778352 8.76638 0.000854492 8.38513 0.000854492 7.99999C0.000854492 7.61485 0.0778352 7.2336 0.227273 6.87864C0.37671 6.52367 0.59559 6.20216 0.87105 5.93299L1.50805 5.31099L1.49705 4.42099C1.49249 4.03574 1.56501 3.65347 1.71034 3.29665C1.85567 2.93983 2.07088 2.61568 2.34331 2.34325C2.61574 2.07082 2.9399 1.85561 3.29671 1.71028C3.65353 1.56495 4.0358 1.49243 4.42105 1.49699L5.31105 1.50699L5.93305 0.870989C6.20222 0.595529 6.52373 0.376649 6.8787 0.227212C7.23366 0.0777741 7.61491 0.000793457 8.00005 0.000793457C8.38519 0.000793457 8.76644 0.0777741 9.1214 0.227212C9.47637 0.376649 9.79788 0.595529 10.067 0.870989L9.35205 1.56899C9.17601 1.38878 8.96572 1.24557 8.73354 1.1478C8.50136 1.05003 8.25198 0.999669 8.00005 0.999669C7.74812 0.999669 7.49874 1.05003 7.26656 1.1478C7.03438 1.24557 6.82409 1.38878 6.64805 1.56899L5.72805 2.51299L4.40805 2.49699C4.15623 2.49417 3.90638 2.54171 3.67319 2.63682C3.44 2.73192 3.22817 2.87267 3.05014 3.05079C2.87211 3.22891 2.73147 3.44082 2.63649 3.67406C2.54151 3.9073 2.4941 4.15717 2.49705 4.40899L2.51305 5.72699L1.56905 6.64799C1.38884 6.82403 1.24564 7.03432 1.14787 7.2665C1.0501 7.49868 0.99973 7.74806 0.99973 7.99999C0.99973 8.25191 1.0501 8.5013 1.14787 8.73348C1.24564 8.96566 1.38884 9.17595 1.56905 9.35199L2.51305 10.272L2.49705 11.592C2.49423 11.8438 2.54177 12.0937 2.63688 12.3268C2.73198 12.56 2.87273 12.7719 3.05085 12.9499C3.22897 13.1279 3.44088 13.2686 3.67412 13.3635C3.90736 13.4585 4.15723 13.5059 4.40905 13.503L5.72705 13.487L6.64805 14.431C6.82409 14.6112 7.03438 14.7544 7.26656 14.8522C7.49874 14.9499 7.74812 15.0003 8.00005 15.0003C8.25198 15.0003 8.50136 14.9499 8.73354 14.8522C8.96572 14.7544 9.17601 14.6112 9.35205 14.431L10.272 13.487L11.592 13.503C11.8439 13.5058 12.0937 13.4583 12.3269 13.3632C12.5601 13.2681 12.7719 13.1273 12.95 12.9492C13.128 12.7711 13.2686 12.5592 13.3636 12.3259C13.4586 12.0927 13.506 11.8428 13.503 11.591L13.4871 10.273L14.431 9.35199C14.6113 9.17595 14.7545 8.96566 14.8522 8.73348C14.95 8.5013 15.0004 8.25191 15.0004 7.99999C15.0004 7.74806 14.95 7.49868 14.8522 7.2665C14.7545 7.03432 14.6113 6.82403 14.431 6.64799L13.4871 5.72799L13.503 4.40799C13.5059 4.15617 13.4583 3.90632 13.3632 3.67313C13.2681 3.43994 13.1274 3.22811 12.9493 3.05008C12.7711 2.87205 12.5592 2.73141 12.326 2.63643C12.0927 2.54145 11.8429 2.49404 11.591 2.49699L10.273 2.51299Z" fill="url(#paint1_linear_16_1089)"/>
<path d="M7.00098 11C7.00098 10.7348 7.10633 10.4804 7.29387 10.2929C7.48141 10.1054 7.73576 10 8.00098 10C8.26619 10 8.52055 10.1054 8.70808 10.2929C8.89562 10.4804 9.00098 10.7348 9.00098 11C9.00098 11.2652 8.89562 11.5196 8.70808 11.7071C8.52055 11.8946 8.26619 12 8.00098 12C7.73576 12 7.48141 11.8946 7.29387 11.7071C7.10633 11.5196 7.00098 11.2652 7.00098 11Z" fill="url(#paint2_linear_16_1089)"/>
</g>
<defs>
<linearGradient id="paint0_linear_16_1089" x1="8.24993" y1="3.5" x2="8.24993" y2="9.6" gradientUnits="userSpaceOnUse">
<stop stop-color="#AA9ADA"/>
<stop offset="1" stop-color="#5C4A90"/>
</linearGradient>
<linearGradient id="paint1_linear_16_1089" x1="8.00005" y1="0.000793457" x2="8.00005" y2="15.9992" gradientUnits="userSpaceOnUse">
<stop stop-color="#AA9ADA"/>
<stop offset="1" stop-color="#5C4A90"/>
</linearGradient>
<linearGradient id="paint2_linear_16_1089" x1="8.00098" y1="10" x2="8.00098" y2="12" gradientUnits="userSpaceOnUse">
<stop stop-color="#AA9ADA"/>
<stop offset="1" stop-color="#5C4A90"/>
</linearGradient>
<clipPath id="clip0_16_1089">
<rect width="16" height="16" fill="white"/>
</clipPath>
</defs>
</svg>
