<svg width="25" height="24" viewBox="0 0 25 24" fill="none" xmlns="http://www.w3.org/2000/svg">
<g clip-path="url(#clip0_49_38)">
<path d="M16.8333 1.5C17.2311 1.5 17.6127 1.65804 17.894 1.93934C18.1753 2.22064 18.3333 2.60218 18.3333 3V21C18.3333 21.3978 18.1753 21.7794 17.894 22.0607C17.6127 22.342 17.2311 22.5 16.8333 22.5H7.83331C7.43549 22.5 7.05396 22.342 6.77265 22.0607C6.49135 21.7794 6.33331 21.3978 6.33331 21V3C6.33331 2.60218 6.49135 2.22064 6.77265 1.93934C7.05396 1.65804 7.43549 1.5 7.83331 1.5H16.8333ZM7.83331 0C7.03766 0 6.2746 0.316071 5.71199 0.87868C5.14938 1.44129 4.83331 2.20435 4.83331 3V21C4.83331 21.7956 5.14938 22.5587 5.71199 23.1213C6.2746 23.6839 7.03766 24 7.83331 24H16.8333C17.629 24 18.392 23.6839 18.9546 23.1213C19.5172 22.5587 19.8333 21.7956 19.8333 21V3C19.8333 2.20435 19.5172 1.44129 18.9546 0.87868C18.392 0.316071 17.629 0 16.8333 0L7.83331 0Z" fill="url(#paint0_linear_49_38)"/>
<path d="M12.3333 21C12.7311 21 13.1127 20.842 13.394 20.5607C13.6753 20.2794 13.8333 19.8978 13.8333 19.5C13.8333 19.1022 13.6753 18.7206 13.394 18.4393C13.1127 18.158 12.7311 18 12.3333 18C11.9355 18 11.554 18.158 11.2727 18.4393C10.9913 18.7206 10.8333 19.1022 10.8333 19.5C10.8333 19.8978 10.9913 20.2794 11.2727 20.5607C11.554 20.842 11.9355 21 12.3333 21Z" fill="url(#paint1_linear_49_38)"/>
</g>
<defs>
<linearGradient id="paint0_linear_49_38" x1="12.3333" y1="0" x2="12.3333" y2="24" gradientUnits="userSpaceOnUse">
<stop stop-color="#AA9ADA"/>
<stop offset="1" stop-color="#5C4A90"/>
</linearGradient>
<linearGradient id="paint1_linear_49_38" x1="12.3333" y1="18" x2="12.3333" y2="21" gradientUnits="userSpaceOnUse">
<stop stop-color="#AA9ADA"/>
<stop offset="1" stop-color="#5C4A90"/>
</linearGradient>
<clipPath id="clip0_49_38">
<rect width="24" height="24" fill="white" transform="translate(0.333313)"/>
</clipPath>
</defs>
</svg>
