<svg width="32" height="32" viewBox="0 0 32 32" fill="none" xmlns="http://www.w3.org/2000/svg">
<path fill-rule="evenodd" clip-rule="evenodd" d="M15.552 11.106C15.6911 11.0363 15.8445 11 16 11C16.1556 11 16.309 11.0363 16.448 11.106L28.448 17.106C28.5665 17.1642 28.6722 17.2453 28.7592 17.3446C28.8461 17.4438 28.9126 17.5593 28.9547 17.6844C28.9968 17.8095 29.0137 17.9417 29.0045 18.0733C28.9953 18.205 28.9601 18.3335 28.901 18.4515C28.8419 18.5695 28.76 18.6746 28.66 18.7608C28.5601 18.847 28.4441 18.9125 28.3187 18.9536C28.1933 18.9948 28.061 19.0107 27.9294 19.0005C27.7978 18.9902 27.6696 18.954 27.552 18.894L16 13.12L4.44803 18.894C4.3305 18.954 4.20225 18.9902 4.07068 19.0005C3.9391 19.0107 3.8068 18.9948 3.6814 18.9536C3.556 18.9125 3.43999 18.847 3.34004 18.7608C3.2401 18.6746 3.1582 18.5695 3.09908 18.4515C3.03995 18.3335 3.00476 18.205 2.99555 18.0733C2.98633 17.9417 3.00326 17.8095 3.04537 17.6844C3.08747 17.5593 3.15392 17.4438 3.24088 17.3446C3.32784 17.2453 3.43359 17.1642 3.55203 17.106L15.552 11.106Z" fill="url(#paint0_linear_51_56)" stroke="url(#paint1_linear_51_56)" stroke-width="3"/>
<defs>
<linearGradient id="paint0_linear_51_56" x1="16" y1="11" x2="16" y2="19.0035" gradientUnits="userSpaceOnUse">
<stop stop-color="#AA9ADA"/>
<stop offset="1" stop-color="#5C4A90"/>
</linearGradient>
<linearGradient id="paint1_linear_51_56" x1="16" y1="11" x2="16" y2="19.0035" gradientUnits="userSpaceOnUse">
<stop stop-color="#AA9ADA"/>
<stop offset="1" stop-color="#5C4A90"/>
</linearGradient>
</defs>
</svg>
