<svg width="16" height="16" viewBox="0 0 16 16" fill="none" xmlns="http://www.w3.org/2000/svg">
<path d="M2.66663 13.5C2.67557 12.7383 2.83413 11.9858 3.13329 11.2853C3.45996 10.6313 4.82596 10.178 6.54063 9.54331C7.00729 9.37131 6.92796 8.16065 6.72263 7.93465C6.39504 7.58065 6.14608 7.16134 5.99211 6.70426C5.83815 6.24718 5.78266 5.7627 5.82929 5.28265C5.79991 4.97701 5.83378 4.6686 5.9288 4.37663C6.02383 4.08467 6.17796 3.8154 6.38161 3.58561C6.58526 3.35582 6.83405 3.17043 7.11248 3.041C7.39091 2.91157 7.69301 2.84087 7.99996 2.83331C8.30691 2.84087 8.60901 2.91157 8.88744 3.041C9.16587 3.17043 9.41466 3.35582 9.61831 3.58561C9.82195 3.8154 9.97609 4.08467 10.0711 4.37663C10.1661 4.6686 10.2 4.97701 10.1706 5.28265C10.2174 5.76229 10.1623 6.24641 10.0088 6.70323C9.85526 7.16005 9.60689 7.57925 9.27996 7.93331C9.07463 8.15931 8.99863 9.36998 9.46196 9.54198C11.1766 10.1766 12.5426 10.63 12.8693 11.284C13.1677 11.9851 13.3254 12.738 13.3333 13.5H2.66663Z" stroke="url(#paint0_linear_16_1049)" stroke-linecap="round" stroke-linejoin="round"/>
<defs>
<linearGradient id="paint0_linear_16_1049" x1="7.99996" y1="2.83331" x2="7.99996" y2="13.5" gradientUnits="userSpaceOnUse">
<stop stop-color="#AA9ADA"/>
<stop offset="1" stop-color="#5C4A90"/>
</linearGradient>
</defs>
</svg>
