<svg width="16" height="16" viewBox="0 0 16 16" fill="none" xmlns="http://www.w3.org/2000/svg">
<g clip-path="url(#clip0_16_1076)">
<path d="M7.65705 6.24703C7.76706 5.91703 8.23306 5.91703 8.34306 6.24703L8.98805 8.18403C9.13003 8.60983 9.36923 8.99671 9.6867 9.31401C10.0042 9.6313 10.3912 9.87029 10.8171 10.012L12.7531 10.657C13.0831 10.767 13.0831 11.233 12.7531 11.343L10.8161 11.988C10.3903 12.13 10.0034 12.3692 9.68608 12.6867C9.36878 13.0041 9.12979 13.3911 8.98805 13.817L8.34306 15.753C8.31934 15.8253 8.27341 15.8882 8.21181 15.9328C8.15022 15.9774 8.07611 16.0015 8.00005 16.0015C7.924 16.0015 7.84989 15.9774 7.7883 15.9328C7.7267 15.8882 7.68077 15.8253 7.65705 15.753L7.01205 13.816C6.87018 13.3903 6.63114 13.0035 6.31385 12.6862C5.99656 12.3689 5.60975 12.1299 5.18405 11.988L3.24705 11.343C3.17479 11.3193 3.11187 11.2734 3.06726 11.2118C3.02264 11.1502 2.99862 11.0761 2.99862 11C2.99862 10.924 3.02264 10.8499 3.06726 10.7883C3.11187 10.7267 3.17479 10.6807 3.24705 10.657L5.18405 10.012C5.60975 9.87016 5.99656 9.63111 6.31385 9.31382C6.63114 8.99653 6.87018 8.60972 7.01205 8.18403L7.65705 6.24703ZM3.79405 1.14803C3.80839 1.10472 3.83602 1.06704 3.873 1.04033C3.90998 1.01362 3.95444 0.999241 4.00005 0.999241C4.04567 0.999241 4.09013 1.01362 4.12711 1.04033C4.16409 1.06704 4.19171 1.10472 4.20605 1.14803L4.59305 2.31003C4.76605 2.82803 5.17205 3.23403 5.69005 3.40703L6.85206 3.79403C6.89536 3.80837 6.93305 3.83599 6.95976 3.87297C6.98647 3.90995 7.00084 3.95441 7.00084 4.00003C7.00084 4.04565 6.98647 4.0901 6.95976 4.12709C6.93305 4.16407 6.89536 4.19169 6.85206 4.20603L5.69005 4.59303C5.43443 4.67787 5.20214 4.82122 5.01169 5.01167C4.82124 5.20212 4.67789 5.4344 4.59305 5.69003L4.20605 6.85203C4.19171 6.89533 4.16409 6.93302 4.12711 6.95973C4.09013 6.98644 4.04567 7.00082 4.00005 7.00082C3.95444 7.00082 3.90998 6.98644 3.873 6.95973C3.83602 6.93302 3.80839 6.89533 3.79405 6.85203L3.40705 5.69003C3.32222 5.4344 3.17886 5.20212 2.98842 5.01167C2.79797 4.82122 2.56568 4.67787 2.31005 4.59303L1.14805 4.20603C1.10475 4.19169 1.06706 4.16407 1.04035 4.12709C1.01364 4.0901 0.999268 4.04565 0.999268 4.00003C0.999268 3.95441 1.01364 3.90995 1.04035 3.87297C1.06706 3.83599 1.10475 3.80837 1.14805 3.79403L2.31005 3.40703C2.56568 3.32219 2.79797 3.17884 2.98842 2.98839C3.17886 2.79794 3.32222 2.56565 3.40705 2.31003L3.79405 1.14803ZM10.8631 0.0990285C10.8729 0.0705548 10.8914 0.0458644 10.916 0.0283901C10.9405 0.0109158 10.9699 0.00152588 11.0001 0.00152588C11.0302 0.00152588 11.0596 0.0109158 11.0841 0.0283901C11.1087 0.0458644 11.1272 0.0705548 11.1371 0.0990285L11.3951 0.873029C11.5101 1.21903 11.7811 1.49003 12.1271 1.60503L12.9011 1.86303C12.9295 1.8729 12.9542 1.8914 12.9717 1.91595C12.9892 1.9405 12.9986 1.96989 12.9986 2.00003C12.9986 2.03016 12.9892 2.05955 12.9717 2.08411C12.9542 2.10866 12.9295 2.12716 12.9011 2.13703L12.1271 2.39503C11.9567 2.45203 11.8019 2.54782 11.6749 2.67484C11.5478 2.80187 11.4521 2.95667 11.3951 3.12703L11.1371 3.90103C11.1272 3.9295 11.1087 3.95419 11.0841 3.97167C11.0596 3.98914 11.0302 3.99853 11.0001 3.99853C10.9699 3.99853 10.9405 3.98914 10.916 3.97167C10.8914 3.95419 10.8729 3.9295 10.8631 3.90103L10.6051 3.12703C10.5481 2.95667 10.4523 2.80187 10.3252 2.67484C10.1982 2.54782 10.0434 2.45203 9.87305 2.39503L9.10005 2.13703C9.07158 2.12716 9.04689 2.10866 9.02942 2.08411C9.01194 2.05955 9.00255 2.03016 9.00255 2.00003C9.00255 1.96989 9.01194 1.9405 9.02942 1.91595C9.04689 1.8914 9.07158 1.8729 9.10005 1.86303L9.87405 1.60503C10.2201 1.49003 10.4911 1.21903 10.6061 0.873029L10.8631 0.0990285Z" fill="url(#paint0_linear_16_1076)"/>
</g>
<defs>
<linearGradient id="paint0_linear_16_1076" x1="6.99991" y1="0.00152588" x2="6.99991" y2="16.0015" gradientUnits="userSpaceOnUse">
<stop stop-color="#AA9ADA"/>
<stop offset="1" stop-color="#5C4A90"/>
</linearGradient>
<clipPath id="clip0_16_1076">
<rect width="16" height="16" fill="white"/>
</clipPath>
</defs>
</svg>
