<svg width="25" height="24" viewBox="0 0 25 24" fill="none" xmlns="http://www.w3.org/2000/svg">
<g clip-path="url(#clip0_49_41)">
<path d="M20.7348 3.48908C19.6347 2.37833 18.3245 1.49775 16.8805 0.898724C15.4365 0.299696 13.8876 -0.00579123 12.3243 8.31376e-05C5.77381 8.31376e-05 0.435313 5.33708 0.429313 11.8891C0.429313 13.9876 0.978313 16.0291 2.01481 17.8366L0.333313 24.0001L6.63931 22.3471C8.38304 23.2984 10.3379 23.7962 12.3243 23.7946H12.3303C18.8823 23.7946 24.2193 18.4576 24.2253 11.8996C24.2267 10.3367 23.9188 8.78894 23.3195 7.3455C22.7202 5.90206 21.8428 4.59143 20.7348 3.48908ZM12.3243 21.7816C10.5531 21.7802 8.81465 21.3036 7.29031 20.4016L6.93031 20.1856L3.18931 21.1666L4.18831 17.5171L3.95431 17.1406C2.96402 15.5661 2.44028 13.7431 2.44381 11.8831C2.44381 6.44408 6.87931 2.00708 12.3303 2.00708C13.6289 2.00475 14.9152 2.25949 16.1148 2.75662C17.3145 3.25375 18.404 3.98342 19.3203 4.90358C20.2397 5.82031 20.9685 6.9099 21.4649 8.10957C21.9612 9.30925 22.2152 10.5953 22.2123 11.8936C22.2063 17.3521 17.7708 21.7816 12.3243 21.7816ZM17.7468 14.3806C17.4513 14.2321 15.9918 13.5136 15.7173 13.4116C15.4443 13.3141 15.2448 13.2631 15.0498 13.5601C14.8503 13.8556 14.2803 14.5291 14.1093 14.7226C13.9383 14.9221 13.7613 14.9446 13.4643 14.7976C13.1688 14.6476 12.2103 14.3356 11.0763 13.3201C10.1913 12.5326 9.59881 11.5576 9.42181 11.2621C9.25081 10.9651 9.40531 10.8061 9.55381 10.6576C9.68431 10.5256 9.84931 10.3096 9.99781 10.1386C10.1478 9.96758 10.1973 9.84158 10.2948 9.64358C10.3923 9.44258 10.3458 9.27158 10.2723 9.12308C10.1973 8.97458 9.60481 7.50908 9.35431 6.91808C9.11431 6.33458 8.86981 6.41558 8.68681 6.40808C8.51581 6.39758 8.31631 6.39758 8.11681 6.39758C7.96618 6.40142 7.81795 6.4363 7.68141 6.50005C7.54488 6.56381 7.42297 6.65505 7.32331 6.76808C7.05031 7.06508 6.28681 7.78358 6.28681 9.24908C6.28681 10.7146 7.35181 12.1231 7.50181 12.3226C7.64881 12.5221 9.59281 15.5206 12.5763 16.8106C13.2813 17.1181 13.8363 17.2996 14.2698 17.4376C14.9823 17.6656 15.6258 17.6311 16.1388 17.5576C16.7088 17.4706 17.8953 16.8376 18.1458 16.1431C18.3918 15.4471 18.3918 14.8531 18.3168 14.7286C18.2433 14.6026 18.0438 14.5291 17.7468 14.3806Z" fill="url(#paint0_linear_49_41)"/>
</g>
<defs>
<linearGradient id="paint0_linear_49_41" x1="12.2793" y1="0" x2="12.2793" y2="24.0001" gradientUnits="userSpaceOnUse">
<stop stop-color="#AA9ADA"/>
<stop offset="1" stop-color="#5C4A90"/>
</linearGradient>
<clipPath id="clip0_49_41">
<rect width="24" height="24" fill="white" transform="translate(0.333313)"/>
</clipPath>
</defs>
</svg>
